<svg width="142" height="116" viewBox="0 0 142 116" fill="none" xmlns="http://www.w3.org/2000/svg">
<path d="M97.1197 1.2462C128.112 7.11921 119.812 33.9906 111.788 46.6921C78.3892 28.7932 43.9621 38.3022 30.9234 45.294C12.4937 12.7827 36.3675 1.2462 49.353 1.2462C59.8842 1.2462 68.6603 8.93695 71.9199 13.8312C81.2476 1.52587 92.6063 0.31398 97.1197 1.2462Z" fill="#D0E6D4" stroke="#13914E" stroke-width="0.8"/>
<path d="M71.0425 39.4539C103.84 39.7336 115.8 51.6893 117.681 57.6323L118.433 100.981C114.22 112.727 103.138 115.197 98.1228 114.964H38.6966C26.36 112.167 23.2759 104.477 23.2759 100.981V57.6323C23.652 51.3398 38.2452 39.1742 71.0425 39.4539Z" fill="#D0E6D4" stroke="#13914E" stroke-width="0.8"/>
<path d="M21.3814 73.3147C21.0806 63.5263 16.7427 57.5834 14.6114 55.8355C13.483 54.5537 10.2483 52.7591 6.3367 55.8355C2.4251 58.9118 1.19646 69.2362 1.07109 74.0138C0.469305 86.0395 3.82927 97.2029 5.58447 101.281C6.71282 103.029 13.4829 103.379 14.6114 101.281C16.9934 96.0376 21.6823 83.103 21.3814 73.3147Z" fill="#D0E6D4" stroke="#13914E" stroke-width="0.8"/>
<path d="M140.986 71.9161C140.685 62.1277 136.347 56.1848 134.216 54.4369C133.088 53.1551 129.853 51.3605 125.941 54.4369C122.03 57.5132 120.801 67.8376 120.676 72.6152C120.074 84.6409 123.434 95.8043 125.189 99.8828C126.317 101.631 133.088 101.98 134.216 99.8828C136.598 94.639 141.287 81.7044 140.986 71.9161Z" fill="#D0E6D4" stroke="#13914E" stroke-width="0.8"/>
<path d="M82.2186 82.1506C83.2499 82.1506 83.7655 82.5413 83.7655 83.3225C83.7655 84.1038 83.4218 84.6819 82.7343 85.0569C82.0468 85.4006 81.2655 85.6506 80.3905 85.8069C79.5468 85.9631 78.7499 86.0569 77.9999 86.0881C77.2499 86.0881 76.7655 86.1194 76.5468 86.1819C76.3593 86.2131 75.9061 86.3381 75.1874 86.5569C74.4999 86.7444 73.6718 86.9788 72.703 87.26C71.7343 87.51 70.6874 87.7913 69.5624 88.1038C66.0311 89.0413 63.2186 89.51 61.1249 89.51C60.0624 89.51 59.3436 89.3538 58.9686 89.0413C58.6249 88.6975 58.5624 88.2288 58.7811 87.635C61.1249 85.5725 63.5624 82.9163 66.0936 79.6663C69.8749 74.8225 71.7655 71.0413 71.7655 68.3225C71.7655 67.7913 71.6874 67.2913 71.5311 66.8225C71.1874 65.8538 70.2968 65.2288 68.8593 64.9475C67.4843 64.9475 66.3593 65.2288 65.4843 65.7913C64.6093 66.3538 63.7811 66.9788 62.9999 67.6663C62.2499 68.3538 61.4686 68.9788 60.6561 69.5413C59.8749 70.1038 58.9061 70.385 57.7499 70.385C57.7811 69.3538 58.203 68.3538 59.0155 67.385C60.6405 65.385 62.9374 63.9475 65.9061 63.0725C66.9686 62.7288 67.8124 62.5569 68.4374 62.5569C69.0624 62.5569 69.5311 62.5725 69.8436 62.6038C71.0624 62.7288 72.1093 63.1663 72.9843 63.9163C73.8593 64.6663 74.3749 65.8225 74.5311 67.385C74.5311 71.7913 72.4686 76.6819 68.3436 82.0569C67.2186 83.5256 66.1093 84.885 65.0155 86.135C65.3593 86.1663 65.8905 86.1819 66.6093 86.1819C67.3593 86.1819 68.3749 86.01 69.6561 85.6663C70.9374 85.2913 72.2968 84.8538 73.7343 84.3538C75.1718 83.8225 76.5936 83.3225 77.9999 82.8538C79.4061 82.385 80.8124 82.1506 82.2186 82.1506Z" fill="black"/>
</svg>
