<svg width="116" height="142" viewBox="0 0 116 142" fill="none" xmlns="http://www.w3.org/2000/svg">
<path d="M114.733 97.1198C108.86 128.112 81.9882 119.812 69.2867 111.788C87.1856 78.3894 77.6766 43.9622 70.6847 30.9235C103.196 12.4939 114.733 36.3676 114.733 49.3531C114.733 59.8844 107.042 68.6604 102.148 71.92C114.453 81.2477 115.665 92.6064 114.733 97.1198Z" fill="#D0E6D4" stroke="#13914E" stroke-width="0.8"/>
<path d="M76.5248 71.0426C76.2451 103.84 64.2894 115.8 58.3464 117.681L14.998 118.433C3.25192 114.221 0.781548 103.138 1.01462 98.1229V38.6967C3.81129 26.3601 11.5021 23.276 14.998 23.276H58.3464C64.6389 23.6521 76.8045 38.2454 76.5248 71.0426Z" fill="#D0E6D4" stroke="#13914E" stroke-width="0.8"/>
<path d="M42.6641 21.3816C52.4525 21.0807 58.3954 16.7428 60.1433 14.6115C61.4251 13.4831 63.2197 10.2484 60.1433 6.33682C57.067 2.42523 46.7426 1.19658 41.965 1.07121C29.9393 0.469427 18.7759 3.82939 14.6974 5.58459C12.9495 6.71294 12.5999 13.483 14.6974 14.6115C19.9412 16.9936 32.8758 21.6825 42.6641 21.3816Z" fill="#D0E6D4" stroke="#13914E" stroke-width="0.8"/>
<path d="M44.0627 140.986C53.851 140.685 59.794 136.347 61.5419 134.216C62.8237 133.088 64.6182 129.853 61.5419 125.941C58.4655 122.03 48.1412 120.801 43.3635 120.676C31.3378 120.074 20.1745 123.434 16.096 125.189C14.3481 126.318 13.9985 133.088 16.096 134.216C21.3397 136.598 34.2743 141.287 44.0627 140.986Z" fill="#D0E6D4" stroke="#13914E" stroke-width="0.8"/>
<path d="M26.2655 69.4319L26.5936 66.1975C26.8124 64.385 27.0624 62.1975 27.3436 59.635L27.9061 54.9475C28.0311 54.5413 28.2186 54.3069 28.4686 54.2444C28.7499 54.1819 29.1249 54.1506 29.5936 54.1506C30.0624 54.1506 30.4061 54.2756 30.6249 54.5256C30.8436 54.7444 30.953 55.0256 30.953 55.3694C30.9843 55.7131 30.953 56.1038 30.8593 56.5413C30.7655 56.9788 30.7186 57.4006 30.7186 57.8069C32.9061 57.8069 35.078 57.5725 37.2343 57.1038C39.4218 56.635 41.5936 56.1194 43.7499 55.5569C45.9061 54.9944 48.0624 54.4788 50.2186 54.01C52.3749 53.5413 54.5468 53.3069 56.7343 53.3069C57.0468 53.3069 57.328 53.3538 57.578 53.4475C57.8593 53.51 58.078 53.76 58.2343 54.1975C58.1093 54.5725 57.8905 54.885 57.578 55.135C57.2655 55.385 56.7343 55.635 55.9843 55.885C55.2655 56.135 54.2811 56.4006 53.0311 56.6819C51.7811 56.9319 50.1718 57.2756 48.203 57.7131C46.2343 58.1194 43.828 58.6194 40.9843 59.2131C38.1718 59.8069 34.8436 60.5413 30.9999 61.4163V67.4163C31.9999 67.3225 33.1405 67.1663 34.4218 66.9475C36.7968 66.5413 38.6093 66.3381 39.8593 66.3381C41.1093 66.3381 42.1405 66.3538 42.953 66.385C43.7968 66.4163 44.7499 66.635 45.8124 67.0413C48.0936 67.9163 49.3749 69.7131 49.6561 72.4319C49.6561 74.4006 49.1093 76.0725 48.0155 77.4475C46.953 78.7913 45.6093 79.8694 43.9843 80.6819C40.9218 82.2131 37.3593 82.9788 33.2968 82.9788C32.4218 82.9788 31.7968 82.885 31.4218 82.6975C31.0468 82.51 30.8593 82.1038 30.8593 81.4788C30.8593 80.8538 31.1093 80.26 31.6093 79.6975C32.1093 79.135 32.6718 78.8538 33.2968 78.8538V79.6975C36.9843 79.6975 39.6405 79.4475 41.2655 78.9475C42.8905 78.4163 44.1718 77.6975 45.1093 76.7913C46.078 75.8538 46.5624 74.6975 46.5624 73.3225C46.5624 71.9475 46.2811 70.9475 45.7186 70.3225C45.1561 69.6975 44.4686 69.2288 43.6561 68.9163C42.4061 68.4163 40.9843 68.1663 39.3905 68.1663C37.7968 68.1663 36.5936 68.2913 35.7811 68.5413C34.9686 68.7913 34.1718 69.0725 33.3905 69.385C31.2968 70.1663 29.703 70.5569 28.6093 70.5569H27.8593C26.7968 70.5569 26.2655 70.1819 26.2655 69.4319Z" fill="black"/>
</svg>
