<svg width="142" height="116" viewBox="0 0 142 116" fill="none" xmlns="http://www.w3.org/2000/svg">
<path d="M44.8803 114.754C13.8884 108.881 22.188 82.0094 30.2118 69.3079C63.6108 87.2068 98.0379 77.6978 111.077 70.706C129.506 103.217 105.633 114.754 92.647 114.754C82.1158 114.754 73.3397 107.063 70.0801 102.169C60.7524 114.474 49.3937 115.686 44.8803 114.754Z" fill="#D0E6D4" stroke="#13914E" stroke-width="0.8"/>
<path d="M70.9575 76.5461C38.1603 76.2664 26.1998 64.3107 24.3192 58.3677L23.567 15.0193C27.7795 3.27322 38.8624 0.802849 43.8772 1.03592H103.303C115.64 3.83259 118.724 11.5234 118.724 15.0193V58.3677C118.348 64.6602 103.755 76.8258 70.9575 76.5461Z" fill="#D0E6D4" stroke="#13914E" stroke-width="0.8"/>
<path d="M120.619 42.6853C120.919 52.4737 125.257 58.4166 127.389 60.1645C128.517 61.4463 131.752 63.2409 135.663 60.1645C139.575 57.0882 140.804 46.7638 140.929 41.9862C141.531 29.9605 138.171 18.7971 136.416 14.7186C135.287 12.9707 128.517 12.6211 127.389 14.7186C125.007 19.9624 120.318 32.897 120.619 42.6853Z" fill="#D0E6D4" stroke="#13914E" stroke-width="0.8"/>
<path d="M1.01394 44.0839C1.31483 53.8723 5.65269 59.8152 7.78401 61.5631C8.9124 62.8449 12.1471 64.6395 16.0587 61.5631C19.9703 58.4868 21.1989 48.1624 21.3243 43.3848C21.9261 31.3591 18.5661 20.1957 16.8109 16.1172C15.6826 14.3693 8.9125 14.0197 7.78401 16.1172C5.40195 21.361 0.713045 34.2956 1.01394 44.0839Z" fill="#D0E6D4" stroke="#13914E" stroke-width="0.8"/>
<path d="M78.5938 32.2344C78.5938 34.1094 77.0938 36.3125 74.0938 38.8438C73.3438 39.4375 72.7031 39.9688 72.1719 40.4375C76.0156 40.5 78.3125 41.4062 79.0625 43.1562C79.2188 43.5625 79.2969 43.9844 79.2969 44.4219C79.2969 44.8594 79.1719 45.4531 78.9219 46.2031C78.7031 46.9219 78.2188 47.7812 77.4688 48.7812C76.7188 49.7812 75.8125 50.75 74.75 51.6875C72.5312 53.625 70.1875 54.9688 67.7188 55.7188C66.875 55.9688 66.1875 56.0938 65.6562 56.0938C65.1562 56.0938 64.75 56.0781 64.4375 56.0469C64.125 56.0469 63.7969 55.9531 63.4531 55.7656C63.1094 55.5781 62.9375 55.2656 62.9375 54.8281C65.2812 54.2344 67.3438 53.3906 69.125 52.2969C70.9062 51.2031 72.3125 50.0625 73.3438 48.875C74.5625 47.4062 75.1719 46.1875 75.1719 45.2188C75.1719 44.25 74.875 43.5938 74.2812 43.25C73.6875 42.9062 72.9219 42.7344 71.9844 42.7344C69.6094 42.7344 66.375 43.7031 62.2812 45.6406L60.6406 43.5312C70.1094 39.1562 74.8438 36.0156 74.8438 34.1094C74.8438 33.2969 73.9531 32.7656 72.1719 32.5156C70.3281 32.5156 68.2188 32.8281 65.8438 33.4531C63.5 34.0781 61.6875 34.5312 60.4062 34.8125C59.125 35.0938 57.8125 35.2344 56.4688 35.2344C56.4688 33.7656 56.8281 32.9062 57.5469 32.6562C58.8594 32.3438 60.25 32 61.7188 31.625C66.5312 30.4062 70.375 29.7969 73.25 29.7969C76.1562 29.7969 77.9375 30.6094 78.5938 32.2344Z" fill="black"/>
</svg>
