<svg width="116" height="142" viewBox="0 0 116 142" fill="none" xmlns="http://www.w3.org/2000/svg">
<path d="M114.733 97.1198C108.86 128.112 81.9882 119.812 69.2867 111.788C87.1856 78.3894 77.6766 43.9622 70.6847 30.9235C103.196 12.4939 114.733 36.3676 114.733 49.3531C114.733 59.8844 107.042 68.6604 102.148 71.92C114.453 81.2477 115.665 92.6064 114.733 97.1198Z" fill="#FFD1D3" stroke="#FF5962" stroke-width="0.8"/>
<path d="M76.5248 71.0426C76.2451 103.84 64.2894 115.8 58.3464 117.681L14.998 118.433C3.25192 114.221 0.781548 103.138 1.01462 98.1229V38.6967C3.81129 26.3601 11.5021 23.276 14.998 23.276H58.3464C64.6389 23.6521 76.8045 38.2454 76.5248 71.0426Z" fill="#FFD1D3" stroke="#FF5962" stroke-width="0.8"/>
<path d="M42.6641 21.3816C52.4525 21.0807 58.3954 16.7428 60.1433 14.6115C61.4251 13.4831 63.2197 10.2484 60.1433 6.33682C57.067 2.42523 46.7426 1.19658 41.965 1.07121C29.9393 0.469427 18.7759 3.82939 14.6974 5.58459C12.9495 6.71294 12.5999 13.483 14.6974 14.6115C19.9412 16.9936 32.8758 21.6825 42.6641 21.3816Z" fill="#FFD1D3" stroke="#FF5962" stroke-width="0.8"/>
<path d="M44.0627 140.986C53.851 140.685 59.794 136.347 61.5419 134.216C62.8237 133.088 64.6182 129.853 61.5419 125.941C58.4655 122.03 48.1412 120.801 43.3635 120.676C31.3378 120.074 20.1745 123.434 16.096 125.189C14.3481 126.318 13.9985 133.088 16.096 134.216C21.3397 136.598 34.2743 141.287 44.0627 140.986Z" fill="#FFD1D3" stroke="#FF5962" stroke-width="0.8"/>
</svg>
