<svg width="344" height="186" viewBox="0 0 344 186" fill="none" xmlns="http://www.w3.org/2000/svg">
<rect width="344" height="186" fill="#444444"/>
<path d="M90.9688 85.9844L86.7969 85.8906C85.7031 85.8906 84.4375 86 83 86.2188C82.9375 87.4375 82.8125 89.0156 82.625 90.9531C81.9688 97.8281 81.6406 102.297 81.6406 104.359C81.6406 106.391 81.6719 107.828 81.7344 108.672L77.3281 109L78.7812 85.8438L68.7969 85.2812C68.5469 85.2812 68.3438 85.0781 68.1875 84.6719C68.0625 84.2656 68 83.8906 68 83.5469C68 83.2031 68.1406 82.8281 68.4219 82.4219C68.7031 82.0156 69.0312 81.8125 69.4062 81.8125C71.6875 81.9062 73.9844 82.0625 76.2969 82.2812C80.5781 82.6562 84.2188 82.8438 87.2188 82.8438L90.125 82.75C92.4062 82.6875 94.6719 82.4375 96.9219 82C97.4219 82.0938 97.7344 82.875 97.8594 84.3438C97.8906 84.6562 97.9062 84.9062 97.9062 85.0938C95.8438 85.6875 93.5312 85.9844 90.9688 85.9844ZM123.641 91.8438H124.953C125.484 91.8438 125.984 91.8906 126.453 91.9844C126.953 92.0781 127.203 92.4219 127.203 93.0156C127.422 94.2656 126.688 94.875 125 94.8438C124.531 94.8125 124.094 94.7812 123.688 94.75C123.312 94.7188 123 94.7188 122.75 94.75C122.5 94.75 122.391 94.8281 122.422 94.9844C122.734 95.8906 123.062 96.9062 123.406 98.0312C123.781 99.1562 124.188 100.281 124.625 101.406C125.75 104.188 126.812 106.188 127.812 107.406C127.281 108.062 126.656 108.609 125.938 109.047C125.25 109.484 124.875 109.703 124.812 109.703C124.781 109.703 124.75 109.688 124.719 109.656L118.109 95.7344L105.312 98.875L104.844 100.844C103.938 104.438 102.922 106.938 101.797 108.344C101.609 108.656 101.219 108.688 100.625 108.438C99.625 108.062 99.125 107.75 99.125 107.5C99.125 107.438 99.4531 106.531 100.109 104.781C100.766 103.031 101.422 101.266 102.078 99.4844C102.766 97.6719 103.469 95.7812 104.188 93.8125C104.938 91.8438 105.641 89.9688 106.297 88.1875C106.953 86.4062 107.547 84.8125 108.078 83.4062C108.609 81.9688 108.984 80.9375 109.203 80.3125C109.422 79.6562 109.562 79.0938 109.625 78.625C109.719 78.125 109.844 77.7031 110 77.3594C110.312 76.6406 111.094 76.2812 112.344 76.2812C113.688 77.0312 114.719 78.0156 115.438 79.2344C116.188 80.4219 116.812 81.7031 117.312 83.0781C117.844 84.4531 118.359 85.8438 118.859 87.25C119.359 88.6562 120.031 89.9375 120.875 91.0938C121.156 91.5312 121.578 91.7656 122.141 91.7969C122.703 91.8281 123.203 91.8438 123.641 91.8438ZM111.922 81.7188C111.672 83.625 111.109 85.5781 110.234 87.5781C109.359 89.5781 108.656 91.1406 108.125 92.2656C107.594 93.3594 107.141 94.375 106.766 95.3125C108.891 95.3125 111.5 94.6875 114.594 93.4375C115.375 93.0938 116.125 92.7812 116.844 92.5C115.375 86.2188 113.734 82.625 111.922 81.7188ZM131.703 77.875C134.016 77.375 136.203 77.125 138.266 77.125C140.328 77.125 142.156 77.2031 143.75 77.3594C145.375 77.5156 147 77.8125 148.625 78.25C152.062 79.2188 154.188 80.5312 155 82.1875C155.219 82.5312 155.328 82.9375 155.328 83.4062C155.328 84.7812 154.125 86.2656 151.719 87.8594C150.125 88.9219 147.844 90 144.875 91.0938C152.156 91.5 157.094 92.5625 159.688 94.2812C161.125 95.1875 161.844 96.25 161.844 97.4688C161.844 99.1562 160.656 100.906 158.281 102.719C155.688 104.656 152.375 106.266 148.344 107.547C144.625 108.734 141.172 109.328 137.984 109.328C135.547 109.328 133.453 108.969 131.703 108.25C131.641 106.25 131.562 104.188 131.469 102.062C131.219 97.3438 131.094 93.375 131.094 90.1562C131.094 86.9062 131.203 83.5312 131.422 80.0312C131.078 80.0312 130.766 80 130.484 79.9375C130.203 79.8438 130.062 79.5312 130.062 79C130.062 78.25 130.609 77.875 131.703 77.875ZM135.922 105.906C140.953 105.625 145.078 105.031 148.297 104.125C151.516 103.188 153.828 102.188 155.234 101.125C156.672 100.031 157.391 98.9844 157.391 97.9844C157.391 96.6719 156.453 95.625 154.578 94.8438C152.547 94.0312 149.844 93.625 146.469 93.625C143.125 93.625 139.234 94.0781 134.797 94.9844L135.922 105.906ZM140.281 80.1719H139.109C136.547 80.1719 135.109 80.4375 134.797 80.9688L134.328 90.3906C137.141 90.3906 140.562 89.7188 144.594 88.375C147.219 87.4688 149.141 86.4688 150.359 85.375C150.984 84.8125 151.297 84.2344 151.297 83.6406C151.297 83.0469 151.062 82.5625 150.594 82.1875C150.156 81.7812 149.578 81.4531 148.859 81.2031C148.172 80.9531 147.391 80.7656 146.516 80.6406C145.672 80.4844 144.844 80.375 144.031 80.3125C142.781 80.2188 141.531 80.1719 140.281 80.1719ZM166.531 88.5156L166.438 76.8438L170.188 76.9844L169.766 104.453L194.469 105.156C194.969 105.312 195.219 105.578 195.219 105.953C195.219 106.328 194.984 106.719 194.516 107.125C193.609 107.938 192.578 108.344 191.422 108.344C191.141 108.344 190.844 108.312 190.531 108.25L165.359 108.016C166.141 105.109 166.531 98.6094 166.531 88.5156ZM212.562 79.2344C215.688 79.2344 217.766 79.4375 218.797 79.8438V82.1406C217.953 82.2656 216.797 82.3438 215.328 82.375C213.859 82.375 212.297 82.3906 210.641 82.4219C206.016 82.5156 202.859 82.75 201.172 83.125C200.641 85.625 200.391 87.3281 200.422 88.2344C200.453 89.1406 200.484 89.8438 200.516 90.3438C200.641 91.5625 200.703 93 200.703 94.6562C202.828 94.6562 205.25 94.4688 207.969 94.0938C210.719 93.7188 212.844 93.4531 214.344 93.2969C215.844 93.1094 217.391 93.0156 218.984 93.0156V95.5938L201.031 97.8438L201.312 105.531C204.406 105.531 207.562 105.391 210.781 105.109C214.031 104.797 216.484 104.578 218.141 104.453C219.828 104.297 221.609 104.219 223.484 104.219C223.484 104.844 223.297 105.438 222.922 106C222.172 107 221.5 107.297 220.906 106.891C215.406 107.484 210.484 107.953 206.141 108.297C201.828 108.641 198.922 108.875 197.422 109L197.609 79.0938C198.422 79.3438 199.922 79.4688 202.109 79.4688L212.562 79.2344ZM248.047 101.219C246.297 100.969 245.422 100.562 245.422 100C245.422 99.5938 245.719 99.125 246.312 98.5938C246.906 98.0625 247.5 97.5156 248.094 96.9531C248.094 95.0781 247.812 92.9844 247.25 90.6719C246.688 88.3281 246.281 86.5156 246.031 85.2344C245.781 83.9531 245.656 82.7812 245.656 81.7188C245.656 80.6562 245.812 79.9844 246.125 79.7031C246.469 79.4219 246.953 79.2812 247.578 79.2812C248.203 79.2812 248.609 79.375 248.797 79.5625C248.984 79.7188 249.109 79.9219 249.172 80.1719C249.234 80.4219 249.266 80.6875 249.266 80.9688C249.297 81.25 249.359 81.5156 249.453 81.7656C249.609 82.3594 250.094 82.6562 250.906 82.6562C253 82.625 255.094 82.4531 257.188 82.1406C259.281 81.7969 261.359 81.4531 263.422 81.1094C267.547 80.4219 270.438 80.0781 272.094 80.0781C273.781 80.0781 275.109 80.125 276.078 80.2188C276.109 80.8125 276.172 81.3281 276.266 81.7656C276.359 82.2031 276.406 82.5625 276.406 82.8438C276.406 83.375 275.891 83.5625 274.859 83.4062C258.516 84 250.344 85.2188 250.344 87.0625C250.344 89.0938 250.484 90.8438 250.766 92.3125C251.047 93.75 251.25 94.6562 251.375 95.0312C251.531 95.4062 251.703 95.5938 251.891 95.5938C253.672 95.5938 255.469 95.4375 257.281 95.125C259.125 94.8125 260.953 94.4844 262.766 94.1406C264.609 93.7656 266.453 93.4219 268.297 93.1094C270.141 92.7969 271.953 92.6406 273.734 92.6406C273.766 92.6406 273.781 92.7656 273.781 93.0156C273.781 93.2344 273.766 93.4844 273.734 93.7656C273.641 94.5156 273.641 94.8906 273.734 94.8906C272.391 95.6406 269.953 96.25 266.422 96.7188C264.891 96.9375 263.328 97.1406 261.734 97.3281C260.141 97.5156 258.672 97.7188 257.328 97.9375C254.234 98.375 252.438 98.9531 251.938 99.6719L251.422 108.859C251.078 109.203 250.688 109.375 250.25 109.375L248.516 109.234C248.359 109.234 248.203 109.234 248.047 109.234V101.219Z" fill="white"/>
</svg>
