<svg width="344" height="186" viewBox="0 0 344 186" fill="none" xmlns="http://www.w3.org/2000/svg">
<rect width="344" height="186" fill="#444444"/>
<path d="M90.9688 85.6728L86.7969 85.579C85.7031 85.579 84.4375 85.6884 83 85.9072C82.9375 87.1259 82.8125 88.704 82.625 90.6415C81.9688 97.5165 81.6406 101.985 81.6406 104.048C81.6406 106.079 81.6719 107.517 81.7344 108.36L77.3281 108.688L78.7812 85.5322L68.7969 84.9697C68.5469 84.9697 68.3438 84.7665 68.1875 84.3603C68.0625 83.954 68 83.579 68 83.2353C68 82.8915 68.1406 82.5165 68.4219 82.1103C68.7031 81.704 69.0312 81.5009 69.4062 81.5009C71.6875 81.5947 73.9844 81.7509 76.2969 81.9697C80.5781 82.3447 84.2188 82.5322 87.2188 82.5322L90.125 82.4384C92.4062 82.3759 94.6719 82.1259 96.9219 81.6884C97.4219 81.7822 97.7344 82.5634 97.8594 84.0322C97.8906 84.3447 97.9062 84.5947 97.9062 84.7822C95.8438 85.3759 93.5312 85.6728 90.9688 85.6728ZM123.641 91.5322H124.953C125.484 91.5322 125.984 91.579 126.453 91.6728C126.953 91.7665 127.203 92.1103 127.203 92.704C127.422 93.954 126.688 94.5634 125 94.5322C124.531 94.5009 124.094 94.4697 123.688 94.4384C123.312 94.4072 123 94.4072 122.75 94.4384C122.5 94.4384 122.391 94.5165 122.422 94.6728C122.734 95.579 123.062 96.5947 123.406 97.7197C123.781 98.8447 124.188 99.9697 124.625 101.095C125.75 103.876 126.812 105.876 127.812 107.095C127.281 107.751 126.656 108.298 125.938 108.735C125.25 109.173 124.875 109.392 124.812 109.392C124.781 109.392 124.75 109.376 124.719 109.345L118.109 95.4228L105.312 98.5634L104.844 100.532C103.938 104.126 102.922 106.626 101.797 108.032C101.609 108.345 101.219 108.376 100.625 108.126C99.625 107.751 99.125 107.438 99.125 107.188C99.125 107.126 99.4531 106.22 100.109 104.47C100.766 102.72 101.422 100.954 102.078 99.1728C102.766 97.3603 103.469 95.4697 104.188 93.5009C104.938 91.5322 105.641 89.6572 106.297 87.8759C106.953 86.0947 107.547 84.5009 108.078 83.0947C108.609 81.6572 108.984 80.6259 109.203 80.0009C109.422 79.3447 109.562 78.7822 109.625 78.3134C109.719 77.8134 109.844 77.3915 110 77.0478C110.312 76.329 111.094 75.9697 112.344 75.9697C113.688 76.7197 114.719 77.704 115.438 78.9228C116.188 80.1103 116.812 81.3915 117.312 82.7665C117.844 84.1415 118.359 85.5322 118.859 86.9384C119.359 88.3447 120.031 89.6259 120.875 90.7822C121.156 91.2197 121.578 91.454 122.141 91.4853C122.703 91.5165 123.203 91.5322 123.641 91.5322ZM111.922 81.4072C111.672 83.3134 111.109 85.2665 110.234 87.2665C109.359 89.2665 108.656 90.829 108.125 91.954C107.594 93.0478 107.141 94.0634 106.766 95.0009C108.891 95.0009 111.5 94.3759 114.594 93.1259C115.375 92.7822 116.125 92.4697 116.844 92.1884C115.375 85.9072 113.734 82.3134 111.922 81.4072ZM131.703 77.5634C134.016 77.0634 136.203 76.8134 138.266 76.8134C140.328 76.8134 142.156 76.8915 143.75 77.0478C145.375 77.204 147 77.5009 148.625 77.9384C152.062 78.9072 154.188 80.2197 155 81.8759C155.219 82.2197 155.328 82.6259 155.328 83.0947C155.328 84.4697 154.125 85.954 151.719 87.5478C150.125 88.6103 147.844 89.6884 144.875 90.7822C152.156 91.1884 157.094 92.2509 159.688 93.9697C161.125 94.8759 161.844 95.9384 161.844 97.1572C161.844 98.8447 160.656 100.595 158.281 102.407C155.688 104.345 152.375 105.954 148.344 107.235C144.625 108.423 141.172 109.017 137.984 109.017C135.547 109.017 133.453 108.657 131.703 107.938C131.641 105.938 131.562 103.876 131.469 101.751C131.219 97.0322 131.094 93.0634 131.094 89.8447C131.094 86.5947 131.203 83.2197 131.422 79.7197C131.078 79.7197 130.766 79.6884 130.484 79.6259C130.203 79.5322 130.062 79.2197 130.062 78.6884C130.062 77.9384 130.609 77.5634 131.703 77.5634ZM135.922 105.595C140.953 105.313 145.078 104.72 148.297 103.813C151.516 102.876 153.828 101.876 155.234 100.813C156.672 99.7197 157.391 98.6728 157.391 97.6728C157.391 96.3603 156.453 95.3134 154.578 94.5322C152.547 93.7197 149.844 93.3134 146.469 93.3134C143.125 93.3134 139.234 93.7665 134.797 94.6728L135.922 105.595ZM140.281 79.8603H139.109C136.547 79.8603 135.109 80.1259 134.797 80.6572L134.328 90.079C137.141 90.079 140.562 89.4072 144.594 88.0634C147.219 87.1572 149.141 86.1572 150.359 85.0634C150.984 84.5009 151.297 83.9228 151.297 83.329C151.297 82.7353 151.062 82.2509 150.594 81.8759C150.156 81.4697 149.578 81.1415 148.859 80.8915C148.172 80.6415 147.391 80.454 146.516 80.329C145.672 80.1728 144.844 80.0634 144.031 80.0009C142.781 79.9072 141.531 79.8603 140.281 79.8603ZM166.531 88.204L166.438 76.5322L170.188 76.6728L169.766 104.142L194.469 104.845C194.969 105.001 195.219 105.267 195.219 105.642C195.219 106.017 194.984 106.407 194.516 106.813C193.609 107.626 192.578 108.032 191.422 108.032C191.141 108.032 190.844 108.001 190.531 107.938L165.359 107.704C166.141 104.798 166.531 98.2978 166.531 88.204ZM212.562 78.9228C215.688 78.9228 217.766 79.1259 218.797 79.5322V81.829C217.953 81.954 216.797 82.0322 215.328 82.0634C213.859 82.0634 212.297 82.079 210.641 82.1103C206.016 82.204 202.859 82.4384 201.172 82.8134C200.641 85.3134 200.391 87.0165 200.422 87.9228C200.453 88.829 200.484 89.5322 200.516 90.0322C200.641 91.2509 200.703 92.6884 200.703 94.3447C202.828 94.3447 205.25 94.1572 207.969 93.7822C210.719 93.4072 212.844 93.1415 214.344 92.9853C215.844 92.7978 217.391 92.704 218.984 92.704V95.2822L201.031 97.5322L201.312 105.22C204.406 105.22 207.562 105.079 210.781 104.798C214.031 104.485 216.484 104.267 218.141 104.142C219.828 103.985 221.609 103.907 223.484 103.907C223.484 104.532 223.297 105.126 222.922 105.688C222.172 106.688 221.5 106.985 220.906 106.579C215.406 107.173 210.484 107.642 206.141 107.985C201.828 108.329 198.922 108.563 197.422 108.688L197.609 78.7822C198.422 79.0322 199.922 79.1572 202.109 79.1572L212.562 78.9228ZM250.906 95.4697C250.812 96.5322 250.766 98.0478 250.766 100.017C250.766 101.954 251.062 104.313 251.656 107.095L247.953 108.97L246.266 96.2197C245.172 96.0634 244.625 95.6884 244.625 95.0947C244.625 94.6572 244.875 94.1415 245.375 93.5478C245.906 92.954 246.297 92.4697 246.547 92.0947C246.797 91.6884 246.938 91.2509 246.969 90.7822C247.031 90.2822 247.109 89.4072 247.203 88.1572C247.297 86.9072 247.375 85.579 247.438 84.1728C247.531 82.7665 247.609 81.4384 247.672 80.1884C247.766 78.9384 247.812 78.0634 247.812 77.5634C248.5 76.8759 249 76.454 249.312 76.2978C250.094 75.8915 250.625 76.0478 250.906 76.7665L250.625 91.5322C258.344 91.5322 262.984 91.0322 264.547 90.0322V75.2197C264.734 74.6884 265.609 74.4228 267.172 74.4228C267.516 74.4228 267.797 74.4384 268.016 74.4697C268.016 75.0634 268.031 75.9697 268.062 77.1884C268.125 78.3759 268.172 79.7353 268.203 81.2665C268.266 82.7978 268.328 84.4228 268.391 86.1415C268.453 87.829 268.516 89.4384 268.578 90.9697C268.672 94.1572 268.75 96.5009 268.812 98.0009C269.031 101.751 269.797 104.782 271.109 107.095C269.703 107.657 268.156 107.938 266.469 107.938C265.031 104.376 264.266 99.704 264.172 93.9228C262.109 93.8603 260.703 93.829 259.953 93.829C259.203 93.829 258.359 93.8759 257.422 93.9697C255.484 94.0947 253.312 94.5947 250.906 95.4697Z" fill="white"/>
</svg>
