<?xml version="1.0"?>
<svg xmlns="http://www.w3.org/2000/svg" xmlns:xlink="http://www.w3.org/1999/xlink" width="500" zoomAndPan="magnify" viewBox="0 0 375 374.999991" height="500" preserveAspectRatio="xMidYMid meet" version="1.2" style="background-color:transparent;">
  <defs>
    <clipPath id="2680e59b48">
      <path d="M 172.347656 70.933594 L 187.347656 70.933594 L 187.347656 304.183594 L 172.347656 304.183594 Z M 172.347656 70.933594 "/>
    </clipPath>
  </defs>
  <g id="bf59d4ab6b">
    <rect x="0" width="375" y="0" height="374.999991" style="fill:none;fill-opacity:1;stroke:none;" fill="none"/>
    <rect x="0" width="375" y="0" height="374.999991" style="fill:none;fill-opacity:1;stroke:none;" fill="none"/>
    <path style=" stroke:none;fill-rule:nonzero;fill:#231f20;fill-opacity:1;" d="M 186.257812 72.011719 L 186.257812 303.105469 L 173.433594 303.105469 L 173.433594 72.011719 L 186.257812 72.011719 "/>
    <g clip-rule="nonzero" clip-path="url(#2680e59b48)">
      <path style=" stroke:none;fill-rule:nonzero;fill:#231f20;fill-opacity:1;" d="M 185.191406 302.023438 L 174.503906 302.023438 L 174.503906 73.089844 L 185.191406 73.089844 Z M 172.367188 70.933594 L 172.367188 304.183594 L 187.324219 304.183594 L 187.324219 70.933594 L 172.367188 70.933594 "/>
    </g>
    <g style="fill:#000000;fill-opacity:1;">
      <g transform="translate(196.625692, 139.514405)">
        <path style="stroke:none" d="M 18.40625 1.796875 C 18.695312 3.171875 18.84375 4.46875 18.84375 5.6875 C 18.84375 6.90625 18.796875 7.988281 18.703125 8.9375 C 18.609375 9.882812 18.429688 10.835938 18.171875 11.796875 C 17.597656 13.835938 16.820312 15.097656 15.84375 15.578125 C 15.644531 15.703125 15.40625 15.765625 15.125 15.765625 C 14.3125 15.765625 13.4375 15.054688 12.5 13.640625 C 11.875 12.691406 11.234375 11.34375 10.578125 9.59375 C 10.335938 13.894531 9.710938 16.8125 8.703125 18.34375 C 8.160156 19.195312 7.53125 19.625 6.8125 19.625 C 5.820312 19.625 4.789062 18.921875 3.71875 17.515625 C 2.570312 15.984375 1.617188 14.023438 0.859375 11.640625 C 0.160156 9.441406 -0.1875 7.398438 -0.1875 5.515625 C -0.1875 4.078125 0.0195312 2.835938 0.4375 1.796875 C 1.625 1.765625 2.84375 1.71875 4.09375 1.65625 C 6.882812 1.507812 9.234375 1.4375 11.140625 1.4375 C 13.054688 1.4375 15.050781 1.503906 17.125 1.640625 C 17.125 1.429688 17.144531 1.242188 17.1875 1.078125 C 17.238281 0.910156 17.421875 0.828125 17.734375 0.828125 C 18.179688 0.828125 18.40625 1.148438 18.40625 1.796875 Z M 1.828125 4.296875 C 1.992188 7.265625 2.347656 9.703125 2.890625 11.609375 C 3.441406 13.515625 4.035156 14.882812 4.671875 15.71875 C 5.304688 16.5625 5.921875 16.984375 6.515625 16.984375 C 7.285156 16.984375 7.90625 16.429688 8.375 15.328125 C 8.851562 14.117188 9.09375 12.519531 9.09375 10.53125 C 9.09375 8.550781 8.820312 6.25 8.28125 3.625 Z M 17.046875 6.875 L 17.046875 6.171875 C 17.046875 4.660156 16.890625 3.8125 16.578125 3.625 L 11 3.359375 C 11 5.015625 11.394531 7.035156 12.1875 9.421875 C 12.726562 10.972656 13.320312 12.109375 13.96875 12.828125 C 14.300781 13.203125 14.640625 13.390625 14.984375 13.390625 C 15.335938 13.390625 15.628906 13.253906 15.859375 12.984375 C 16.085938 12.710938 16.273438 12.367188 16.421875 11.953125 C 16.578125 11.535156 16.695312 11.070312 16.78125 10.5625 C 16.863281 10.0625 16.921875 9.570312 16.953125 9.09375 C 17.015625 8.351562 17.046875 7.613281 17.046875 6.875 Z M 17.046875 6.875 "/>
      </g>
    </g>
    <g style="fill:#000000;fill-opacity:1;">
      <g transform="translate(196.625692, 159.684517)">
        <path style="stroke:none" d="M 4.65625 1.28125 C 5.65625 0.832031 6.828125 0.609375 8.171875 0.609375 C 9.523438 0.609375 10.722656 0.820312 11.765625 1.25 C 12.804688 1.6875 13.707031 2.285156 14.46875 3.046875 C 16.03125 4.648438 16.8125 6.664062 16.8125 9.09375 C 16.8125 11.625 16.234375 13.707031 15.078125 15.34375 C 13.742188 17.195312 11.835938 18.125 9.359375 18.125 C 6.296875 18.125 4.035156 17.414062 2.578125 16 C 1.117188 14.582031 0.390625 12.378906 0.390625 9.390625 C 0.390625 5.234375 1.8125 2.53125 4.65625 1.28125 Z M 8.734375 2.875 C 4.367188 2.875 2.1875 5.078125 2.1875 9.484375 C 2.1875 11.640625 2.832031 13.390625 4.125 14.734375 C 5.40625 16.085938 7.078125 16.765625 9.140625 16.765625 C 11.078125 16.765625 12.554688 15.960938 13.578125 14.359375 C 14.460938 12.984375 14.90625 11.253906 14.90625 9.171875 C 14.90625 7.503906 14.304688 6.035156 13.109375 4.765625 C 11.910156 3.503906 10.453125 2.875 8.734375 2.875 Z M 8.734375 2.875 "/>
      </g>
    </g>
    <g style="fill:#000000;fill-opacity:1;">
      <g transform="translate(196.625692, 178.690968)">
        <path style="stroke:none" d="M 10.140625 15.21875 L 10.140625 15.984375 C 10.140625 16.296875 10.109375 16.59375 10.046875 16.875 C 9.992188 17.164062 9.796875 17.3125 9.453125 17.3125 C 8.710938 17.445312 8.351562 17.015625 8.375 16.015625 C 8.382812 15.734375 8.398438 15.476562 8.421875 15.25 C 8.441406 15.019531 8.445312 14.832031 8.4375 14.6875 C 8.425781 14.539062 8.375 14.476562 8.28125 14.5 C 7.75 14.675781 7.148438 14.867188 6.484375 15.078125 C 5.816406 15.296875 5.148438 15.535156 4.484375 15.796875 C 2.835938 16.460938 1.65625 17.085938 0.9375 17.671875 C 0.550781 17.359375 0.226562 16.992188 -0.03125 16.578125 C -0.289062 16.171875 -0.421875 15.953125 -0.421875 15.921875 C -0.421875 15.890625 -0.410156 15.863281 -0.390625 15.84375 L 7.84375 11.9375 L 5.984375 4.375 L 4.828125 4.09375 C 2.703125 3.5625 1.222656 2.960938 0.390625 2.296875 C 0.203125 2.191406 0.179688 1.960938 0.328125 1.609375 C 0.554688 1.015625 0.742188 0.71875 0.890625 0.71875 C 0.921875 0.71875 1.453125 0.910156 2.484375 1.296875 C 3.523438 1.691406 4.578125 2.085938 5.640625 2.484375 C 6.703125 2.878906 7.8125 3.289062 8.96875 3.71875 C 10.132812 4.15625 11.242188 4.566406 12.296875 4.953125 C 13.347656 5.347656 14.296875 5.703125 15.140625 6.015625 C 15.984375 6.328125 16.59375 6.546875 16.96875 6.671875 C 17.351562 6.804688 17.6875 6.894531 17.96875 6.9375 C 18.257812 6.988281 18.503906 7.0625 18.703125 7.15625 C 19.128906 7.332031 19.34375 7.789062 19.34375 8.53125 C 18.894531 9.320312 18.316406 9.9375 17.609375 10.375 C 16.898438 10.8125 16.140625 11.179688 15.328125 11.484375 C 14.515625 11.785156 13.691406 12.082031 12.859375 12.375 C 12.023438 12.675781 11.265625 13.078125 10.578125 13.578125 C 10.328125 13.742188 10.191406 13.992188 10.171875 14.328125 C 10.148438 14.660156 10.140625 14.957031 10.140625 15.21875 Z M 16.125 8.28125 C 15 8.132812 13.84375 7.800781 12.65625 7.28125 C 11.476562 6.769531 10.5625 6.351562 9.90625 6.03125 C 9.25 5.71875 8.644531 5.453125 8.09375 5.234375 C 8.09375 6.492188 8.460938 8.035156 9.203125 9.859375 C 9.398438 10.328125 9.582031 10.769531 9.75 11.1875 C 13.46875 10.320312 15.59375 9.351562 16.125 8.28125 Z M 16.125 8.28125 "/>
      </g>
    </g>
    <g style="fill:#000000;fill-opacity:1;">
      <g transform="translate(196.625692, 196.866234)">
        <path style="stroke:none" d="M 16.453125 3.265625 C 17.429688 4.285156 17.921875 6.125 17.921875 8.78125 C 17.921875 10.445312 17.753906 11.84375 17.421875 12.96875 C 17.097656 14.09375 16.75 14.9375 16.375 15.5 C 16.007812 16.0625 15.601562 16.34375 15.15625 16.34375 C 14.144531 16.34375 13.140625 15.160156 12.140625 12.796875 C 11.972656 12.453125 11.632812 11.535156 11.125 10.046875 C 10.613281 8.554688 10.269531 7.550781 10.09375 7.03125 C 9.664062 5.90625 9.332031 5.160156 9.09375 4.796875 C 9 4.796875 8.914062 4.832031 8.84375 4.90625 C 8.78125 4.976562 8.671875 5.148438 8.515625 5.421875 C 8.359375 5.703125 8.132812 6.117188 7.84375 6.671875 C 7.5625 7.234375 7.15625 8.003906 6.625 8.984375 C 5.03125 11.898438 3.332031 14.898438 1.53125 17.984375 C 1.414062 18.128906 1.257812 18.320312 1.0625 18.5625 C 0.875 18.800781 0.660156 18.921875 0.421875 18.921875 C 0.191406 18.921875 0.0351562 18.847656 -0.046875 18.703125 C -0.140625 18.554688 -0.207031 18.378906 -0.25 18.171875 C -0.300781 17.972656 -0.328125 17.765625 -0.328125 17.546875 L -0.328125 16.984375 C -0.328125 16.617188 0.0664062 15.847656 0.859375 14.671875 C 1.648438 13.492188 2.34375 12.472656 2.9375 11.609375 C 3.53125 10.753906 4.101562 9.882812 4.65625 9 C 6 6.914062 6.875 5.265625 7.28125 4.046875 L 0.9375 4.046875 C 0.570312 4.046875 0.390625 3.734375 0.390625 3.109375 L 0.390625 2.796875 C 0.390625 2.410156 0.582031 2.125 0.96875 1.9375 C 1.5625 1.675781 2.648438 1.546875 4.234375 1.546875 L 9.8125 1.640625 C 12.539062 1.640625 14.941406 1.519531 17.015625 1.28125 C 17.773438 1.71875 17.75 2.257812 16.9375 2.90625 C 16.75 3.050781 16.585938 3.171875 16.453125 3.265625 Z M 16.125 12.640625 L 16.15625 10.828125 C 16.15625 6.660156 15.675781 4.257812 14.71875 3.625 C 14.457031 3.445312 14.128906 3.359375 13.734375 3.359375 C 13.335938 3.359375 12.988281 3.375 12.6875 3.40625 C 11.9375 3.5 11.394531 3.710938 11.0625 4.046875 C 11.039062 4.097656 11.03125 4.191406 11.03125 4.328125 C 11.03125 4.472656 11.066406 4.734375 11.140625 5.109375 C 11.210938 5.492188 11.34375 6.003906 11.53125 6.640625 C 11.726562 7.273438 11.960938 7.953125 12.234375 8.671875 C 12.515625 9.390625 12.804688 10.082031 13.109375 10.75 C 14.046875 12.832031 14.8125 13.875 15.40625 13.875 C 15.738281 13.875 15.976562 13.460938 16.125 12.640625 Z M 16.125 12.640625 "/>
      </g>
    </g>
    <g style="fill:#000000;fill-opacity:1;">
      <g transform="translate(196.625692, 217.091758)">
        <path style="stroke:none" d="M 17.015625 2.90625 C 17.492188 4.269531 17.734375 6.082031 17.734375 8.34375 C 17.734375 12.457031 16.71875 15.273438 14.6875 16.796875 C 13.90625 17.378906 12.914062 17.671875 11.71875 17.671875 C 11.550781 17.691406 11.382812 17.703125 11.21875 17.703125 C 9.375 17.703125 7.5 16.625 5.59375 14.46875 C 3.800781 12.488281 2.363281 10.050781 1.28125 7.15625 C 0.539062 5.226562 0.171875 3.640625 0.171875 2.390625 C 0.171875 1.867188 0.242188 1.421875 0.390625 1.046875 L 17.671875 1.046875 L 17.671875 1.4375 C 17.671875 1.863281 17.601562 2.207031 17.46875 2.46875 C 17.332031 2.726562 17.179688 2.875 17.015625 2.90625 Z M 11.5 15.828125 C 13.144531 15.660156 14.363281 14.742188 15.15625 13.078125 C 15.75 11.835938 16.046875 10.285156 16.046875 8.421875 L 16.015625 7.921875 C 15.984375 6.171875 15.707031 4.65625 15.1875 3.375 L 1.96875 3.375 C 1.96875 4.675781 2.4375 6.296875 3.375 8.234375 C 5.039062 11.585938 6.972656 13.894531 9.171875 15.15625 C 9.941406 15.601562 10.71875 15.828125 11.5 15.828125 Z M 11.5 15.828125 "/>
      </g>
    </g>
  </g>
</svg>
