<svg width="95" height="537" viewBox="0 0 95 537" fill="none" xmlns="http://www.w3.org/2000/svg">
<rect width="36" height="537" fill="#444444"/>
<path d="M43.875 335.953C43.375 333.641 43.125 331.453 43.125 329.391C43.125 327.328 43.2031 325.5 43.3594 323.906C43.5156 322.281 43.8125 320.656 44.25 319.031C45.2188 315.594 46.5312 313.469 48.1875 312.656C48.5312 312.438 48.9375 312.328 49.4062 312.328C50.7812 312.328 52.2656 313.531 53.8594 315.938C54.9219 317.531 56 319.812 57.0938 322.781C57.5 315.5 58.5625 310.562 60.2812 307.969C61.1875 306.531 62.25 305.812 63.4688 305.812C65.1562 305.812 66.9062 307 68.7188 309.375C70.6562 311.969 72.2656 315.281 73.5469 319.312C74.7344 323.031 75.3281 326.484 75.3281 329.672C75.3281 332.109 74.9688 334.203 74.25 335.953C72.25 336.016 70.1875 336.094 68.0625 336.188C63.3438 336.438 59.375 336.562 56.1562 336.562C52.9062 336.562 49.5312 336.453 46.0312 336.234C46.0312 336.578 46 336.891 45.9375 337.172C45.8438 337.453 45.5312 337.594 45 337.594C44.25 337.594 43.875 337.047 43.875 335.953ZM71.9062 331.734C71.625 326.703 71.0312 322.578 70.125 319.359C69.1875 316.141 68.1875 313.828 67.125 312.422C66.0312 310.984 64.9844 310.266 63.9844 310.266C62.6719 310.266 61.625 311.203 60.8438 313.078C60.0312 315.109 59.625 317.812 59.625 321.188C59.625 324.531 60.0781 328.422 60.9844 332.859L71.9062 331.734ZM46.1719 327.375V328.547C46.1719 331.109 46.4375 332.547 46.9688 332.859L56.3906 333.328C56.3906 330.516 55.7188 327.094 54.375 323.062C53.4688 320.438 52.4688 318.516 51.375 317.297C50.8125 316.672 50.2344 316.359 49.6406 316.359C49.0469 316.359 48.5625 316.594 48.1875 317.062C47.7812 317.5 47.4531 318.078 47.2031 318.797C46.9531 319.484 46.7656 320.266 46.6406 321.141C46.4844 321.984 46.375 322.812 46.3125 323.625C46.2188 324.875 46.1719 326.125 46.1719 327.375ZM67.125 302.719C65.4375 303.469 63.4531 303.844 61.1719 303.844C58.8906 303.844 56.875 303.484 55.125 302.766C53.3438 302.016 51.8125 301 50.5312 299.719C47.875 297 46.5469 293.594 46.5469 289.5C46.5469 285.219 47.5312 281.688 49.5 278.906C51.75 275.781 54.9688 274.219 59.1562 274.219C64.3438 274.219 68.1719 275.422 70.6406 277.828C73.1094 280.203 74.3438 283.922 74.3438 288.984C74.3438 296.016 71.9375 300.594 67.125 302.719ZM60.2344 300C67.6094 300 71.2969 296.281 71.2969 288.844C71.2969 285.188 70.2031 282.219 68.0156 279.938C65.8594 277.656 63.0312 276.516 59.5312 276.516C56.25 276.516 53.75 277.875 52.0312 280.594C50.5312 282.906 49.7812 285.828 49.7812 289.359C49.7812 292.172 50.7969 294.656 52.8281 296.812C54.8594 298.938 57.3281 300 60.2344 300ZM57.8438 246.984V245.672C57.8438 245.141 57.8906 244.641 57.9844 244.172C58.0781 243.672 58.4219 243.422 59.0156 243.422C60.2656 243.203 60.875 243.938 60.8438 245.625C60.8125 246.094 60.7812 246.531 60.75 246.938C60.7188 247.312 60.7188 247.625 60.75 247.875C60.75 248.125 60.8281 248.234 60.9844 248.203C61.8906 247.891 62.9062 247.562 64.0312 247.219C65.1562 246.844 66.2812 246.438 67.4062 246C70.1875 244.875 72.1875 243.812 73.4062 242.812C74.0625 243.344 74.6094 243.969 75.0469 244.688C75.4844 245.375 75.7031 245.75 75.7031 245.812C75.7031 245.844 75.6875 245.875 75.6562 245.906L61.7344 252.516L64.875 265.312L66.8438 265.781C70.4375 266.688 72.9375 267.703 74.3438 268.828C74.6562 269.016 74.6875 269.406 74.4375 270C74.0625 271 73.75 271.5 73.5 271.5C73.4375 271.5 72.5312 271.172 70.7812 270.516C69.0312 269.859 67.2656 269.203 65.4844 268.547C63.6719 267.859 61.7812 267.156 59.8125 266.438C57.8438 265.688 55.9688 264.984 54.1875 264.328C52.4062 263.672 50.8125 263.078 49.4062 262.547C47.9688 262.016 46.9375 261.641 46.3125 261.422C45.6562 261.203 45.0938 261.062 44.625 261C44.125 260.906 43.7031 260.781 43.3594 260.625C42.6406 260.312 42.2812 259.531 42.2812 258.281C43.0312 256.938 44.0156 255.906 45.2344 255.188C46.4219 254.438 47.7031 253.812 49.0781 253.312C50.4531 252.781 51.8438 252.266 53.25 251.766C54.6562 251.266 55.9375 250.594 57.0938 249.75C57.5312 249.469 57.7656 249.047 57.7969 248.484C57.8281 247.922 57.8438 247.422 57.8438 246.984ZM47.7188 258.703C49.625 258.953 51.5781 259.516 53.5781 260.391C55.5781 261.266 57.1406 261.969 58.2656 262.5C59.3594 263.031 60.375 263.484 61.3125 263.859C61.3125 261.734 60.6875 259.125 59.4375 256.031C59.0938 255.25 58.7812 254.5 58.5 253.781C52.2188 255.25 48.625 256.891 47.7188 258.703ZM47.1562 236.438C45.5 234.719 44.6719 231.609 44.6719 227.109C44.6719 224.297 44.9531 221.938 45.5156 220.031C46.0781 218.125 46.6719 216.703 47.2969 215.766C47.9219 214.797 48.6094 214.312 49.3594 214.312C51.0781 214.312 52.7812 216.312 54.4688 220.312C54.75 220.906 55.3281 222.469 56.2031 225C57.0469 227.5 57.625 229.188 57.9375 230.062C58.6562 231.969 59.2188 233.234 59.625 233.859C59.7812 233.859 59.9219 233.797 60.0469 233.672C60.1406 233.547 60.3281 233.25 60.6094 232.781C60.8594 232.312 61.2344 231.609 61.7344 230.672C62.2031 229.734 62.8906 228.438 63.7969 226.781C66.4844 221.844 69.3594 216.766 72.4219 211.547C72.6094 211.297 72.875 210.969 73.2188 210.562C73.5312 210.156 73.8906 209.953 74.2969 209.953C74.6719 209.953 74.9375 210.078 75.0938 210.328C75.25 210.578 75.3594 210.875 75.4219 211.219C75.5156 211.562 75.5625 211.922 75.5625 212.297V213.234C75.5625 213.859 74.8906 215.172 73.5469 217.172C72.2031 219.141 71.0312 220.859 70.0312 222.328C69.0312 223.766 68.0625 225.234 67.125 226.734C64.8438 230.266 63.3594 233.062 62.6719 235.125H73.4062C74.0312 235.125 74.3438 235.656 74.3438 236.719V237.234C74.3438 237.891 74.0156 238.375 73.3594 238.688C72.3594 239.125 70.5156 239.344 67.8281 239.344L58.4062 239.203C53.7812 239.203 49.7188 239.406 46.2188 239.812C44.9375 239.062 44.9844 238.141 46.3594 237.047C46.6719 236.797 46.9375 236.594 47.1562 236.438ZM47.7188 220.594L47.6719 223.641C47.6719 230.703 48.4844 234.766 50.1094 235.828C50.5469 236.141 51.1094 236.297 51.7969 236.297C52.4531 236.297 53.0312 236.266 53.5312 236.203C54.8125 236.047 55.7344 235.688 56.2969 235.125C56.3281 235.031 56.3438 234.875 56.3438 234.656C56.3438 234.406 56.2812 233.969 56.1562 233.344C56.0312 232.688 55.8125 231.828 55.5 230.766C55.1562 229.672 54.75 228.516 54.2812 227.297C53.8125 226.078 53.3281 224.906 52.8281 223.781C51.2344 220.25 49.9375 218.484 48.9375 218.484C48.375 218.484 47.9688 219.188 47.7188 220.594ZM46.2188 202.828C45.4062 200.516 45 197.453 45 193.641C45 186.672 46.7188 181.906 50.1562 179.344C51.4688 178.344 53.1406 177.844 55.1719 177.844C55.4531 177.812 55.7344 177.797 56.0156 177.797C59.1406 177.797 62.3125 179.625 65.5312 183.281C68.5625 186.625 71 190.75 72.8438 195.656C74.0938 198.906 74.7188 201.594 74.7188 203.719C74.7188 204.594 74.5938 205.344 74.3438 205.969H45.0938V205.312C45.0938 204.594 45.2188 204.016 45.4688 203.578C45.6875 203.141 45.9375 202.891 46.2188 202.828ZM55.5469 180.984C52.7656 181.266 50.7031 182.812 49.3594 185.625C48.3594 187.719 47.8594 190.344 47.8594 193.5L47.9062 194.344C47.9688 197.312 48.4375 199.875 49.3125 202.031H71.6719C71.6719 199.844 70.875 197.109 69.2812 193.828C66.4688 188.141 63.2031 184.234 59.4844 182.109C58.1719 181.359 56.8594 180.984 55.5469 180.984Z" fill="black"/>
</svg>
