<?xml version="1.0"?>
<svg xmlns="http://www.w3.org/2000/svg" xmlns:xlink="http://www.w3.org/1999/xlink" width="500" zoomAndPan="magnify" viewBox="0 0 375 374.999991" height="500" preserveAspectRatio="xMidYMid meet" version="1.2" style="background-color:transparent;">
  <defs>
    <clipPath id="4d15592e82">
      <path d="M 117 114 L 294 114 L 294 290 L 117 290 Z M 117 114 "/>
    </clipPath>
    <clipPath id="42eac27ba7">
      <path d="M 49.109375 315.117188 L 43.578125 66.179688 L 326.257812 59.898438 L 331.789062 308.835938 Z M 49.109375 315.117188 "/>
    </clipPath>
    <clipPath id="17c4ca1456">
      <path d="M 64.019531 985.894531 L 43.570312 65.871094 L 653.167969 52.320312 L 673.617188 972.34375 Z M 64.019531 985.894531 "/>
    </clipPath>
    <clipPath id="d7e9a9db3a">
      <path d="M 115 111 L 296 111 L 296 292 L 115 292 Z M 115 111 "/>
    </clipPath>
    <clipPath id="0fd92ef565">
      <path d="M 49.109375 315.117188 L 43.578125 66.179688 L 326.257812 59.898438 L 331.789062 308.835938 Z M 49.109375 315.117188 "/>
    </clipPath>
    <clipPath id="8c2f06d93c">
      <path d="M 64.019531 985.894531 L 43.570312 65.871094 L 653.167969 52.320312 L 673.617188 972.34375 Z M 64.019531 985.894531 "/>
    </clipPath>
    <clipPath id="a9e7e98b5c">
      <path d="M 105 64 L 307 64 L 307 111 L 105 111 Z M 105 64 "/>
    </clipPath>
    <clipPath id="af2343db32">
      <path d="M 49.109375 315.117188 L 43.578125 66.179688 L 326.257812 59.898438 L 331.789062 308.835938 Z M 49.109375 315.117188 "/>
    </clipPath>
    <clipPath id="4423ee8933">
      <path d="M 64.019531 985.894531 L 43.570312 65.871094 L 653.167969 52.320312 L 673.617188 972.34375 Z M 64.019531 985.894531 "/>
    </clipPath>
    <clipPath id="a323ab3d5b">
      <path d="M 155 72 L 161 72 L 161 117 L 155 117 Z M 155 72 "/>
    </clipPath>
    <clipPath id="9101c4f670">
      <path d="M 49.109375 315.117188 L 43.578125 66.179688 L 326.257812 59.898438 L 331.789062 308.835938 Z M 49.109375 315.117188 "/>
    </clipPath>
    <clipPath id="efb6d4314d">
      <path d="M 64.019531 985.894531 L 43.570312 65.871094 L 653.167969 52.320312 L 673.617188 972.34375 Z M 64.019531 985.894531 "/>
    </clipPath>
    <clipPath id="2d0f2dbc01">
      <path d="M 252 73 L 258 73 L 258 118 L 252 118 Z M 252 73 "/>
    </clipPath>
    <clipPath id="e1a1d45e2a">
      <path d="M 49.109375 315.117188 L 43.578125 66.179688 L 326.257812 59.898438 L 331.789062 308.835938 Z M 49.109375 315.117188 "/>
    </clipPath>
    <clipPath id="0a07101078">
      <path d="M 64.019531 985.894531 L 43.570312 65.871094 L 653.167969 52.320312 L 673.617188 972.34375 Z M 64.019531 985.894531 "/>
    </clipPath>
  </defs>
  <g id="6a518a8454">
    <rect x="0" width="375" y="0" height="374.999991" style="fill:none;fill-opacity:1;stroke:none;" fill="none"/>
    <rect x="0" width="375" y="0" height="374.999991" style="fill:none;fill-opacity:1;stroke:none;" fill="none"/>
    <g clip-rule="nonzero" clip-path="url(#4d15592e82)">
      <g clip-rule="nonzero" clip-path="url(#42eac27ba7)">
        <g clip-rule="nonzero" clip-path="url(#17c4ca1456)">
          <path style=" stroke:none;fill-rule:nonzero;fill:#231f20;fill-opacity:1;" d="M 291.886719 289.269531 L 118.527344 288.65625 C 118.207031 288.65625 117.949219 288.394531 117.949219 288.074219 L 118.5625 114.71875 C 118.5625 114.398438 118.824219 114.140625 119.144531 114.140625 L 292.503906 114.753906 C 292.824219 114.753906 293.082031 115.015625 293.082031 115.335938 L 292.46875 288.691406 C 292.464844 289.011719 292.207031 289.273438 291.886719 289.269531 Z M 291.886719 289.269531 "/>
        </g>
      </g>
    </g>
    <g clip-rule="nonzero" clip-path="url(#d7e9a9db3a)">
      <g clip-rule="nonzero" clip-path="url(#0fd92ef565)">
        <g clip-rule="nonzero" clip-path="url(#8c2f06d93c)">
          <path style=" stroke:none;fill-rule:nonzero;fill:#231f20;fill-opacity:1;" d="M 295.523438 115.996094 C 295.523438 116.03125 295.523438 116.066406 295.523438 116.097656 L 294.914062 287.945312 C 294.914062 288.957031 294.515625 289.902344 293.800781 290.613281 C 293.082031 291.328125 292.132812 291.71875 291.121094 291.714844 L 119.273438 291.105469 C 117.1875 291.097656 115.46875 289.382812 115.507812 287.3125 L 116.113281 115.464844 C 116.117188 114.453125 116.515625 113.503906 117.230469 112.796875 C 117.949219 112.082031 118.898438 111.695312 119.90625 111.695312 L 291.757812 112.304688 C 292.765625 112.308594 293.714844 112.703125 294.425781 113.421875 C 295.113281 114.113281 295.5 115.027344 295.523438 115.996094 Z M 290.027344 286.820312 L 290.628906 117.191406 L 121 116.59375 L 120.402344 286.21875 Z M 291.132812 286.820312 L 291.140625 286.820312 C 291.136719 286.820312 291.136719 286.820312 291.132812 286.820312 Z M 291.132812 286.820312 "/>
        </g>
      </g>
    </g>
    <g clip-rule="nonzero" clip-path="url(#a9e7e98b5c)">
      <g clip-rule="nonzero" clip-path="url(#af2343db32)">
        <g clip-rule="nonzero" clip-path="url(#4423ee8933)">
          <path style=" stroke:none;fill-rule:nonzero;fill:#231f20;fill-opacity:1;" d="M 306.285156 107.699219 C 306.300781 108.347656 306.058594 109.003906 305.558594 109.496094 C 304.597656 110.445312 303.046875 110.433594 302.097656 109.472656 C 276.566406 83.578125 242.480469 69.179688 206.117188 68.925781 C 169.753906 68.671875 135.46875 82.59375 109.574219 108.128906 C 108.613281 109.078125 107.066406 109.066406 106.117188 108.101562 C 105.167969 107.144531 105.179688 105.597656 106.140625 104.644531 C 132.964844 78.195312 168.480469 63.773438 206.148438 64.035156 C 243.820312 64.300781 279.132812 79.214844 305.582031 106.039062 C 306.039062 106.5 306.273438 107.097656 306.285156 107.699219 Z M 306.285156 107.699219 "/>
        </g>
      </g>
    </g>
    <g clip-rule="nonzero" clip-path="url(#a323ab3d5b)">
      <g clip-rule="nonzero" clip-path="url(#9101c4f670)">
        <g clip-rule="nonzero" clip-path="url(#efb6d4314d)">
          <path style=" stroke:none;fill-rule:nonzero;fill:#231f20;fill-opacity:1;" d="M 160.125 74.777344 C 160.125 74.796875 160.125 74.820312 160.125 74.839844 L 159.988281 114.015625 C 159.980469 115.363281 158.882812 116.457031 157.53125 116.453125 C 156.183594 116.445312 155.074219 115.355469 155.097656 113.996094 L 155.234375 74.824219 C 155.238281 73.472656 156.335938 72.382812 157.6875 72.386719 C 159.019531 72.390625 160.09375 73.457031 160.125 74.777344 Z M 160.125 74.777344 "/>
        </g>
      </g>
    </g>
    <g clip-rule="nonzero" clip-path="url(#2d0f2dbc01)">
      <g clip-rule="nonzero" clip-path="url(#e1a1d45e2a)">
        <g clip-rule="nonzero" clip-path="url(#0a07101078)">
          <path style=" stroke:none;fill-rule:nonzero;fill:#231f20;fill-opacity:1;" d="M 257.175781 75.851562 C 257.175781 75.875 257.175781 75.894531 257.175781 75.917969 L 257.039062 115.089844 C 257.03125 116.441406 255.933594 117.53125 254.582031 117.527344 C 253.234375 117.523438 252.113281 116.449219 252.144531 115.074219 L 252.285156 75.898438 C 252.289062 74.550781 253.386719 73.457031 254.738281 73.460938 C 256.066406 73.46875 257.144531 74.53125 257.175781 75.851562 Z M 257.175781 75.851562 "/>
        </g>
      </g>
    </g>
    <path style=" stroke:none;fill-rule:evenodd;fill:#d9d9d9;fill-opacity:1;" d="M 165.550781 140.449219 L 205.550781 180.449219 L 245.550781 140.449219 C 259.550781 126.449219 280.550781 147.449219 266.550781 161.449219 L 226.550781 201.449219 L 266.550781 241.449219 C 280.550781 255.449219 259.550781 276.449219 245.550781 262.449219 L 205.550781 222.449219 L 165.550781 262.449219 C 151.550781 276.449219 130.550781 255.449219 144.550781 241.449219 L 184.550781 201.449219 L 144.550781 161.449219 C 130.550781 147.449219 151.550781 126.449219 165.550781 140.449219 Z M 165.550781 140.449219 "/>
  </g>
</svg>
