<svg width="142" height="116" viewBox="0 0 142 116" fill="none" xmlns="http://www.w3.org/2000/svg">
<path d="M44.8802 114.733C13.8883 108.86 22.1879 81.9882 30.2117 69.2866C63.6106 87.1856 98.0378 77.6766 111.077 70.6847C129.506 103.196 105.632 114.733 92.6469 114.733C82.1156 114.733 73.3396 107.042 70.08 102.148C60.7523 114.453 49.3936 115.665 44.8802 114.733Z" fill="#FFD1D3" stroke="#FF5962" stroke-width="0.8"/>
<path d="M70.9574 76.5248C38.1602 76.2452 26.1997 64.2894 24.3191 58.3465L23.5669 14.998C27.7794 3.25195 38.8622 0.781574 43.8771 1.01464H103.303C115.64 3.81131 118.724 11.5022 118.724 14.998V58.3465C118.348 64.6389 103.755 76.8045 70.9574 76.5248Z" fill="#FFD1D3" stroke="#FF5962" stroke-width="0.8"/>
<path d="M120.618 42.6641C120.919 52.4524 125.257 58.3953 127.389 60.1432C128.517 61.4251 131.752 63.2196 135.663 60.1432C139.575 57.0669 140.803 46.7425 140.929 41.9649C141.531 29.9392 138.171 18.7758 136.415 14.6973C135.287 12.9494 128.517 12.5998 127.389 14.6973C125.006 19.9411 120.318 32.8757 120.618 42.6641Z" fill="#FFD1D3" stroke="#FF5962" stroke-width="0.8"/>
<path d="M1.01382 44.0627C1.31471 53.851 5.65257 59.7939 7.78389 61.5419C8.91228 62.8237 12.147 64.6182 16.0586 61.5419C19.9702 58.4655 21.1988 48.1411 21.3242 43.3635C21.926 31.3378 18.566 20.1744 16.8108 16.096C15.6824 14.348 8.91238 13.9985 7.78389 16.096C5.40183 21.3397 0.712923 34.2743 1.01382 44.0627Z" fill="#FFD1D3" stroke="#FF5962" stroke-width="0.8"/>
</svg>
