<?xml version="1.0"?>
<svg xmlns="http://www.w3.org/2000/svg" xmlns:xlink="http://www.w3.org/1999/xlink" width="500" zoomAndPan="magnify" viewBox="0 0 375 374.999991" height="500" preserveAspectRatio="xMidYMid meet" version="1.2" style="background-color:transparent;">
  <defs>
    <clipPath id="3258205a76">
      <path d="M 118 85 L 294 85 L 294 261 L 118 261 Z M 118 85 "/>
    </clipPath>
    <clipPath id="793b528860">
      <path d="M 42.773438 307.886719 L 49.957031 58.988281 L 332.589844 67.148438 L 325.40625 316.042969 Z M 42.773438 307.886719 "/>
    </clipPath>
    <clipPath id="455eb78112">
      <path d="M 69.316406 -611.695312 L 42.765625 308.171875 L 652.261719 325.765625 L 678.8125 -594.101562 Z M 69.316406 -611.695312 "/>
    </clipPath>
    <clipPath id="1f1c5ecdab">
      <path d="M 115 83 L 296 83 L 296 264 L 115 264 Z M 115 83 "/>
    </clipPath>
    <clipPath id="498e898208">
      <path d="M 42.773438 307.886719 L 49.957031 58.988281 L 332.589844 67.148438 L 325.40625 316.042969 Z M 42.773438 307.886719 "/>
    </clipPath>
    <clipPath id="9eb8535ea9">
      <path d="M 69.316406 -611.695312 L 42.765625 308.171875 L 652.261719 325.765625 L 678.8125 -594.101562 Z M 69.316406 -611.695312 "/>
    </clipPath>
    <clipPath id="fa633df3d8">
      <path d="M 104 265 L 306 265 L 306 312 L 104 312 Z M 104 265 "/>
    </clipPath>
    <clipPath id="4c82228513">
      <path d="M 42.773438 307.886719 L 49.957031 58.988281 L 332.589844 67.148438 L 325.40625 316.042969 Z M 42.773438 307.886719 "/>
    </clipPath>
    <clipPath id="62f800987c">
      <path d="M 69.316406 -611.695312 L 42.765625 308.171875 L 652.261719 325.765625 L 678.8125 -594.101562 Z M 69.316406 -611.695312 "/>
    </clipPath>
    <clipPath id="3e6a3c4e44">
      <path d="M 154 258 L 160 258 L 160 303 L 154 303 Z M 154 258 "/>
    </clipPath>
    <clipPath id="97d8b86545">
      <path d="M 42.773438 307.886719 L 49.957031 58.988281 L 332.589844 67.148438 L 325.40625 316.042969 Z M 42.773438 307.886719 "/>
    </clipPath>
    <clipPath id="85ea85a5bb">
      <path d="M 69.316406 -611.695312 L 42.765625 308.171875 L 652.261719 325.765625 L 678.8125 -594.101562 Z M 69.316406 -611.695312 "/>
    </clipPath>
    <clipPath id="71b81762cf">
      <path d="M 251 257 L 257 257 L 257 302 L 251 302 Z M 251 257 "/>
    </clipPath>
    <clipPath id="eeebdfd0c0">
      <path d="M 42.773438 307.886719 L 49.957031 58.988281 L 332.589844 67.148438 L 325.40625 316.042969 Z M 42.773438 307.886719 "/>
    </clipPath>
    <clipPath id="689a2c6507">
      <path d="M 69.316406 -611.695312 L 42.765625 308.171875 L 652.261719 325.765625 L 678.8125 -594.101562 Z M 69.316406 -611.695312 "/>
    </clipPath>
  </defs>
  <g id="c47b5a74cf">
    <rect x="0" width="375" y="0" height="374.999991" style="fill:none;fill-opacity:1;stroke:none;" fill="none"/>
    <rect x="0" width="375" y="0" height="374.999991" style="fill:none;fill-opacity:1;stroke:none;" fill="none"/>
    <g clip-rule="nonzero" clip-path="url(#3258205a76)">
      <g clip-rule="nonzero" clip-path="url(#793b528860)">
        <g clip-rule="nonzero" clip-path="url(#455eb78112)">
          <path style=" stroke:none;fill-rule:nonzero;fill:#231f20;fill-opacity:1;" d="M 292.558594 86.421875 L 119.199219 85.886719 C 118.878906 85.886719 118.621094 86.144531 118.617188 86.464844 L 118.082031 259.824219 C 118.082031 260.144531 118.339844 260.402344 118.660156 260.402344 L 292.015625 260.941406 C 292.335938 260.941406 292.597656 260.683594 292.597656 260.363281 L 293.136719 87.003906 C 293.136719 86.683594 292.878906 86.425781 292.558594 86.421875 Z M 292.558594 86.421875 "/>
        </g>
      </g>
    </g>
    <g clip-rule="nonzero" clip-path="url(#1f1c5ecdab)">
      <g clip-rule="nonzero" clip-path="url(#498e898208)">
        <g clip-rule="nonzero" clip-path="url(#9eb8535ea9)">
          <path style=" stroke:none;fill-rule:nonzero;fill:#231f20;fill-opacity:1;" d="M 295.046875 259.71875 C 295.046875 259.683594 295.046875 259.648438 295.046875 259.617188 L 295.578125 87.765625 C 295.582031 86.757812 295.191406 85.808594 294.480469 85.089844 C 293.769531 84.375 292.820312 83.976562 291.8125 83.976562 L 119.960938 83.441406 C 117.878906 83.4375 116.148438 85.140625 116.171875 87.210938 L 115.636719 259.0625 C 115.632812 260.070312 116.023438 261.019531 116.738281 261.738281 C 117.449219 262.453125 118.398438 262.847656 119.40625 262.851562 L 291.253906 263.386719 C 292.265625 263.386719 293.214844 262.996094 293.933594 262.285156 C 294.625 261.597656 295.015625 260.6875 295.046875 259.71875 Z M 290.683594 88.863281 L 290.160156 258.492188 L 120.53125 257.964844 L 121.058594 88.335938 Z M 291.789062 88.867188 L 291.796875 88.867188 C 291.792969 88.867188 291.792969 88.867188 291.789062 88.867188 Z M 291.789062 88.867188 "/>
        </g>
      </g>
    </g>
    <g clip-rule="nonzero" clip-path="url(#fa633df3d8)">
      <g clip-rule="nonzero" clip-path="url(#4c82228513)">
        <g clip-rule="nonzero" clip-path="url(#62f800987c)">
          <path style=" stroke:none;fill-rule:nonzero;fill:#231f20;fill-opacity:1;" d="M 305.753906 268.085938 C 305.773438 267.4375 305.535156 266.78125 305.039062 266.285156 C 304.082031 265.332031 302.535156 265.332031 301.578125 266.285156 C 275.875 292.007812 241.691406 306.179688 205.328125 306.191406 C 168.964844 306.207031 134.773438 292.058594 109.050781 266.351562 C 108.09375 265.398438 106.546875 265.398438 105.59375 266.355469 C 104.636719 267.308594 104.636719 268.855469 105.59375 269.8125 C 132.238281 296.441406 167.660156 311.097656 205.332031 311.085938 C 243 311.070312 278.410156 296.390625 305.039062 269.742188 C 305.5 269.285156 305.738281 268.6875 305.753906 268.085938 Z M 305.753906 268.085938 "/>
        </g>
      </g>
    </g>
    <g clip-rule="nonzero" clip-path="url(#3e6a3c4e44)">
      <g clip-rule="nonzero" clip-path="url(#97d8b86545)">
        <g clip-rule="nonzero" clip-path="url(#85ea85a5bb)">
          <path style=" stroke:none;fill-rule:nonzero;fill:#231f20;fill-opacity:1;" d="M 159.378906 300.039062 C 159.378906 300.015625 159.378906 299.996094 159.378906 299.976562 L 159.5 260.800781 C 159.503906 259.449219 158.414062 258.351562 157.0625 258.347656 C 155.710938 258.34375 154.597656 259.425781 154.609375 260.785156 L 154.488281 299.960938 C 154.484375 301.308594 155.574219 302.40625 156.925781 302.414062 C 158.253906 302.417969 159.339844 301.359375 159.378906 300.039062 Z M 159.378906 300.039062 "/>
        </g>
      </g>
    </g>
    <g clip-rule="nonzero" clip-path="url(#71b81762cf)">
      <g clip-rule="nonzero" clip-path="url(#eeebdfd0c0)">
        <g clip-rule="nonzero" clip-path="url(#689a2c6507)">
          <path style=" stroke:none;fill-rule:nonzero;fill:#231f20;fill-opacity:1;" d="M 256.433594 299.605469 C 256.433594 299.585938 256.433594 299.5625 256.433594 299.542969 L 256.554688 260.367188 C 256.558594 259.015625 255.46875 257.917969 254.117188 257.914062 C 252.765625 257.910156 251.640625 258.976562 251.664062 260.351562 L 251.542969 299.527344 C 251.539062 300.878906 252.628906 301.976562 253.980469 301.980469 C 255.308594 301.984375 256.394531 300.925781 256.433594 299.605469 Z M 256.433594 299.605469 "/>
        </g>
      </g>
    </g>
    <path style=" stroke:none;fill-rule:evenodd;fill:#d9d9d9;fill-opacity:1;" d="M 246.585938 116.441406 L 206.585938 156.441406 L 166.585938 116.441406 C 152.585938 102.441406 131.585938 123.441406 145.585938 137.441406 L 185.585938 177.441406 L 145.585938 217.441406 C 131.585938 231.441406 152.585938 252.441406 166.585938 238.441406 L 206.585938 198.441406 L 246.585938 238.441406 C 260.585938 252.441406 281.585938 231.441406 267.585938 217.441406 L 227.585938 177.441406 L 267.585938 137.441406 C 281.585938 123.441406 260.585938 102.441406 246.585938 116.441406 Z M 246.585938 116.441406 "/>
  </g>
</svg>
