<svg width="142" height="116" viewBox="0 0 142 116" fill="none" xmlns="http://www.w3.org/2000/svg">
<path d="M97.1198 1.26744C128.112 7.14045 119.812 34.0118 111.788 46.7133C78.3894 28.8144 43.9622 38.3234 30.9235 45.3153C12.4939 12.804 36.3676 1.26744 49.3531 1.26744C59.8844 1.26744 68.6604 8.95819 71.92 13.8525C81.2477 1.54711 92.6064 0.33522 97.1198 1.26744Z" fill="#D0E6D4" stroke="#13914E" stroke-width="0.8"/>
<path d="M71.0426 39.4751C103.84 39.7548 115.8 51.7106 117.681 57.6535L118.433 101.002C114.221 112.748 103.138 115.218 98.1229 114.985H38.6967C26.3601 112.189 23.276 104.498 23.276 101.002V57.6535C23.6521 51.3611 38.2454 39.1955 71.0426 39.4751Z" fill="#D0E6D4" stroke="#13914E" stroke-width="0.8"/>
<path d="M21.3816 73.3359C21.0807 63.5476 16.7428 57.6046 14.6115 55.8567C13.4831 54.5749 10.2484 52.7804 6.33682 55.8567C2.42523 58.9331 1.19658 69.2574 1.07121 74.0351C0.469427 86.0608 3.82939 97.2241 5.58459 101.303C6.71294 103.051 13.483 103.4 14.6115 101.303C16.9936 96.0589 21.6825 83.1243 21.3816 73.3359Z" fill="#D0E6D4" stroke="#13914E" stroke-width="0.8"/>
<path d="M140.986 71.9373C140.685 62.149 136.347 56.206 134.216 54.4581C133.088 53.1763 129.853 51.3818 125.941 54.4581C122.03 57.5345 120.801 67.8588 120.676 72.6365C120.074 84.6622 123.434 95.8255 125.189 99.904C126.318 101.652 133.088 102.002 134.216 99.904C136.598 94.6603 141.287 81.7257 140.986 71.9373Z" fill="#D0E6D4" stroke="#13914E" stroke-width="0.8"/>
<path d="M68.3125 90.25C68.3125 89.6562 68.3281 88.7344 68.3594 87.4844C68.4219 86.2031 68.4688 84.7656 68.5 83.1719C68.5625 81.5781 68.625 79.9062 68.6875 78.1562C68.75 76.4062 68.7969 74.7344 68.8281 73.1406C68.8906 71.5469 68.9375 70.125 68.9688 68.875C69 67.625 69.0312 66.6875 69.0625 66.0625C69 65.375 69.125 64.9375 69.4375 64.75C69.75 64.5625 70.0938 64.4688 70.4688 64.4688C70.875 64.4688 71.2188 64.5 71.5 64.5625C71.8125 64.625 72.0312 64.875 72.1562 65.3125L71.4062 89.4062C71.3438 89.9688 70.9062 90.375 70.0938 90.625C69.2812 90.8438 68.6875 90.7188 68.3125 90.25Z" fill="black"/>
</svg>
