<svg width="142" height="116" viewBox="0 0 142 116" fill="none" xmlns="http://www.w3.org/2000/svg">
<path d="M44.8802 114.733C13.8883 108.86 22.1879 81.9882 30.2117 69.2867C63.6106 87.1856 98.0378 77.6766 111.077 70.6847C129.506 103.196 105.632 114.733 92.6469 114.733C82.1156 114.733 73.3396 107.042 70.08 102.148C60.7523 114.453 49.3936 115.665 44.8802 114.733Z" fill="#D0E6D4" stroke="#13914E" stroke-width="0.8"/>
<path d="M70.9574 76.5249C38.1602 76.2452 26.1997 64.2894 24.3191 58.3465L23.5669 14.998C27.7794 3.25198 38.8622 0.781609 43.8771 1.01468H103.303C115.64 3.81135 118.724 11.5022 118.724 14.998V58.3465C118.348 64.6389 103.755 76.8045 70.9574 76.5249Z" fill="#D0E6D4" stroke="#13914E" stroke-width="0.8"/>
<path d="M120.618 42.6641C120.919 52.4524 125.257 58.3953 127.389 60.1433C128.517 61.4251 131.752 63.2196 135.663 60.1433C139.575 57.0669 140.803 46.7425 140.929 41.9649C141.531 29.9392 138.171 18.7758 136.415 14.6974C135.287 12.9494 128.517 12.5999 127.389 14.6974C125.006 19.9411 120.318 32.8757 120.618 42.6641Z" fill="#D0E6D4" stroke="#13914E" stroke-width="0.8"/>
<path d="M1.01382 44.0627C1.31471 53.851 5.65257 59.794 7.78389 61.5419C8.91228 62.8237 12.147 64.6182 16.0586 61.5419C19.9702 58.4655 21.1988 48.1412 21.3242 43.3635C21.926 31.3378 18.566 20.1745 16.8108 16.096C15.6824 14.3481 8.91238 13.9985 7.78389 16.096C5.40183 21.3397 0.712923 34.2743 1.01382 44.0627Z" fill="#D0E6D4" stroke="#13914E" stroke-width="0.8"/>
<path d="M74.6093 56.6819C73.953 56.6819 73.578 56.4944 73.4843 56.1194L73.6718 46.8381H70.2499L64.6249 46.7913H61.2499C60.8436 46.7913 60.4374 46.7288 60.0311 46.6038C59.6249 46.4788 59.4218 46.1506 59.4218 45.6194C61.078 43.4944 62.6874 41.3538 64.2499 39.1975C69.2186 32.4163 72.6249 29.0256 74.4686 29.0256C76.5311 29.0256 77.5624 32.6506 77.5624 39.9006C77.5624 40.8381 77.5468 41.8381 77.5155 42.9006L87.8749 42.76C87.8749 43.5725 87.7655 44.1663 87.5468 44.5413C87.3593 44.9163 87.1874 45.1194 87.0311 45.1506L78.3593 45.8538C77.9218 47.0725 77.6561 48.4475 77.5624 49.9788C77.4061 52.4788 77.328 54.5725 77.328 56.26L74.6093 56.6819ZM73.6718 33.385C72.9843 34.3225 72.1405 35.2444 71.1405 36.1506C70.1718 37.0256 69.2186 37.9163 68.2811 38.8225C67.3436 39.6975 66.4999 40.5881 65.7499 41.4944C64.9999 42.4006 64.5311 43.3381 64.3436 44.3069C64.5624 44.3069 65.0468 44.3069 65.7968 44.3069C66.5468 44.3069 67.6249 44.2288 69.0311 44.0725C70.4374 43.885 71.9843 43.6975 73.6718 43.51V33.385Z" fill="black"/>
</svg>
