<?xml version="1.0"?>
<svg xmlns="http://www.w3.org/2000/svg" xmlns:xlink="http://www.w3.org/1999/xlink" width="500" zoomAndPan="magnify" viewBox="0 0 375 374.999991" height="500" preserveAspectRatio="xMidYMid meet" version="1.2" style="background-color:transparent;">
  <defs>
    <clipPath id="25b364277f">
      <path d="M 106 85 L 282 85 L 282 261 L 106 261 Z M 106 85 "/>
    </clipPath>
    <clipPath id="b2fbb45892">
      <path d="M 349.75 59.074219 L 356.738281 307.976562 L 74.097656 315.914062 L 67.109375 67.011719 Z M 349.75 59.074219 "/>
    </clipPath>
    <clipPath id="3a6cfc1b5c">
      <path d="M 330.917969 -611.601562 L 356.746094 308.285156 L -252.761719 325.398438 L -278.589844 -594.488281 Z M 330.917969 -611.601562 "/>
    </clipPath>
    <clipPath id="a7d1b4fe48">
      <path d="M 104 83 L 284 83 L 284 264 L 104 264 Z M 104 83 "/>
    </clipPath>
    <clipPath id="257217b9f8">
      <path d="M 349.75 59.074219 L 356.738281 307.976562 L 74.097656 315.914062 L 67.109375 67.011719 Z M 349.75 59.074219 "/>
    </clipPath>
    <clipPath id="381861ea3a">
      <path d="M 330.917969 -611.601562 L 356.746094 308.285156 L -252.761719 325.398438 L -278.589844 -594.488281 Z M 330.917969 -611.601562 "/>
    </clipPath>
    <clipPath id="e73fc130ce">
      <path d="M 93 265 L 295 265 L 295 312 L 93 312 Z M 93 265 "/>
    </clipPath>
    <clipPath id="bff704fec3">
      <path d="M 349.75 59.074219 L 356.738281 307.976562 L 74.097656 315.914062 L 67.109375 67.011719 Z M 349.75 59.074219 "/>
    </clipPath>
    <clipPath id="cedb8e8480">
      <path d="M 330.917969 -611.601562 L 356.746094 308.285156 L -252.761719 325.398438 L -278.589844 -594.488281 Z M 330.917969 -611.601562 "/>
    </clipPath>
    <clipPath id="644115788f">
      <path d="M 240 258 L 246 258 L 246 303 L 240 303 Z M 240 258 "/>
    </clipPath>
    <clipPath id="9e20e4374a">
      <path d="M 349.75 59.074219 L 356.738281 307.976562 L 74.097656 315.914062 L 67.109375 67.011719 Z M 349.75 59.074219 "/>
    </clipPath>
    <clipPath id="88942efb90">
      <path d="M 330.917969 -611.601562 L 356.746094 308.285156 L -252.761719 325.398438 L -278.589844 -594.488281 Z M 330.917969 -611.601562 "/>
    </clipPath>
    <clipPath id="cb8b30592a">
      <path d="M 142 257 L 148 257 L 148 302 L 142 302 Z M 142 257 "/>
    </clipPath>
    <clipPath id="6ab767c3cb">
      <path d="M 349.75 59.074219 L 356.738281 307.976562 L 74.097656 315.914062 L 67.109375 67.011719 Z M 349.75 59.074219 "/>
    </clipPath>
    <clipPath id="e28eda3861">
      <path d="M 330.917969 -611.601562 L 356.746094 308.285156 L -252.761719 325.398438 L -278.589844 -594.488281 Z M 330.917969 -611.601562 "/>
    </clipPath>
  </defs>
  <g id="77b3aa5de6">
    <rect x="0" width="375" y="0" height="374.999991" style="fill:none;fill-opacity:1;stroke:none;" fill="none"/>
    <rect x="0" width="375" y="0" height="374.999991" style="fill:none;fill-opacity:1;stroke:none;" fill="none"/>
    <g clip-rule="nonzero" clip-path="url(#25b364277f)">
      <g clip-rule="nonzero" clip-path="url(#b2fbb45892)">
        <g clip-rule="nonzero" clip-path="url(#3a6cfc1b5c)">
          <path style=" stroke:none;fill-rule:nonzero;fill:#d9d9d9;fill-opacity:1;" d="M 107.128906 86.339844 L 280.488281 85.941406 C 280.808594 85.9375 281.066406 86.199219 281.070312 86.519531 L 281.46875 259.878906 C 281.46875 260.199219 281.210938 260.457031 280.890625 260.457031 L 107.53125 260.859375 C 107.210938 260.859375 106.953125 260.601562 106.949219 260.28125 L 106.550781 86.921875 C 106.550781 86.601562 106.808594 86.339844 107.128906 86.339844 Z M 107.128906 86.339844 "/>
        </g>
      </g>
    </g>
    <g clip-rule="nonzero" clip-path="url(#a7d1b4fe48)">
      <g clip-rule="nonzero" clip-path="url(#257217b9f8)">
        <g clip-rule="nonzero" clip-path="url(#381861ea3a)">
          <path style=" stroke:none;fill-rule:nonzero;fill:#000000;fill-opacity:1;" d="M 104.503906 259.632812 C 104.503906 259.597656 104.503906 259.566406 104.503906 259.53125 L 104.105469 87.683594 C 104.105469 86.675781 104.496094 85.722656 105.207031 85.007812 C 105.917969 84.292969 106.867188 83.894531 107.878906 83.894531 L 279.726562 83.496094 C 281.8125 83.492188 283.539062 85.195312 283.515625 87.269531 L 283.914062 259.117188 C 283.914062 260.125 283.523438 261.078125 282.8125 261.792969 C 282.097656 262.507812 281.152344 262.902344 280.140625 262.90625 L 108.292969 263.304688 C 107.28125 263.304688 106.332031 262.914062 105.617188 262.203125 C 104.925781 261.511719 104.53125 260.605469 104.503906 259.632812 Z M 109 88.78125 L 109.390625 258.410156 L 279.019531 258.015625 L 278.628906 88.390625 Z M 107.894531 88.785156 L 107.886719 88.785156 C 107.890625 88.785156 107.890625 88.785156 107.894531 88.785156 Z M 107.894531 88.785156 "/>
        </g>
      </g>
    </g>
    <g clip-rule="nonzero" clip-path="url(#e73fc130ce)">
      <g clip-rule="nonzero" clip-path="url(#bff704fec3)">
        <g clip-rule="nonzero" clip-path="url(#cedb8e8480)">
          <path style=" stroke:none;fill-rule:nonzero;fill:#000000;fill-opacity:1;" d="M 93.789062 267.992188 C 93.773438 267.34375 94.011719 266.6875 94.507812 266.191406 C 95.464844 265.238281 97.011719 265.242188 97.964844 266.195312 C 123.652344 291.9375 157.820312 306.136719 194.183594 306.179688 C 230.550781 306.222656 264.753906 292.097656 290.496094 266.414062 C 291.449219 265.460938 293 265.460938 293.953125 266.417969 C 294.910156 267.375 294.90625 268.921875 293.949219 269.875 C 267.28125 296.484375 231.851562 311.113281 194.179688 311.070312 C 156.507812 311.027344 121.109375 296.320312 94.503906 269.652344 C 94.046875 269.191406 93.808594 268.59375 93.789062 267.992188 Z M 93.789062 267.992188 "/>
        </g>
      </g>
    </g>
    <g clip-rule="nonzero" clip-path="url(#644115788f)">
      <g clip-rule="nonzero" clip-path="url(#9e20e4374a)">
        <g clip-rule="nonzero" clip-path="url(#88942efb90)">
          <path style=" stroke:none;fill-rule:nonzero;fill:#000000;fill-opacity:1;" d="M 240.140625 300.0625 C 240.140625 300.039062 240.140625 300.019531 240.140625 299.996094 L 240.050781 260.824219 C 240.046875 259.472656 241.136719 258.375 242.488281 258.371094 C 243.839844 258.367188 244.953125 259.453125 244.941406 260.8125 L 245.03125 299.984375 C 245.035156 301.335938 243.941406 302.433594 242.589844 302.4375 C 241.261719 302.441406 240.179688 301.382812 240.140625 300.0625 Z M 240.140625 300.0625 "/>
        </g>
      </g>
    </g>
    <g clip-rule="nonzero" clip-path="url(#cb8b30592a)">
      <g clip-rule="nonzero" clip-path="url(#6ab767c3cb)">
        <g clip-rule="nonzero" clip-path="url(#e28eda3861)">
          <path style=" stroke:none;fill-rule:nonzero;fill:#000000;fill-opacity:1;" d="M 143.085938 299.550781 C 143.085938 299.53125 143.085938 299.507812 143.085938 299.488281 L 142.996094 260.3125 C 142.992188 258.960938 144.082031 257.867188 145.433594 257.863281 C 146.785156 257.859375 147.914062 258.925781 147.886719 260.300781 L 147.976562 299.476562 C 147.980469 300.828125 146.886719 301.925781 145.535156 301.929688 C 144.207031 301.929688 143.125 300.871094 143.085938 299.550781 Z M 143.085938 299.550781 "/>
        </g>
      </g>
    </g>
    <g style="fill:#231f20;fill-opacity:1;">
      <g transform="translate(149.91124, 217.228059)">
        <path style="stroke:none" d="M 74.09375 -77.9375 C 74.09375 -71.789062 69.175781 -64.566406 59.34375 -56.265625 C 56.882812 -54.316406 54.78125 -52.578125 53.03125 -51.046875 C 65.644531 -50.835938 73.179688 -47.863281 75.640625 -42.125 C 76.148438 -40.789062 76.40625 -39.40625 76.40625 -37.96875 C 76.40625 -36.53125 76.019531 -34.609375 75.25 -32.203125 C 74.476562 -29.796875 72.863281 -26.953125 70.40625 -23.671875 C 67.945312 -20.390625 64.976562 -17.210938 61.5 -14.140625 C 54.21875 -7.785156 46.53125 -3.378906 38.4375 -0.921875 C 35.664062 -0.0976562 33.429688 0.3125 31.734375 0.3125 C 30.046875 0.3125 28.691406 0.285156 27.671875 0.234375 C 26.648438 0.179688 25.570312 -0.148438 24.4375 -0.765625 C 23.3125 -1.378906 22.75 -2.40625 22.75 -3.84375 C 30.4375 -5.789062 37.203125 -8.554688 43.046875 -12.140625 C 48.890625 -15.734375 53.5 -19.476562 56.875 -23.375 C 60.875 -28.1875 62.875 -32.179688 62.875 -35.359375 C 62.875 -38.535156 61.898438 -40.6875 59.953125 -41.8125 C 58.003906 -42.9375 55.492188 -43.5 52.421875 -43.5 C 44.628906 -43.5 34.019531 -40.320312 20.59375 -33.96875 L 15.21875 -40.890625 C 46.269531 -55.242188 61.796875 -65.546875 61.796875 -71.796875 C 61.796875 -74.460938 58.875 -76.203125 53.03125 -77.015625 C 46.988281 -77.015625 40.097656 -75.988281 32.359375 -73.9375 C 24.617188 -71.894531 18.644531 -70.410156 14.4375 -69.484375 C 10.238281 -68.566406 5.9375 -68.109375 1.53125 -68.109375 C 1.53125 -72.921875 2.710938 -75.738281 5.078125 -76.5625 C 9.378906 -77.582031 13.9375 -78.707031 18.75 -79.9375 C 34.539062 -83.9375 47.175781 -85.9375 56.65625 -85.9375 C 66.132812 -85.9375 71.945312 -83.269531 74.09375 -77.9375 Z M 74.09375 -77.9375 "/>
      </g>
    </g>
  </g>
</svg>
