<?xml version="1.0"?>
<svg xmlns="http://www.w3.org/2000/svg" xmlns:xlink="http://www.w3.org/1999/xlink" width="500" zoomAndPan="magnify" viewBox="0 0 375 374.999991" height="500" preserveAspectRatio="xMidYMid meet" version="1.2" style="background-color:transparent;">
  <defs>
    <clipPath id="44664372ed">
      <path d="M 95 85 L 273 85 L 273 263 L 95 263 Z M 95 85 "/>
    </clipPath>
    <clipPath id="ca9e9bb0e6">
      <path d="M 338.367188 57.449219 L 348.3125 306.25 L 65.785156 317.542969 L 55.84375 68.738281 Z M 338.367188 57.449219 "/>
    </clipPath>
    <clipPath id="c9bfba4838">
      <path d="M 311.578125 -612.957031 L 348.324219 306.558594 L -260.941406 330.910156 L -297.6875 -588.609375 Z M 311.578125 -612.957031 "/>
    </clipPath>
    <clipPath id="0c57be30a5">
      <path d="M 93 82 L 275 82 L 275 265 L 93 265 Z M 93 82 "/>
    </clipPath>
    <clipPath id="4fb4df5b58">
      <path d="M 338.367188 57.449219 L 348.3125 306.25 L 65.785156 317.542969 L 55.84375 68.738281 Z M 338.367188 57.449219 "/>
    </clipPath>
    <clipPath id="e23437b83b">
      <path d="M 311.578125 -612.957031 L 348.324219 306.558594 L -260.941406 330.910156 L -297.6875 -588.609375 Z M 311.578125 -612.957031 "/>
    </clipPath>
    <clipPath id="70a2aedb53">
      <path d="M 84 264 L 286 264 L 286 312 L 84 312 Z M 84 264 "/>
    </clipPath>
    <clipPath id="c6a7a39daa">
      <path d="M 338.367188 57.449219 L 348.3125 306.25 L 65.785156 317.542969 L 55.84375 68.738281 Z M 338.367188 57.449219 "/>
    </clipPath>
    <clipPath id="f07d2271f7">
      <path d="M 311.578125 -612.957031 L 348.324219 306.558594 L -260.941406 330.910156 L -297.6875 -588.609375 Z M 311.578125 -612.957031 "/>
    </clipPath>
    <clipPath id="097248a069">
      <path d="M 231 258 L 237 258 L 237 303 L 231 303 Z M 231 258 "/>
    </clipPath>
    <clipPath id="5300a4386f">
      <path d="M 338.367188 57.449219 L 348.3125 306.25 L 65.785156 317.542969 L 55.84375 68.738281 Z M 338.367188 57.449219 "/>
    </clipPath>
    <clipPath id="845eb2e991">
      <path d="M 311.578125 -612.957031 L 348.324219 306.558594 L -260.941406 330.910156 L -297.6875 -588.609375 Z M 311.578125 -612.957031 "/>
    </clipPath>
    <clipPath id="c2058e8d32">
      <path d="M 134 258 L 140 258 L 140 303 L 134 303 Z M 134 258 "/>
    </clipPath>
    <clipPath id="39cb20e81c">
      <path d="M 338.367188 57.449219 L 348.3125 306.25 L 65.785156 317.542969 L 55.84375 68.738281 Z M 338.367188 57.449219 "/>
    </clipPath>
    <clipPath id="cd42e046f2">
      <path d="M 311.578125 -612.957031 L 348.324219 306.558594 L -260.941406 330.910156 L -297.6875 -588.609375 Z M 311.578125 -612.957031 "/>
    </clipPath>
  </defs>
  <g id="089b832ef4">
    <rect x="0" width="375" y="0" height="374.999991" style="fill:none;fill-opacity:1;stroke:none;" fill="none"/>
    <rect x="0" width="375" y="0" height="374.999991" style="fill:none;fill-opacity:1;stroke:none;" fill="none"/>
    <g clip-rule="nonzero" clip-path="url(#44664372ed)">
      <g clip-rule="nonzero" clip-path="url(#ca9e9bb0e6)">
        <g clip-rule="nonzero" clip-path="url(#c9bfba4838)">
          <path style=" stroke:none;fill-rule:nonzero;fill:#d9d9d9;fill-opacity:1;" d="M 96.089844 87.59375 L 269.429688 85.136719 C 269.75 85.132812 270.011719 85.386719 270.019531 85.707031 L 272.476562 259.046875 C 272.480469 259.367188 272.226562 259.632812 271.90625 259.636719 L 98.5625 262.097656 C 98.242188 262.101562 97.980469 261.84375 97.976562 261.523438 L 95.515625 88.183594 C 95.511719 87.863281 95.769531 87.597656 96.089844 87.59375 Z M 96.089844 87.59375 "/>
        </g>
      </g>
    </g>
    <g clip-rule="nonzero" clip-path="url(#0c57be30a5)">
      <g clip-rule="nonzero" clip-path="url(#4fb4df5b58)">
        <g clip-rule="nonzero" clip-path="url(#e23437b83b)">
          <path style=" stroke:none;fill-rule:nonzero;fill:#000000;fill-opacity:1;" d="M 95.523438 260.90625 C 95.523438 260.871094 95.519531 260.835938 95.519531 260.804688 L 93.082031 88.972656 C 93.066406 87.964844 93.445312 87.007812 94.152344 86.285156 C 94.855469 85.558594 95.796875 85.152344 96.808594 85.136719 L 268.640625 82.699219 C 270.726562 82.671875 272.472656 84.355469 272.472656 86.425781 L 274.910156 258.261719 C 274.925781 259.269531 274.546875 260.222656 273.84375 260.949219 C 273.136719 261.671875 272.195312 262.078125 271.183594 262.09375 L 99.351562 264.53125 C 98.34375 264.542969 97.390625 264.164062 96.664062 263.460938 C 95.964844 262.78125 95.5625 261.875 95.523438 260.90625 Z M 97.988281 90.011719 L 100.394531 259.625 L 270.003906 257.21875 L 267.597656 87.605469 Z M 96.882812 90.027344 L 96.875 90.03125 C 96.878906 90.027344 96.878906 90.027344 96.882812 90.027344 Z M 96.882812 90.027344 "/>
        </g>
      </g>
    </g>
    <g clip-rule="nonzero" clip-path="url(#70a2aedb53)">
      <g clip-rule="nonzero" clip-path="url(#c6a7a39daa)">
        <g clip-rule="nonzero" clip-path="url(#f07d2271f7)">
          <path style=" stroke:none;fill-rule:nonzero;fill:#000000;fill-opacity:1;" d="M 84.90625 269.390625 C 84.882812 268.742188 85.113281 268.085938 85.605469 267.582031 C 86.546875 266.617188 88.097656 266.601562 89.0625 267.546875 C 115.050781 292.980469 149.386719 306.773438 185.75 306.382812 C 222.109375 305.992188 256.144531 291.464844 281.578125 265.476562 C 282.523438 264.511719 284.074219 264.496094 285.039062 265.441406 C 286.003906 266.382812 286.019531 267.933594 285.074219 268.898438 C 258.726562 295.820312 223.46875 310.871094 185.800781 311.273438 C 148.132812 311.679688 112.5625 297.390625 85.640625 271.039062 C 85.175781 270.585938 84.929688 269.992188 84.90625 269.390625 Z M 84.90625 269.390625 "/>
        </g>
      </g>
    </g>
    <g clip-rule="nonzero" clip-path="url(#097248a069)">
      <g clip-rule="nonzero" clip-path="url(#5300a4386f)">
        <g clip-rule="nonzero" clip-path="url(#845eb2e991)">
          <path style=" stroke:none;fill-rule:nonzero;fill:#000000;fill-opacity:1;" d="M 231.628906 299.71875 C 231.628906 299.699219 231.628906 299.675781 231.628906 299.65625 L 231.070312 260.484375 C 231.050781 259.136719 232.132812 258.027344 233.480469 258.003906 C 234.832031 257.988281 235.960938 259.058594 235.960938 260.417969 L 236.519531 299.585938 C 236.535156 300.9375 235.457031 302.046875 234.105469 302.066406 C 232.777344 302.085938 231.679688 301.039062 231.628906 299.71875 Z M 231.628906 299.71875 "/>
        </g>
      </g>
    </g>
    <g clip-rule="nonzero" clip-path="url(#c2058e8d32)">
      <g clip-rule="nonzero" clip-path="url(#39cb20e81c)">
        <g clip-rule="nonzero" clip-path="url(#cd42e046f2)">
          <path style=" stroke:none;fill-rule:nonzero;fill:#000000;fill-opacity:1;" d="M 134.574219 300.363281 C 134.574219 300.34375 134.574219 300.320312 134.574219 300.300781 L 134.015625 261.128906 C 134 259.777344 135.078125 258.667969 136.429688 258.648438 C 137.777344 258.628906 138.917969 259.683594 138.90625 261.058594 L 139.464844 300.230469 C 139.480469 301.582031 138.402344 302.691406 137.050781 302.710938 C 135.722656 302.726562 134.628906 301.683594 134.574219 300.363281 Z M 134.574219 300.363281 "/>
        </g>
      </g>
    </g>
    <g style="fill:#231f20;fill-opacity:1;">
      <g transform="translate(128.998004, 216.407477)">
        <path style="stroke:none" d="M 61.03125 2.3125 C 58.875 2.3125 57.644531 1.695312 57.34375 0.46875 L 57.953125 -29.984375 L 46.734375 -29.984375 L 28.28125 -30.125 L 17.21875 -30.125 C 15.882812 -30.125 14.550781 -30.328125 13.21875 -30.734375 C 11.882812 -31.148438 11.21875 -32.226562 11.21875 -33.96875 C 16.65625 -40.9375 21.9375 -47.957031 27.0625 -55.03125 C 43.351562 -77.269531 54.523438 -88.390625 60.578125 -88.390625 C 67.335938 -88.390625 70.71875 -76.503906 70.71875 -52.734375 C 70.71875 -49.660156 70.664062 -46.378906 70.5625 -42.890625 L 104.53125 -43.359375 C 104.53125 -40.691406 104.195312 -38.742188 103.53125 -37.515625 C 102.875 -36.285156 102.285156 -35.617188 101.765625 -35.515625 L 73.328125 -33.203125 C 71.890625 -29.203125 71.019531 -24.691406 70.71875 -19.671875 C 70.207031 -11.472656 69.953125 -4.609375 69.953125 0.921875 Z M 57.953125 -74.09375 C 55.703125 -71.019531 52.960938 -68.019531 49.734375 -65.09375 C 46.503906 -62.175781 43.351562 -59.257812 40.28125 -56.34375 C 37.207031 -53.425781 34.4375 -50.476562 31.96875 -47.5 C 29.507812 -44.53125 27.972656 -41.457031 27.359375 -38.28125 C 28.078125 -38.28125 29.664062 -38.28125 32.125 -38.28125 C 34.582031 -38.28125 38.117188 -38.5625 42.734375 -39.125 C 47.347656 -39.6875 52.421875 -40.273438 57.953125 -40.890625 Z M 57.953125 -74.09375 "/>
      </g>
    </g>
  </g>
</svg>
