<svg width="116" height="142" viewBox="0 0 116 142" fill="none" xmlns="http://www.w3.org/2000/svg">
<path d="M114.732 97.1198C108.859 128.112 81.9881 119.812 69.2865 111.788C87.1855 78.3894 77.6765 43.9622 70.6846 30.9235C103.196 12.4939 114.732 36.3676 114.732 49.3531C114.732 59.8844 107.042 68.6604 102.147 71.92C114.453 81.2477 115.665 92.6064 114.732 97.1198Z" fill="#D0E6D4" stroke="#13914E" stroke-width="0.8"/>
<path d="M76.5247 71.0426C76.245 103.84 64.2892 115.8 58.3463 117.681L14.9978 118.433C3.2518 114.221 0.781425 103.138 1.0145 98.1229V38.6967C3.81116 26.3601 11.502 23.276 14.9978 23.276H58.3463C64.6387 23.6521 76.8043 38.2454 76.5247 71.0426Z" fill="#D0E6D4" stroke="#13914E" stroke-width="0.8"/>
<path d="M42.664 21.3816C52.4523 21.0807 58.3953 16.7428 60.1432 14.6115C61.425 13.4831 63.2195 10.2484 60.1432 6.33682C57.0669 2.42523 46.7425 1.19658 41.9648 1.07121C29.9391 0.469427 18.7758 3.82939 14.6973 5.58459C12.9494 6.71294 12.5998 13.483 14.6973 14.6115C19.9411 16.9936 32.8757 21.6825 42.664 21.3816Z" fill="#D0E6D4" stroke="#13914E" stroke-width="0.8"/>
<path d="M44.0626 140.986C53.8509 140.685 59.7938 136.347 61.5418 134.216C62.8236 133.088 64.6181 129.853 61.5418 125.941C58.4654 122.03 48.141 120.801 43.3634 120.676C31.3377 120.074 20.1743 123.434 16.0959 125.189C14.3479 126.318 13.9984 133.088 16.0959 134.216C21.3396 136.598 34.2742 141.287 44.0626 140.986Z" fill="#D0E6D4" stroke="#13914E" stroke-width="0.8"/>
<path d="M41.5682 53.2655L44.8026 53.5936C46.6151 53.8124 48.8026 54.0624 51.3651 54.3436L56.0526 54.9061C56.4589 55.0311 56.6932 55.2186 56.7557 55.4686C56.8182 55.7499 56.8495 56.1249 56.8495 56.5936C56.8495 57.0624 56.7245 57.4061 56.4745 57.6249C56.2557 57.8436 55.9745 57.953 55.6307 57.953C55.287 57.9843 54.8964 57.953 54.4589 57.8593C54.0214 57.7655 53.5995 57.7186 53.1932 57.7186C53.1932 59.9061 53.4276 62.078 53.8964 64.2343C54.3651 66.4218 54.8807 68.5936 55.4432 70.7499C56.0057 72.9061 56.5214 75.0624 56.9901 77.2186C57.4589 79.3749 57.6932 81.5468 57.6932 83.7343C57.6932 84.0468 57.6464 84.328 57.5526 84.578C57.4901 84.8593 57.2401 85.078 56.8026 85.2343C56.4276 85.1093 56.1151 84.8905 55.8651 84.578C55.6151 84.2655 55.3651 83.7343 55.1151 82.9843C54.8651 82.2655 54.5995 81.2811 54.3182 80.0311C54.0682 78.7811 53.7245 77.1718 53.287 75.203C52.8807 73.2343 52.3807 70.828 51.787 67.9843C51.1932 65.1718 50.4589 61.8436 49.5839 57.9999H43.5839C43.6776 58.9999 43.8339 60.1405 44.0526 61.4218C44.4589 63.7968 44.662 65.6093 44.662 66.8593C44.662 68.1093 44.6464 69.1405 44.6151 69.953C44.5839 70.7968 44.3651 71.7499 43.9589 72.8124C43.0839 75.0936 41.287 76.3749 38.5682 76.6561C36.5995 76.6561 34.9276 76.1093 33.5526 75.0155C32.2089 73.953 31.1307 72.6093 30.3182 70.9843C28.787 67.9218 28.0214 64.3593 28.0214 60.2968C28.0214 59.4218 28.1151 58.7968 28.3026 58.4218C28.4901 58.0468 28.8964 57.8593 29.5214 57.8593C30.1464 57.8593 30.7401 58.1093 31.3026 58.6093C31.8651 59.1093 32.1464 59.6718 32.1464 60.2968H31.3026C31.3026 63.9843 31.5526 66.6405 32.0526 68.2655C32.5839 69.8905 33.3026 71.1718 34.2089 72.1093C35.1464 73.078 36.3026 73.5624 37.6776 73.5624C39.0526 73.5624 40.0526 73.2811 40.6776 72.7186C41.3026 72.1561 41.7714 71.4686 42.0839 70.6561C42.5839 69.4061 42.8339 67.9843 42.8339 66.3905C42.8339 64.7968 42.7089 63.5936 42.4589 62.7811C42.2089 61.9686 41.9276 61.1718 41.6151 60.3905C40.8339 58.2968 40.4432 56.703 40.4432 55.6093V54.8593C40.4432 53.7968 40.8182 53.2655 41.5682 53.2655Z" fill="black"/>
</svg>
