<?xml version="1.0"?>
<svg xmlns="http://www.w3.org/2000/svg" xmlns:xlink="http://www.w3.org/1999/xlink" width="500" zoomAndPan="magnify" viewBox="0 0 375 374.999991" height="500" preserveAspectRatio="xMidYMid meet" version="1.2" style="background-color:transparent;">
  <defs>
    <clipPath id="6d2ed397ed">
      <path d="M 117 114 L 294 114 L 294 290 L 117 290 Z M 117 114 "/>
    </clipPath>
    <clipPath id="38b8735e69">
      <path d="M 49.109375 315.117188 L 43.578125 66.179688 L 326.257812 59.898438 L 331.789062 308.835938 Z M 49.109375 315.117188 "/>
    </clipPath>
    <clipPath id="47c2ca9d2e">
      <path d="M 64.019531 985.894531 L 43.570312 65.871094 L 653.167969 52.320312 L 673.617188 972.34375 Z M 64.019531 985.894531 "/>
    </clipPath>
    <clipPath id="5594b52139">
      <path d="M 115 111 L 296 111 L 296 292 L 115 292 Z M 115 111 "/>
    </clipPath>
    <clipPath id="8bf024d018">
      <path d="M 49.109375 315.117188 L 43.578125 66.179688 L 326.257812 59.898438 L 331.789062 308.835938 Z M 49.109375 315.117188 "/>
    </clipPath>
    <clipPath id="d7d65424a2">
      <path d="M 64.019531 985.894531 L 43.570312 65.871094 L 653.167969 52.320312 L 673.617188 972.34375 Z M 64.019531 985.894531 "/>
    </clipPath>
    <clipPath id="f040c7e70c">
      <path d="M 105 64 L 307 64 L 307 111 L 105 111 Z M 105 64 "/>
    </clipPath>
    <clipPath id="de1f950aa0">
      <path d="M 49.109375 315.117188 L 43.578125 66.179688 L 326.257812 59.898438 L 331.789062 308.835938 Z M 49.109375 315.117188 "/>
    </clipPath>
    <clipPath id="dfc59cc841">
      <path d="M 64.019531 985.894531 L 43.570312 65.871094 L 653.167969 52.320312 L 673.617188 972.34375 Z M 64.019531 985.894531 "/>
    </clipPath>
    <clipPath id="94df38e865">
      <path d="M 155 72 L 161 72 L 161 117 L 155 117 Z M 155 72 "/>
    </clipPath>
    <clipPath id="849427ef0a">
      <path d="M 49.109375 315.117188 L 43.578125 66.179688 L 326.257812 59.898438 L 331.789062 308.835938 Z M 49.109375 315.117188 "/>
    </clipPath>
    <clipPath id="945ea3bf9a">
      <path d="M 64.019531 985.894531 L 43.570312 65.871094 L 653.167969 52.320312 L 673.617188 972.34375 Z M 64.019531 985.894531 "/>
    </clipPath>
    <clipPath id="555136150c">
      <path d="M 252 73 L 258 73 L 258 118 L 252 118 Z M 252 73 "/>
    </clipPath>
    <clipPath id="c3d15d04bb">
      <path d="M 49.109375 315.117188 L 43.578125 66.179688 L 326.257812 59.898438 L 331.789062 308.835938 Z M 49.109375 315.117188 "/>
    </clipPath>
    <clipPath id="4b93621e2f">
      <path d="M 64.019531 985.894531 L 43.570312 65.871094 L 653.167969 52.320312 L 673.617188 972.34375 Z M 64.019531 985.894531 "/>
    </clipPath>
  </defs>
  <g id="35bc3fce8c">
    <rect x="0" width="375" y="0" height="374.999991" style="fill:none;fill-opacity:1;stroke:none;" fill="none"/>
    <rect x="0" width="375" y="0" height="374.999991" style="fill:none;fill-opacity:1;stroke:none;" fill="none"/>
    <g clip-rule="nonzero" clip-path="url(#6d2ed397ed)">
      <g clip-rule="nonzero" clip-path="url(#38b8735e69)">
        <g clip-rule="nonzero" clip-path="url(#47c2ca9d2e)">
          <path style=" stroke:none;fill-rule:nonzero;fill:#d9d9d9;fill-opacity:1;" d="M 291.886719 289.269531 L 118.527344 288.65625 C 118.207031 288.65625 117.949219 288.394531 117.949219 288.074219 L 118.5625 114.71875 C 118.5625 114.398438 118.824219 114.140625 119.144531 114.140625 L 292.503906 114.753906 C 292.824219 114.753906 293.082031 115.015625 293.082031 115.335938 L 292.46875 288.691406 C 292.464844 289.011719 292.207031 289.273438 291.886719 289.269531 Z M 291.886719 289.269531 "/>
        </g>
      </g>
    </g>
    <g clip-rule="nonzero" clip-path="url(#5594b52139)">
      <g clip-rule="nonzero" clip-path="url(#8bf024d018)">
        <g clip-rule="nonzero" clip-path="url(#d7d65424a2)">
          <path style=" stroke:none;fill-rule:nonzero;fill:#231f20;fill-opacity:1;" d="M 295.523438 115.996094 C 295.523438 116.03125 295.523438 116.066406 295.523438 116.097656 L 294.914062 287.945312 C 294.914062 288.957031 294.515625 289.902344 293.800781 290.613281 C 293.082031 291.328125 292.132812 291.71875 291.121094 291.714844 L 119.273438 291.105469 C 117.1875 291.097656 115.46875 289.382812 115.507812 287.3125 L 116.113281 115.464844 C 116.117188 114.453125 116.515625 113.503906 117.230469 112.796875 C 117.949219 112.082031 118.898438 111.695312 119.90625 111.695312 L 291.757812 112.304688 C 292.765625 112.308594 293.714844 112.703125 294.425781 113.421875 C 295.113281 114.113281 295.5 115.027344 295.523438 115.996094 Z M 290.027344 286.820312 L 290.628906 117.191406 L 121 116.59375 L 120.402344 286.21875 Z M 291.132812 286.820312 L 291.140625 286.820312 C 291.136719 286.820312 291.136719 286.820312 291.132812 286.820312 Z M 291.132812 286.820312 "/>
        </g>
      </g>
    </g>
    <g clip-rule="nonzero" clip-path="url(#f040c7e70c)">
      <g clip-rule="nonzero" clip-path="url(#de1f950aa0)">
        <g clip-rule="nonzero" clip-path="url(#dfc59cc841)">
          <path style=" stroke:none;fill-rule:nonzero;fill:#231f20;fill-opacity:1;" d="M 306.285156 107.699219 C 306.300781 108.347656 306.058594 109.003906 305.558594 109.496094 C 304.597656 110.445312 303.046875 110.433594 302.097656 109.472656 C 276.566406 83.578125 242.480469 69.179688 206.117188 68.925781 C 169.753906 68.671875 135.46875 82.59375 109.574219 108.128906 C 108.613281 109.078125 107.066406 109.066406 106.117188 108.101562 C 105.167969 107.144531 105.179688 105.597656 106.140625 104.644531 C 132.964844 78.195312 168.480469 63.773438 206.148438 64.035156 C 243.820312 64.300781 279.132812 79.214844 305.582031 106.039062 C 306.039062 106.5 306.273438 107.097656 306.285156 107.699219 Z M 306.285156 107.699219 "/>
        </g>
      </g>
    </g>
    <g clip-rule="nonzero" clip-path="url(#94df38e865)">
      <g clip-rule="nonzero" clip-path="url(#849427ef0a)">
        <g clip-rule="nonzero" clip-path="url(#945ea3bf9a)">
          <path style=" stroke:none;fill-rule:nonzero;fill:#231f20;fill-opacity:1;" d="M 160.125 74.777344 C 160.125 74.796875 160.125 74.820312 160.125 74.839844 L 159.988281 114.015625 C 159.980469 115.363281 158.882812 116.457031 157.53125 116.453125 C 156.183594 116.445312 155.074219 115.355469 155.097656 113.996094 L 155.234375 74.824219 C 155.238281 73.472656 156.335938 72.382812 157.6875 72.386719 C 159.019531 72.390625 160.09375 73.457031 160.125 74.777344 Z M 160.125 74.777344 "/>
        </g>
      </g>
    </g>
    <g clip-rule="nonzero" clip-path="url(#555136150c)">
      <g clip-rule="nonzero" clip-path="url(#c3d15d04bb)">
        <g clip-rule="nonzero" clip-path="url(#4b93621e2f)">
          <path style=" stroke:none;fill-rule:nonzero;fill:#231f20;fill-opacity:1;" d="M 257.175781 75.851562 C 257.175781 75.875 257.175781 75.894531 257.175781 75.917969 L 257.039062 115.089844 C 257.03125 116.441406 255.933594 117.53125 254.582031 117.527344 C 253.234375 117.523438 252.113281 116.449219 252.144531 115.074219 L 252.285156 75.898438 C 252.289062 74.550781 253.386719 73.457031 254.738281 73.460938 C 256.066406 73.46875 257.144531 74.53125 257.175781 75.851562 Z M 257.175781 75.851562 "/>
        </g>
      </g>
    </g>
    <g style="fill:#231f20;fill-opacity:1;">
      <g transform="translate(153.615069, 245.127406)">
        <path style="stroke:none" d="M 61.03125 2.3125 C 58.875 2.3125 57.644531 1.695312 57.34375 0.46875 L 57.953125 -29.984375 L 46.734375 -29.984375 L 28.28125 -30.125 L 17.21875 -30.125 C 15.882812 -30.125 14.550781 -30.328125 13.21875 -30.734375 C 11.882812 -31.148438 11.21875 -32.226562 11.21875 -33.96875 C 16.65625 -40.9375 21.9375 -47.957031 27.0625 -55.03125 C 43.351562 -77.269531 54.523438 -88.390625 60.578125 -88.390625 C 67.335938 -88.390625 70.71875 -76.503906 70.71875 -52.734375 C 70.71875 -49.660156 70.664062 -46.378906 70.5625 -42.890625 L 104.53125 -43.359375 C 104.53125 -40.691406 104.195312 -38.742188 103.53125 -37.515625 C 102.875 -36.285156 102.285156 -35.617188 101.765625 -35.515625 L 73.328125 -33.203125 C 71.890625 -29.203125 71.019531 -24.691406 70.71875 -19.671875 C 70.207031 -11.472656 69.953125 -4.609375 69.953125 0.921875 Z M 57.953125 -74.09375 C 55.703125 -71.019531 52.960938 -68.019531 49.734375 -65.09375 C 46.503906 -62.175781 43.351562 -59.257812 40.28125 -56.34375 C 37.207031 -53.425781 34.4375 -50.476562 31.96875 -47.5 C 29.507812 -44.53125 27.972656 -41.457031 27.359375 -38.28125 C 28.078125 -38.28125 29.664062 -38.28125 32.125 -38.28125 C 34.582031 -38.28125 38.117188 -38.5625 42.734375 -39.125 C 47.347656 -39.6875 52.421875 -40.273438 57.953125 -40.890625 Z M 57.953125 -74.09375 "/>
      </g>
    </g>
  </g>
</svg>
