<?xml version="1.0"?>
<svg xmlns="http://www.w3.org/2000/svg" xmlns:xlink="http://www.w3.org/1999/xlink" width="500" zoomAndPan="magnify" viewBox="0 0 375 374.999991" height="500" preserveAspectRatio="xMidYMid meet" version="1.2" style="background-color:transparent;">
  <defs>
    <clipPath id="3842d46133">
      <path d="M 117 114 L 294 114 L 294 290 L 117 290 Z M 117 114 "/>
    </clipPath>
    <clipPath id="f539f225db">
      <path d="M 49.109375 315.117188 L 43.578125 66.179688 L 326.257812 59.898438 L 331.789062 308.835938 Z M 49.109375 315.117188 "/>
    </clipPath>
    <clipPath id="cf55be958d">
      <path d="M 64.019531 985.894531 L 43.570312 65.871094 L 653.167969 52.320312 L 673.617188 972.34375 Z M 64.019531 985.894531 "/>
    </clipPath>
    <clipPath id="7e26de61e0">
      <path d="M 115 111 L 296 111 L 296 292 L 115 292 Z M 115 111 "/>
    </clipPath>
    <clipPath id="d8d0a4a4b9">
      <path d="M 49.109375 315.117188 L 43.578125 66.179688 L 326.257812 59.898438 L 331.789062 308.835938 Z M 49.109375 315.117188 "/>
    </clipPath>
    <clipPath id="64d9e9732e">
      <path d="M 64.019531 985.894531 L 43.570312 65.871094 L 653.167969 52.320312 L 673.617188 972.34375 Z M 64.019531 985.894531 "/>
    </clipPath>
    <clipPath id="b4805a889b">
      <path d="M 105 64 L 307 64 L 307 111 L 105 111 Z M 105 64 "/>
    </clipPath>
    <clipPath id="b58bb190bf">
      <path d="M 49.109375 315.117188 L 43.578125 66.179688 L 326.257812 59.898438 L 331.789062 308.835938 Z M 49.109375 315.117188 "/>
    </clipPath>
    <clipPath id="f7e9f54ea1">
      <path d="M 64.019531 985.894531 L 43.570312 65.871094 L 653.167969 52.320312 L 673.617188 972.34375 Z M 64.019531 985.894531 "/>
    </clipPath>
    <clipPath id="9768ca99ed">
      <path d="M 155 72 L 161 72 L 161 117 L 155 117 Z M 155 72 "/>
    </clipPath>
    <clipPath id="b8125feb9c">
      <path d="M 49.109375 315.117188 L 43.578125 66.179688 L 326.257812 59.898438 L 331.789062 308.835938 Z M 49.109375 315.117188 "/>
    </clipPath>
    <clipPath id="0c7c84d38c">
      <path d="M 64.019531 985.894531 L 43.570312 65.871094 L 653.167969 52.320312 L 673.617188 972.34375 Z M 64.019531 985.894531 "/>
    </clipPath>
    <clipPath id="79c27b4a06">
      <path d="M 252 73 L 258 73 L 258 118 L 252 118 Z M 252 73 "/>
    </clipPath>
    <clipPath id="143ee22582">
      <path d="M 49.109375 315.117188 L 43.578125 66.179688 L 326.257812 59.898438 L 331.789062 308.835938 Z M 49.109375 315.117188 "/>
    </clipPath>
    <clipPath id="56e537dc42">
      <path d="M 64.019531 985.894531 L 43.570312 65.871094 L 653.167969 52.320312 L 673.617188 972.34375 Z M 64.019531 985.894531 "/>
    </clipPath>
  </defs>
  <g id="60628ada84">
    <rect x="0" width="375" y="0" height="374.999991" style="fill:none;fill-opacity:1;stroke:none;" fill="none"/>
    <rect x="0" width="375" y="0" height="374.999991" style="fill:none;fill-opacity:1;stroke:none;" fill="none"/>
    <g clip-rule="nonzero" clip-path="url(#3842d46133)">
      <g clip-rule="nonzero" clip-path="url(#f539f225db)">
        <g clip-rule="nonzero" clip-path="url(#cf55be958d)">
          <path style=" stroke:none;fill-rule:nonzero;fill:#d9d9d9;fill-opacity:1;" d="M 291.886719 289.269531 L 118.527344 288.65625 C 118.207031 288.65625 117.949219 288.394531 117.949219 288.074219 L 118.5625 114.71875 C 118.5625 114.398438 118.824219 114.140625 119.144531 114.140625 L 292.503906 114.753906 C 292.824219 114.753906 293.082031 115.015625 293.082031 115.335938 L 292.46875 288.691406 C 292.464844 289.011719 292.207031 289.273438 291.886719 289.269531 Z M 291.886719 289.269531 "/>
        </g>
      </g>
    </g>
    <g clip-rule="nonzero" clip-path="url(#7e26de61e0)">
      <g clip-rule="nonzero" clip-path="url(#d8d0a4a4b9)">
        <g clip-rule="nonzero" clip-path="url(#64d9e9732e)">
          <path style=" stroke:none;fill-rule:nonzero;fill:#231f20;fill-opacity:1;" d="M 295.523438 115.996094 C 295.523438 116.03125 295.523438 116.066406 295.523438 116.097656 L 294.914062 287.945312 C 294.914062 288.957031 294.515625 289.902344 293.800781 290.613281 C 293.082031 291.328125 292.132812 291.71875 291.121094 291.714844 L 119.273438 291.105469 C 117.1875 291.097656 115.46875 289.382812 115.507812 287.3125 L 116.113281 115.464844 C 116.117188 114.453125 116.515625 113.503906 117.230469 112.796875 C 117.949219 112.082031 118.898438 111.695312 119.90625 111.695312 L 291.757812 112.304688 C 292.765625 112.308594 293.714844 112.703125 294.425781 113.421875 C 295.113281 114.113281 295.5 115.027344 295.523438 115.996094 Z M 290.027344 286.820312 L 290.628906 117.191406 L 121 116.59375 L 120.402344 286.21875 Z M 291.132812 286.820312 L 291.140625 286.820312 C 291.136719 286.820312 291.136719 286.820312 291.132812 286.820312 Z M 291.132812 286.820312 "/>
        </g>
      </g>
    </g>
    <g clip-rule="nonzero" clip-path="url(#b4805a889b)">
      <g clip-rule="nonzero" clip-path="url(#b58bb190bf)">
        <g clip-rule="nonzero" clip-path="url(#f7e9f54ea1)">
          <path style=" stroke:none;fill-rule:nonzero;fill:#231f20;fill-opacity:1;" d="M 306.285156 107.699219 C 306.300781 108.347656 306.058594 109.003906 305.558594 109.496094 C 304.597656 110.445312 303.046875 110.433594 302.097656 109.472656 C 276.566406 83.578125 242.480469 69.179688 206.117188 68.925781 C 169.753906 68.671875 135.46875 82.59375 109.574219 108.128906 C 108.613281 109.078125 107.066406 109.066406 106.117188 108.101562 C 105.167969 107.144531 105.179688 105.597656 106.140625 104.644531 C 132.964844 78.195312 168.480469 63.773438 206.148438 64.035156 C 243.820312 64.300781 279.132812 79.214844 305.582031 106.039062 C 306.039062 106.5 306.273438 107.097656 306.285156 107.699219 Z M 306.285156 107.699219 "/>
        </g>
      </g>
    </g>
    <g clip-rule="nonzero" clip-path="url(#9768ca99ed)">
      <g clip-rule="nonzero" clip-path="url(#b8125feb9c)">
        <g clip-rule="nonzero" clip-path="url(#0c7c84d38c)">
          <path style=" stroke:none;fill-rule:nonzero;fill:#231f20;fill-opacity:1;" d="M 160.125 74.777344 C 160.125 74.796875 160.125 74.820312 160.125 74.839844 L 159.988281 114.015625 C 159.980469 115.363281 158.882812 116.457031 157.53125 116.453125 C 156.183594 116.445312 155.074219 115.355469 155.097656 113.996094 L 155.234375 74.824219 C 155.238281 73.472656 156.335938 72.382812 157.6875 72.386719 C 159.019531 72.390625 160.09375 73.457031 160.125 74.777344 Z M 160.125 74.777344 "/>
        </g>
      </g>
    </g>
    <g clip-rule="nonzero" clip-path="url(#79c27b4a06)">
      <g clip-rule="nonzero" clip-path="url(#143ee22582)">
        <g clip-rule="nonzero" clip-path="url(#56e537dc42)">
          <path style=" stroke:none;fill-rule:nonzero;fill:#231f20;fill-opacity:1;" d="M 257.175781 75.851562 C 257.175781 75.875 257.175781 75.894531 257.175781 75.917969 L 257.039062 115.089844 C 257.03125 116.441406 255.933594 117.53125 254.582031 117.527344 C 253.234375 117.523438 252.113281 116.449219 252.144531 115.074219 L 252.285156 75.898438 C 252.289062 74.550781 253.386719 73.457031 254.738281 73.460938 C 256.066406 73.46875 257.144531 74.53125 257.175781 75.851562 Z M 257.175781 75.851562 "/>
        </g>
      </g>
    </g>
    <g style="fill:#231f20;fill-opacity:1;">
      <g transform="translate(162.151004, 245.127392)">
        <path style="stroke:none" d="M 82.703125 -25.671875 C 86.085938 -25.671875 87.78125 -24.390625 87.78125 -21.828125 C 87.78125 -19.265625 86.648438 -17.394531 84.390625 -16.21875 C 82.140625 -15.039062 79.601562 -14.191406 76.78125 -13.671875 C 73.96875 -13.160156 71.332031 -12.878906 68.875 -12.828125 C 66.414062 -12.785156 64.851562 -12.6875 64.1875 -12.53125 C 63.519531 -12.375 62.03125 -11.960938 59.71875 -11.296875 C 57.414062 -10.628906 54.675781 -9.859375 51.5 -8.984375 C 48.320312 -8.117188 44.890625 -7.175781 41.203125 -6.15625 C 29.617188 -3.070312 20.394531 -1.53125 13.53125 -1.53125 C 10.039062 -1.53125 7.707031 -2.066406 6.53125 -3.140625 C 5.351562 -4.222656 5.125 -5.738281 5.84375 -7.6875 C 13.53125 -14.445312 21.523438 -23.160156 29.828125 -33.828125 C 42.222656 -49.710938 48.421875 -62.113281 48.421875 -71.03125 C 48.421875 -72.769531 48.164062 -74.40625 47.65625 -75.9375 C 46.53125 -79.113281 43.609375 -81.164062 38.890625 -82.09375 C 34.378906 -82.09375 30.6875 -81.171875 27.8125 -79.328125 C 24.945312 -77.484375 22.257812 -75.429688 19.75 -73.171875 C 17.238281 -70.921875 14.675781 -68.875 12.0625 -67.03125 C 9.445312 -65.1875 6.242188 -64.265625 2.453125 -64.265625 C 2.554688 -67.640625 3.941406 -70.914062 6.609375 -74.09375 C 11.941406 -80.65625 19.472656 -85.375 29.203125 -88.25 C 32.691406 -89.375 35.457031 -89.9375 37.5 -89.9375 C 39.550781 -89.9375 41.09375 -89.882812 42.125 -89.78125 C 46.125 -89.375 49.554688 -87.9375 52.421875 -85.46875 C 55.296875 -83.007812 56.988281 -79.21875 57.5 -74.09375 C 57.5 -59.644531 50.734375 -43.609375 37.203125 -25.984375 C 33.515625 -21.160156 29.875 -16.703125 26.28125 -12.609375 C 27.414062 -12.503906 29.1875 -12.453125 31.59375 -12.453125 C 34 -12.453125 37.300781 -13.039062 41.5 -14.21875 C 45.707031 -15.394531 50.164062 -16.828125 54.875 -18.515625 C 59.59375 -20.210938 64.257812 -21.828125 68.875 -23.359375 C 73.488281 -24.898438 78.097656 -25.671875 82.703125 -25.671875 Z M 82.703125 -25.671875 "/>
      </g>
    </g>
  </g>
</svg>
