<?xml version="1.0"?>
<svg xmlns="http://www.w3.org/2000/svg" xmlns:xlink="http://www.w3.org/1999/xlink" width="500" zoomAndPan="magnify" viewBox="0 0 375 374.999991" height="500" preserveAspectRatio="xMidYMid meet" version="1.2" style="background-color:transparent;">
  <defs>
    <clipPath id="7df4696fc5">
      <path d="M 218 272 L 243.371094 272 L 243.371094 346.007812 L 218 346.007812 Z M 218 272 "/>
    </clipPath>
    <clipPath id="c090bdab6d">
      <path d="M 218 28.757812 L 243.371094 28.757812 L 243.371094 103 L 218 103 Z M 218 28.757812 "/>
    </clipPath>
    <clipPath id="f20297ce90">
      <path d="M 131.621094 100 L 220 100 L 220 108 L 131.621094 108 Z M 131.621094 100 "/>
    </clipPath>
    <clipPath id="1ed60f681b">
      <path d="M 131.621094 267 L 220 267 L 220 275 L 131.621094 275 Z M 131.621094 267 "/>
    </clipPath>
    <clipPath id="ad5114710d">
      <path d="M 131.621094 186 L 219 186 L 219 275 L 131.621094 275 Z M 131.621094 186 "/>
    </clipPath>
    <clipPath id="aed4eaeb4a">
      <path d="M 218 267 L 243.371094 267 L 243.371094 275 L 218 275 Z M 218 267 "/>
    </clipPath>
    <clipPath id="dbb33102bb">
      <path d="M 218 100 L 243.371094 100 L 243.371094 108 L 218 108 Z M 218 100 "/>
    </clipPath>
    <clipPath id="f4499a0a56">
      <path d="M 131.621094 100 L 219 100 L 219 189 L 131.621094 189 Z M 131.621094 100 "/>
    </clipPath>
  </defs>
  <g id="07b6ed82c0">
    <rect x="0" width="375" y="0" height="374.999991" style="fill:none;fill-opacity:1;stroke:none;" fill="none"/>
    <rect x="0" width="375" y="0" height="374.999991" style="fill:none;fill-opacity:1;stroke:none;" fill="none"/>
    <path style=" stroke:none;fill-rule:nonzero;fill:#a6a6a6;fill-opacity:1;" d="M 219.03125 344.988281 L 219.03125 273.363281 L 242.230469 273.363281 L 242.230469 344.988281 Z M 219.03125 344.988281 "/>
    <g clip-rule="nonzero" clip-path="url(#7df4696fc5)">
      <path style=" stroke:none;fill-rule:nonzero;fill:#000000;fill-opacity:1;" d="M 243.25 272.34375 L 243.25 346.007812 L 218.019531 346.007812 L 218.019531 272.34375 Z M 241.21875 343.976562 L 241.21875 274.378906 L 220.058594 274.378906 L 220.058594 343.976562 Z M 241.21875 343.976562 "/>
    </g>
    <path style=" stroke:none;fill-rule:nonzero;fill:#a6a6a6;fill-opacity:1;" d="M 219.03125 101.621094 L 219.03125 29.996094 L 242.230469 29.996094 L 242.230469 101.621094 Z M 219.03125 101.621094 "/>
    <g clip-rule="nonzero" clip-path="url(#c090bdab6d)">
      <path style=" stroke:none;fill-rule:nonzero;fill:#000000;fill-opacity:1;" d="M 243.25 28.976562 L 243.25 102.640625 L 218.019531 102.640625 L 218.019531 28.976562 Z M 241.21875 100.605469 L 241.21875 31.007812 L 220.058594 31.007812 L 220.058594 100.605469 Z M 241.21875 100.605469 "/>
    </g>
    <path style=" stroke:none;fill-rule:nonzero;fill:#a6a6a6;fill-opacity:1;" d="M 132.757812 106.097656 L 132.757812 101.621094 L 218.832031 101.621094 L 218.832031 106.097656 Z M 132.757812 106.097656 "/>
    <g clip-rule="nonzero" clip-path="url(#f20297ce90)">
      <path style=" stroke:none;fill-rule:nonzero;fill:#000000;fill-opacity:1;" d="M 219.847656 100.605469 L 219.847656 107.117188 L 131.738281 107.117188 L 131.738281 100.605469 Z M 217.8125 105.078125 L 217.8125 102.636719 L 133.773438 102.636719 L 133.773438 105.078125 Z M 217.8125 105.078125 "/>
    </g>
    <path style=" stroke:none;fill-rule:nonzero;fill:#a6a6a6;fill-opacity:1;" d="M 132.757812 273.363281 L 132.757812 268.886719 L 218.832031 268.886719 L 218.832031 273.363281 Z M 132.757812 273.363281 "/>
    <g clip-rule="nonzero" clip-path="url(#1ed60f681b)">
      <path style=" stroke:none;fill-rule:nonzero;fill:#000000;fill-opacity:1;" d="M 219.847656 267.867188 L 219.847656 274.378906 L 131.738281 274.378906 L 131.738281 267.867188 Z M 217.8125 272.34375 L 217.8125 269.898438 L 133.773438 269.898438 L 133.773438 272.34375 Z M 217.8125 272.34375 "/>
    </g>
    <g clip-rule="nonzero" clip-path="url(#ad5114710d)">
      <path style=" stroke:none;fill-rule:nonzero;fill:#000000;fill-opacity:1;" d="M 218.628906 186.472656 L 218.628906 188.503906 C 172.175781 188.503906 134.324219 226.019531 133.777344 272.34375 L 218.628906 272.34375 L 218.628906 274.375 L 131.738281 274.375 L 131.738281 273.355469 C 131.738281 250.144531 140.777344 228.328125 157.1875 211.914062 C 173.601562 195.503906 195.417969 186.472656 218.628906 186.472656 Z M 218.628906 186.472656 "/>
    </g>
    <path style=" stroke:none;fill-rule:nonzero;fill:#a6a6a6;fill-opacity:1;" d="M 219.03125 273.363281 L 219.03125 268.886719 L 242.230469 268.886719 L 242.230469 273.363281 Z M 219.03125 273.363281 "/>
    <g clip-rule="nonzero" clip-path="url(#aed4eaeb4a)">
      <path style=" stroke:none;fill-rule:nonzero;fill:#000000;fill-opacity:1;" d="M 243.25 267.867188 L 243.25 274.378906 L 218.019531 274.378906 L 218.019531 267.867188 Z M 241.21875 272.34375 L 241.21875 269.898438 L 220.058594 269.898438 L 220.058594 272.34375 Z M 241.21875 272.34375 "/>
    </g>
    <path style=" stroke:none;fill-rule:nonzero;fill:#a6a6a6;fill-opacity:1;" d="M 219.03125 106.097656 L 219.03125 101.621094 L 242.230469 101.621094 L 242.230469 106.097656 Z M 219.03125 106.097656 "/>
    <g clip-rule="nonzero" clip-path="url(#dbb33102bb)">
      <path style=" stroke:none;fill-rule:nonzero;fill:#000000;fill-opacity:1;" d="M 243.25 100.605469 L 243.25 107.117188 L 218.019531 107.117188 L 218.019531 100.605469 Z M 241.21875 105.078125 L 241.21875 102.636719 L 220.058594 102.636719 L 220.058594 105.078125 Z M 241.21875 105.078125 "/>
    </g>
    <g clip-rule="nonzero" clip-path="url(#f4499a0a56)">
      <path style=" stroke:none;fill-rule:nonzero;fill:#000000;fill-opacity:1;" d="M 218.628906 100.605469 L 218.628906 102.636719 L 133.777344 102.636719 C 134.324219 148.964844 172.175781 186.472656 218.628906 186.472656 L 218.628906 188.503906 C 195.417969 188.503906 173.601562 179.46875 157.1875 163.054688 C 140.777344 146.652344 131.738281 124.828125 131.738281 101.621094 L 131.738281 100.605469 Z M 218.628906 100.605469 "/>
    </g>
  </g>
</svg>
