<?xml version="1.0"?>
<svg xmlns="http://www.w3.org/2000/svg" xmlns:xlink="http://www.w3.org/1999/xlink" width="500" zoomAndPan="magnify" viewBox="0 0 375 374.999991" height="500" preserveAspectRatio="xMidYMid meet" version="1.2" style="background-color:transparent;">
  <defs>
    <clipPath id="325aaee2ad">
      <path d="M 131.621094 272 L 157 272 L 157 346.007812 L 131.621094 346.007812 Z M 131.621094 272 "/>
    </clipPath>
    <clipPath id="c7aa3445fb">
      <path d="M 131.621094 28.757812 L 157 28.757812 L 157 103 L 131.621094 103 Z M 131.621094 28.757812 "/>
    </clipPath>
    <clipPath id="9890efcd64">
      <path d="M 155 100 L 243.371094 100 L 243.371094 108 L 155 108 Z M 155 100 "/>
    </clipPath>
    <clipPath id="a027ec6bce">
      <path d="M 155 267 L 243.371094 267 L 243.371094 275 L 155 275 Z M 155 267 "/>
    </clipPath>
    <clipPath id="1e5e92f92f">
      <path d="M 156 186 L 243.371094 186 L 243.371094 275 L 156 275 Z M 156 186 "/>
    </clipPath>
    <clipPath id="c9a77fcfa1">
      <path d="M 131.621094 267 L 157 267 L 157 275 L 131.621094 275 Z M 131.621094 267 "/>
    </clipPath>
    <clipPath id="cec009b335">
      <path d="M 131.621094 100 L 157 100 L 157 108 L 131.621094 108 Z M 131.621094 100 "/>
    </clipPath>
    <clipPath id="2d3e79e257">
      <path d="M 156 100 L 243.371094 100 L 243.371094 189 L 156 189 Z M 156 100 "/>
    </clipPath>
  </defs>
  <g id="61781f2e0b">
    <rect x="0" width="375" y="0" height="374.999991" style="fill:none;fill-opacity:1;stroke:none;" fill="none"/>
    <rect x="0" width="375" y="0" height="374.999991" style="fill:none;fill-opacity:1;stroke:none;" fill="none"/>
    <path style=" stroke:none;fill-rule:nonzero;fill:#a6a6a6;fill-opacity:1;" d="M 155.957031 344.988281 L 155.957031 273.363281 L 132.757812 273.363281 L 132.757812 344.988281 Z M 155.957031 344.988281 "/>
    <g clip-rule="nonzero" clip-path="url(#325aaee2ad)">
      <path style=" stroke:none;fill-rule:nonzero;fill:#000000;fill-opacity:1;" d="M 131.738281 272.34375 L 131.738281 346.007812 L 156.96875 346.007812 L 156.96875 272.34375 Z M 133.773438 343.976562 L 133.773438 274.378906 L 154.929688 274.378906 L 154.929688 343.976562 Z M 133.773438 343.976562 "/>
    </g>
    <path style=" stroke:none;fill-rule:nonzero;fill:#a6a6a6;fill-opacity:1;" d="M 155.957031 101.621094 L 155.957031 29.996094 L 132.757812 29.996094 L 132.757812 101.621094 Z M 155.957031 101.621094 "/>
    <g clip-rule="nonzero" clip-path="url(#c7aa3445fb)">
      <path style=" stroke:none;fill-rule:nonzero;fill:#000000;fill-opacity:1;" d="M 131.738281 28.976562 L 131.738281 102.640625 L 156.96875 102.640625 L 156.96875 28.976562 Z M 133.773438 100.605469 L 133.773438 31.007812 L 154.929688 31.007812 L 154.929688 100.605469 Z M 133.773438 100.605469 "/>
    </g>
    <path style=" stroke:none;fill-rule:nonzero;fill:#a6a6a6;fill-opacity:1;" d="M 242.230469 106.097656 L 242.230469 101.621094 L 156.15625 101.621094 L 156.15625 106.097656 Z M 242.230469 106.097656 "/>
    <g clip-rule="nonzero" clip-path="url(#9890efcd64)">
      <path style=" stroke:none;fill-rule:nonzero;fill:#000000;fill-opacity:1;" d="M 155.144531 100.605469 L 155.144531 107.117188 L 243.25 107.117188 L 243.25 100.605469 Z M 157.175781 105.078125 L 157.175781 102.636719 L 241.21875 102.636719 L 241.21875 105.078125 Z M 157.175781 105.078125 "/>
    </g>
    <path style=" stroke:none;fill-rule:nonzero;fill:#a6a6a6;fill-opacity:1;" d="M 242.230469 273.363281 L 242.230469 268.886719 L 156.15625 268.886719 L 156.15625 273.363281 Z M 242.230469 273.363281 "/>
    <g clip-rule="nonzero" clip-path="url(#a027ec6bce)">
      <path style=" stroke:none;fill-rule:nonzero;fill:#000000;fill-opacity:1;" d="M 155.144531 267.867188 L 155.144531 274.378906 L 243.25 274.378906 L 243.25 267.867188 Z M 157.175781 272.34375 L 157.175781 269.898438 L 241.21875 269.898438 L 241.21875 272.34375 Z M 157.175781 272.34375 "/>
    </g>
    <g clip-rule="nonzero" clip-path="url(#1e5e92f92f)">
      <path style=" stroke:none;fill-rule:nonzero;fill:#000000;fill-opacity:1;" d="M 156.359375 186.472656 L 156.359375 188.503906 C 202.8125 188.503906 240.664062 226.019531 241.210938 272.34375 L 156.359375 272.34375 L 156.359375 274.375 L 243.25 274.375 L 243.25 273.355469 C 243.25 250.144531 234.210938 228.328125 217.800781 211.914062 C 201.390625 195.503906 179.574219 186.472656 156.359375 186.472656 Z M 156.359375 186.472656 "/>
    </g>
    <path style=" stroke:none;fill-rule:nonzero;fill:#a6a6a6;fill-opacity:1;" d="M 155.957031 273.363281 L 155.957031 268.886719 L 132.757812 268.886719 L 132.757812 273.363281 Z M 155.957031 273.363281 "/>
    <g clip-rule="nonzero" clip-path="url(#c9a77fcfa1)">
      <path style=" stroke:none;fill-rule:nonzero;fill:#000000;fill-opacity:1;" d="M 131.738281 267.867188 L 131.738281 274.378906 L 156.96875 274.378906 L 156.96875 267.867188 Z M 133.773438 272.34375 L 133.773438 269.898438 L 154.929688 269.898438 L 154.929688 272.34375 Z M 133.773438 272.34375 "/>
    </g>
    <path style=" stroke:none;fill-rule:nonzero;fill:#a6a6a6;fill-opacity:1;" d="M 155.957031 106.097656 L 155.957031 101.621094 L 132.757812 101.621094 L 132.757812 106.097656 Z M 155.957031 106.097656 "/>
    <g clip-rule="nonzero" clip-path="url(#cec009b335)">
      <path style=" stroke:none;fill-rule:nonzero;fill:#000000;fill-opacity:1;" d="M 131.738281 100.605469 L 131.738281 107.117188 L 156.96875 107.117188 L 156.96875 100.605469 Z M 133.773438 105.078125 L 133.773438 102.636719 L 154.929688 102.636719 L 154.929688 105.078125 Z M 133.773438 105.078125 "/>
    </g>
    <g clip-rule="nonzero" clip-path="url(#2d3e79e257)">
      <path style=" stroke:none;fill-rule:nonzero;fill:#000000;fill-opacity:1;" d="M 156.359375 100.605469 L 156.359375 102.636719 L 241.210938 102.636719 C 240.664062 148.964844 202.8125 186.472656 156.359375 186.472656 L 156.359375 188.503906 C 179.574219 188.503906 201.390625 179.46875 217.800781 163.054688 C 234.210938 146.652344 243.25 124.828125 243.25 101.621094 L 243.25 100.605469 Z M 156.359375 100.605469 "/>
    </g>
  </g>
</svg>
