<?xml version="1.0"?>
<svg xmlns="http://www.w3.org/2000/svg" xmlns:xlink="http://www.w3.org/1999/xlink" width="500" zoomAndPan="magnify" viewBox="0 0 375 374.999991" height="500" preserveAspectRatio="xMidYMid meet" version="1.2" style="background-color:transparent;">
  <defs>
    <clipPath id="72ad7e2659">
      <path d="M 25.292969 64.429688 L 350 64.429688 L 350 291.679688 L 25.292969 291.679688 Z M 25.292969 64.429688 "/>
    </clipPath>
  </defs>
  <g id="32b208f3a4">
    <rect x="0" width="375" y="0" height="374.999991" style="fill:none;fill-opacity:1;stroke:none;" fill="none"/>
    <rect x="0" width="375" y="0" height="374.999991" style="fill:none;fill-opacity:1;stroke:none;" fill="none"/>
    <path style=" stroke:none;fill-rule:nonzero;fill:#231f20;fill-opacity:1;" d="M 112.816406 277.21875 L 112.816406 277.636719 L 112.878906 277.871094 L 112.878906 278.523438 L 110.613281 278.648438 L 110.613281 278.050781 L 110.554688 277.8125 L 110.554688 277.398438 L 110.5 277.160156 L 110.5 276.746094 L 110.4375 276.566406 L 110.4375 276.148438 L 110.375 275.910156 L 110.375 275.734375 L 110.316406 275.496094 L 110.316406 275.316406 L 110.261719 275.082031 L 110.261719 274.664062 L 110.199219 274.480469 L 110.199219 274.246094 L 110.140625 274.066406 L 110.140625 273.828125 L 110.078125 273.652344 L 110.023438 273.414062 L 110.023438 273.238281 L 109.960938 273 L 109.960938 272.816406 L 109.902344 272.578125 L 109.902344 272.402344 L 109.839844 272.164062 L 109.785156 271.988281 L 109.785156 271.75 L 109.722656 271.574219 L 109.664062 271.335938 L 109.664062 271.152344 L 109.601562 270.914062 L 109.546875 270.738281 L 109.546875 270.5 L 109.488281 270.324219 L 109.425781 270.085938 L 109.363281 269.910156 L 109.363281 269.671875 L 109.308594 269.488281 L 109.25 269.25 L 109.1875 269.074219 L 109.1875 268.835938 L 109.125 268.660156 L 109.066406 268.480469 L 109.011719 268.246094 L 108.949219 268.0625 L 108.886719 267.824219 L 108.886719 267.648438 L 108.828125 267.410156 L 108.773438 267.230469 L 108.710938 266.996094 L 108.652344 266.816406 L 108.589844 266.632812 L 108.535156 266.394531 L 108.472656 266.21875 L 108.414062 265.980469 L 108.351562 265.804688 L 108.296875 265.566406 L 108.238281 265.390625 L 108.175781 265.207031 L 108.113281 264.96875 L 108.058594 264.792969 L 108 264.554688 L 107.875 264.203125 L 107.820312 263.964844 L 107.761719 263.78125 L 107.699219 263.601562 L 107.636719 263.367188 L 107.585938 263.1875 L 107.460938 262.953125 L 107.402344 262.773438 L 107.347656 262.589844 L 107.285156 262.351562 L 107.222656 262.175781 L 107.164062 262 L 107.046875 261.761719 L 106.984375 261.585938 L 106.925781 261.402344 L 106.871094 261.164062 L 106.75 260.988281 L 106.6875 260.8125 L 106.632812 260.574219 L 106.570312 260.394531 L 106.449219 260.210938 L 106.394531 259.976562 L 106.332031 259.796875 L 106.210938 259.621094 L 106.148438 259.445312 L 106.097656 259.207031 L 105.972656 259.023438 L 105.914062 258.847656 L 105.859375 258.609375 L 105.734375 258.433594 L 105.675781 258.257812 L 105.558594 258.074219 L 105.496094 257.835938 L 105.4375 257.65625 L 105.320312 257.480469 L 105.261719 257.304688 L 105.144531 257.066406 L 105.082031 256.882812 L 104.960938 256.707031 L 104.90625 256.53125 L 104.785156 256.351562 L 104.722656 256.117188 L 104.609375 255.933594 L 104.546875 255.753906 L 104.429688 255.578125 L 104.371094 255.402344 L 104.246094 255.164062 L 104.132812 254.980469 L 104.070312 254.804688 L 103.957031 254.628906 L 103.894531 254.449219 L 103.773438 254.265625 L 103.65625 254.03125 L 103.59375 253.851562 L 103.480469 253.675781 L 103.359375 253.5 L 103.296875 253.316406 L 103.179688 253.140625 L 103.058594 252.960938 L 102.996094 252.785156 L 102.882812 252.546875 L 102.757812 252.363281 L 102.644531 252.1875 L 102.582031 252.011719 L 102.46875 251.835938 L 102.34375 251.652344 L 102.230469 251.472656 L 102.105469 251.296875 L 102.046875 251.121094 L 101.929688 250.9375 L 101.808594 250.761719 L 101.691406 250.585938 L 101.570312 250.40625 L 101.453125 250.222656 L 101.394531 250.046875 L 101.277344 249.871094 L 101.15625 249.695312 L 101.039062 249.511719 L 100.917969 249.335938 L 100.800781 249.15625 L 100.679688 248.980469 L 100.566406 248.796875 L 100.441406 248.621094 L 100.320312 248.445312 L 100.203125 248.265625 L 100.082031 248.082031 L 99.96875 247.90625 L 99.84375 247.730469 L 99.730469 247.554688 L 99.605469 247.371094 L 99.492188 247.195312 L 99.367188 247.015625 L 99.253906 246.839844 L 99.132812 246.71875 L 99.015625 246.542969 L 98.894531 246.363281 L 98.777344 246.179688 L 98.65625 246.003906 L 98.539062 245.828125 L 98.417969 245.652344 L 98.300781 245.527344 L 98.125 245.351562 L 98.003906 245.175781 L 97.886719 244.992188 L 97.644531 244.640625 L 97.527344 244.515625 L 97.351562 244.339844 L 97.230469 244.164062 L 97.113281 243.988281 L 96.992188 243.804688 L 96.875 243.6875 L 96.691406 243.511719 L 96.578125 243.328125 L 96.453125 243.152344 L 96.339844 243.035156 L 96.160156 242.851562 L 96.039062 242.675781 L 95.925781 242.558594 L 95.742188 242.375 L 95.625 242.199219 L 95.503906 242.085938 L 95.324219 241.902344 L 95.210938 241.722656 L 95.089844 241.609375 L 94.910156 241.425781 L 94.789062 241.25 L 94.671875 241.132812 L 94.492188 240.949219 L 94.375 240.773438 L 94.199219 240.65625 L 94.074219 240.472656 L 93.960938 240.359375 L 93.777344 240.179688 L 93.660156 239.996094 L 93.484375 239.882812 L 93.363281 239.707031 L 93.1875 239.582031 L 93.0625 239.40625 L 92.886719 239.285156 L 92.769531 239.109375 L 92.585938 238.992188 L 92.472656 238.808594 L 92.296875 238.632812 L 92.171875 238.515625 L 91.996094 238.394531 L 91.875 238.21875 L 91.699219 238.09375 L 91.574219 237.917969 L 91.398438 237.804688 L 91.28125 237.621094 L 91.097656 237.503906 L 90.921875 237.328125 L 90.808594 237.207031 L 90.625 237.089844 L 90.507812 236.90625 L 90.332031 236.789062 L 90.148438 236.613281 L 90.03125 236.492188 L 89.855469 236.375 L 89.558594 236.078125 L 89.378906 235.953125 L 89.195312 235.777344 L 89.082031 235.664062 L 88.898438 235.539062 L 88.722656 235.363281 L 88.605469 235.242188 L 88.421875 235.125 L 88.246094 234.949219 L 88.070312 234.828125 L 87.945312 234.710938 L 87.769531 234.589844 L 87.59375 234.414062 L 87.417969 234.289062 L 87.292969 234.175781 L 87.117188 234.050781 L 86.941406 233.9375 L 86.757812 233.761719 L 86.640625 233.636719 L 86.464844 233.523438 L 86.28125 233.398438 L 86.105469 233.285156 L 85.929688 233.164062 L 85.746094 232.984375 L 85.628906 232.863281 L 85.453125 232.746094 L 85.269531 232.625 L 85.09375 232.511719 L 84.917969 232.386719 L 84.738281 232.273438 L 84.554688 232.148438 L 84.441406 232.035156 L 84.265625 231.910156 L 84.082031 231.796875 L 83.902344 231.675781 L 83.726562 231.558594 L 83.550781 231.4375 L 83.367188 231.320312 L 83.191406 231.199219 L 83.011719 231.082031 L 82.832031 230.960938 L 82.652344 230.84375 L 82.476562 230.722656 L 82.300781 230.609375 L 82.117188 230.484375 L 81.941406 230.371094 L 81.761719 230.246094 L 81.585938 230.132812 L 81.402344 230.007812 L 81.226562 229.894531 L 81.050781 229.773438 L 80.875 229.71875 L 80.691406 229.59375 L 80.511719 229.480469 L 80.335938 229.355469 L 80.152344 229.242188 L 79.976562 229.179688 L 79.800781 229.058594 L 79.621094 228.941406 L 79.441406 228.820312 L 79.261719 228.703125 L 79.085938 228.644531 L 78.910156 228.527344 L 78.726562 228.40625 L 78.488281 228.289062 L 78.3125 228.230469 L 78.136719 228.105469 L 77.957031 227.992188 L 77.773438 227.929688 L 77.597656 227.816406 L 77.421875 227.691406 L 77.238281 227.632812 L 77 227.515625 L 76.824219 227.394531 L 76.648438 227.339844 L 76.46875 227.214844 L 76.285156 227.15625 L 76.109375 227.039062 L 75.871094 226.917969 L 75.695312 226.863281 L 75.519531 226.742188 L 75.335938 226.679688 L 75.160156 226.566406 L 74.921875 226.503906 L 74.746094 226.386719 L 74.5625 226.328125 L 74.382812 226.203125 L 74.207031 226.148438 L 73.96875 226.027344 L 73.792969 225.964844 L 73.609375 225.851562 L 73.433594 225.789062 L 73.195312 225.730469 L 73.019531 225.613281 L 72.839844 225.550781 L 72.65625 225.4375 L 72.421875 225.375 L 72.242188 225.3125 L 72.066406 225.199219 L 71.828125 225.136719 L 71.644531 225.078125 L 71.46875 224.960938 L 71.292969 224.898438 L 71.054688 224.839844 L 70.878906 224.722656 L 70.695312 224.660156 L 70.457031 224.601562 L 70.28125 224.539062 L 70.101562 224.425781 L 69.867188 224.363281 L 69.6875 224.300781 L 69.503906 224.246094 L 69.265625 224.125 L 69.089844 224.0625 L 68.914062 224.007812 L 68.675781 223.949219 L 68.492188 223.886719 L 68.316406 223.824219 L 68.078125 223.710938 L 67.902344 223.648438 L 67.726562 223.589844 L 67.488281 223.535156 L 67.304688 223.472656 L 67.066406 223.410156 L 66.890625 223.351562 L 66.710938 223.296875 L 66.476562 223.234375 L 66.296875 223.171875 L 66.058594 223.113281 L 65.875 223.058594 L 65.699219 222.996094 L 65.460938 222.9375 L 65.285156 222.875 L 65.046875 222.820312 L 64.863281 222.757812 L 64.6875 222.699219 L 64.449219 222.636719 L 64.273438 222.582031 L 64.035156 222.519531 L 63.859375 222.460938 L 63.621094 222.398438 L 63.4375 222.398438 L 63.199219 222.34375 L 63.023438 222.285156 L 62.847656 222.222656 L 62.609375 222.160156 L 62.425781 222.105469 L 62.1875 222.105469 L 62.011719 222.046875 L 61.773438 221.984375 L 61.597656 221.921875 L 61.359375 221.921875 L 61.179688 221.871094 L 60.945312 221.808594 L 60.761719 221.746094 L 60.523438 221.746094 L 60.347656 221.6875 L 60.167969 221.632812 L 59.929688 221.632812 L 59.746094 221.570312 L 59.511719 221.507812 L 59.332031 221.507812 L 59.09375 221.449219 L 58.917969 221.394531 L 58.679688 221.394531 L 58.503906 221.332031 L 58.265625 221.332031 L 58.082031 221.269531 L 57.84375 221.269531 L 57.667969 221.210938 L 57.429688 221.210938 L 57.253906 221.15625 L 57.015625 221.15625 L 56.832031 221.09375 L 56.59375 221.09375 L 56.355469 221.035156 L 56.179688 221.035156 L 55.941406 220.972656 L 55.765625 220.972656 L 55.527344 220.917969 L 55.113281 220.917969 L 54.929688 220.855469 L 54.691406 220.855469 L 54.515625 220.796875 L 54.101562 220.796875 L 53.863281 220.734375 L 53.265625 220.734375 L 53.027344 220.679688 L 52.789062 220.679688 L 52.789062 278.523438 L 50.410156 278.523438 L 50.410156 218.417969 L 53.265625 218.417969 L 53.441406 218.480469 L 53.917969 218.480469 L 54.101562 218.539062 L 54.515625 218.539062 L 54.753906 218.59375 L 55.167969 218.59375 L 55.40625 218.65625 L 55.589844 218.65625 L 55.828125 218.714844 L 56.242188 218.714844 L 56.480469 218.777344 L 56.65625 218.777344 L 56.894531 218.832031 L 57.070312 218.832031 L 57.308594 218.894531 L 57.554688 218.894531 L 57.730469 218.953125 L 57.96875 218.953125 L 58.144531 219.015625 L 58.382812 219.015625 L 58.558594 219.070312 L 58.796875 219.128906 L 59.035156 219.128906 L 59.21875 219.191406 L 59.457031 219.191406 L 59.632812 219.253906 L 59.871094 219.308594 L 60.046875 219.308594 L 60.285156 219.367188 L 60.46875 219.429688 L 60.707031 219.429688 L 60.945312 219.492188 L 61.121094 219.546875 L 61.359375 219.605469 L 61.535156 219.605469 L 61.773438 219.667969 L 61.949219 219.730469 L 62.1875 219.78125 L 62.371094 219.78125 L 62.609375 219.84375 L 62.785156 219.90625 L 63.023438 219.964844 L 63.199219 220.019531 L 63.4375 220.019531 L 63.621094 220.082031 L 63.859375 220.144531 L 64.035156 220.203125 L 64.273438 220.257812 L 64.449219 220.320312 L 64.6875 220.382812 L 64.863281 220.441406 L 65.101562 220.496094 L 65.285156 220.496094 L 65.523438 220.558594 L 65.699219 220.617188 L 65.9375 220.679688 L 66.113281 220.734375 L 66.351562 220.796875 L 66.535156 220.855469 L 66.773438 220.917969 L 66.949219 220.972656 L 67.1875 221.09375 L 67.363281 221.15625 L 67.601562 221.210938 L 67.78125 221.269531 L 67.964844 221.332031 L 68.199219 221.394531 L 68.378906 221.449219 L 68.613281 221.507812 L 68.792969 221.570312 L 69.03125 221.632812 L 69.214844 221.746094 L 69.390625 221.808594 L 69.628906 221.871094 L 69.804688 221.921875 L 70.042969 221.984375 L 70.21875 222.105469 L 70.457031 222.160156 L 70.640625 222.222656 L 70.816406 222.285156 L 71.054688 222.398438 L 71.230469 222.460938 L 71.40625 222.519531 L 71.644531 222.582031 L 71.828125 222.699219 L 72.066406 222.757812 L 72.242188 222.820312 L 72.421875 222.9375 L 72.65625 222.996094 L 72.839844 223.058594 L 73.019531 223.171875 L 73.257812 223.234375 L 73.433594 223.351562 L 73.609375 223.410156 L 73.847656 223.472656 L 74.03125 223.589844 L 74.207031 223.648438 L 74.445312 223.773438 L 74.621094 223.824219 L 74.804688 223.949219 L 74.980469 224.007812 L 75.21875 224.125 L 75.398438 224.1875 L 75.574219 224.300781 L 75.8125 224.363281 L 75.996094 224.484375 L 76.171875 224.539062 L 76.347656 224.660156 L 76.585938 224.777344 L 76.761719 224.839844 L 76.945312 224.960938 L 77.121094 225.015625 L 77.359375 225.136719 L 77.535156 225.253906 L 77.71875 225.3125 L 77.898438 225.4375 L 78.136719 225.492188 L 78.3125 225.613281 L 78.488281 225.730469 L 78.671875 225.851562 L 78.847656 225.914062 L 79.023438 226.027344 L 79.261719 226.148438 L 79.441406 226.203125 L 79.621094 226.328125 L 79.800781 226.441406 L 79.976562 226.566406 L 80.152344 226.625 L 80.390625 226.742188 L 80.574219 226.863281 L 80.75 226.980469 L 80.925781 227.101562 L 81.109375 227.15625 L 81.289062 227.277344 L 81.464844 227.394531 L 81.640625 227.515625 L 81.878906 227.632812 L 82.0625 227.753906 L 82.238281 227.867188 L 82.414062 227.992188 L 82.59375 228.050781 L 82.777344 228.167969 L 82.953125 228.289062 L 83.128906 228.40625 L 83.304688 228.527344 L 83.488281 228.644531 L 83.664062 228.765625 L 83.84375 228.882812 L 84.027344 229.003906 L 84.203125 229.121094 L 84.378906 229.242188 L 84.554688 229.355469 L 84.738281 229.480469 L 84.917969 229.59375 L 85.09375 229.71875 L 85.269531 229.832031 L 85.453125 229.957031 L 85.628906 230.070312 L 85.804688 230.246094 L 85.984375 230.371094 L 86.167969 230.484375 L 86.34375 230.609375 L 86.519531 230.722656 L 86.703125 230.84375 L 86.878906 230.960938 L 86.996094 231.082031 L 87.179688 231.257812 L 87.355469 231.382812 L 87.53125 231.496094 L 87.707031 231.621094 L 87.890625 231.734375 L 88.070312 231.910156 L 88.246094 232.035156 L 88.367188 232.148438 L 88.542969 232.273438 L 88.722656 232.449219 L 88.898438 232.570312 L 89.082031 232.6875 L 89.195312 232.808594 L 89.378906 232.984375 L 89.558594 233.101562 L 89.734375 233.222656 L 89.910156 233.398438 L 90.03125 233.523438 L 90.210938 233.636719 L 90.386719 233.816406 L 90.570312 233.9375 L 90.683594 234.050781 L 90.863281 234.234375 L 91.046875 234.351562 L 91.222656 234.527344 L 91.335938 234.652344 L 91.519531 234.765625 L 91.699219 234.949219 L 91.8125 235.066406 L 91.996094 235.242188 L 92.171875 235.363281 L 92.296875 235.480469 L 92.472656 235.664062 L 92.648438 235.777344 L 92.769531 235.953125 L 92.949219 236.078125 L 93.0625 236.253906 L 93.246094 236.375 L 93.421875 236.554688 L 93.539062 236.667969 L 93.722656 236.851562 L 93.839844 237.027344 L 94.015625 237.144531 L 94.789062 237.917969 L 94.910156 238.09375 L 95.089844 238.21875 L 95.210938 238.394531 L 95.386719 238.515625 L 95.503906 238.695312 L 95.6875 238.871094 L 95.800781 238.992188 L 95.976562 239.167969 L 96.101562 239.34375 L 96.214844 239.46875 L 96.398438 239.644531 L 96.515625 239.820312 L 96.691406 239.945312 L 96.8125 240.121094 L 96.929688 240.296875 L 97.113281 240.472656 L 97.230469 240.597656 L 97.40625 240.773438 L 97.527344 240.949219 L 97.644531 241.070312 L 97.828125 241.25 L 97.941406 241.425781 L 98.0625 241.609375 L 98.242188 241.785156 L 98.363281 241.902344 L 98.480469 242.085938 L 98.601562 242.261719 L 98.777344 242.4375 L 98.894531 242.613281 L 99.015625 242.738281 L 99.132812 242.914062 L 99.316406 243.089844 L 99.429688 243.273438 L 99.550781 243.449219 L 99.667969 243.625 L 99.84375 243.804688 L 99.96875 243.925781 L 100.082031 244.101562 L 100.203125 244.277344 L 100.320312 244.460938 L 100.441406 244.640625 L 100.566406 244.816406 L 100.742188 244.992188 L 100.855469 245.175781 L 100.980469 245.351562 L 101.09375 245.527344 L 101.21875 245.707031 L 101.332031 245.890625 L 101.453125 246.066406 L 101.570312 246.242188 L 101.691406 246.417969 L 101.808594 246.601562 L 101.929688 246.78125 L 102.046875 246.957031 L 102.167969 247.132812 L 102.285156 247.316406 L 102.40625 247.492188 L 102.523438 247.667969 L 102.644531 247.847656 L 102.757812 248.03125 L 102.882812 248.207031 L 102.996094 248.382812 L 103.121094 248.558594 L 103.234375 248.742188 L 103.359375 248.917969 L 103.480469 249.097656 L 103.59375 249.273438 L 103.71875 249.457031 L 103.773438 249.632812 L 103.894531 249.808594 L 104.011719 250.046875 L 104.132812 250.222656 L 104.246094 250.40625 L 104.371094 250.585938 L 104.429688 250.761719 L 104.546875 250.9375 L 104.667969 251.121094 L 104.785156 251.296875 L 104.90625 251.535156 L 104.960938 251.710938 L 105.082031 251.890625 L 105.199219 252.074219 L 105.320312 252.25 L 105.382812 252.425781 L 105.496094 252.664062 L 105.621094 252.839844 L 105.675781 253.023438 L 105.796875 253.199219 L 105.914062 253.378906 L 105.972656 253.613281 L 106.097656 253.792969 L 106.210938 253.976562 L 106.273438 254.152344 L 106.394531 254.390625 L 106.449219 254.566406 L 106.570312 254.742188 L 106.6875 254.925781 L 106.75 255.164062 L 106.871094 255.339844 L 106.925781 255.515625 L 107.046875 255.695312 L 107.109375 255.933594 L 107.222656 256.117188 L 107.285156 256.292969 L 107.402344 256.53125 L 107.460938 256.707031 L 107.585938 256.882812 L 107.636719 257.121094 L 107.761719 257.304688 L 107.820312 257.480469 L 107.875 257.71875 L 108 257.894531 L 108.058594 258.074219 L 108.175781 258.308594 L 108.238281 258.492188 L 108.296875 258.671875 L 108.414062 258.910156 L 108.472656 259.085938 L 108.535156 259.261719 L 108.652344 259.5 L 108.710938 259.683594 L 108.773438 259.859375 L 108.886719 260.097656 L 108.949219 260.273438 L 109.011719 260.511719 L 109.066406 260.6875 L 109.1875 260.871094 L 109.25 261.109375 L 109.308594 261.285156 L 109.363281 261.523438 L 109.425781 261.699219 L 109.546875 261.878906 L 109.601562 262.117188 L 109.664062 262.300781 L 109.722656 262.535156 L 109.785156 262.714844 L 109.839844 262.953125 L 109.902344 263.128906 L 110.023438 263.304688 L 110.078125 263.542969 L 110.140625 263.726562 L 110.199219 263.964844 L 110.261719 264.140625 L 110.316406 264.378906 L 110.375 264.554688 L 110.4375 264.792969 L 110.5 264.96875 L 110.554688 265.207031 L 110.613281 265.390625 L 110.675781 265.628906 L 110.738281 265.804688 L 110.792969 266.042969 L 110.851562 266.21875 L 110.914062 266.394531 L 110.976562 266.632812 L 111.027344 266.816406 L 111.089844 267.054688 L 111.089844 267.292969 L 111.152344 267.46875 L 111.210938 267.707031 L 111.265625 267.882812 L 111.328125 268.121094 L 111.390625 268.296875 L 111.390625 268.535156 L 111.449219 268.71875 L 111.503906 268.957031 L 111.566406 269.132812 L 111.628906 269.371094 L 111.628906 269.550781 L 111.6875 269.785156 L 111.742188 269.964844 L 111.804688 270.203125 L 111.804688 270.386719 L 111.863281 270.621094 L 111.925781 270.859375 L 111.925781 271.039062 L 111.980469 271.273438 L 112.042969 271.453125 L 112.042969 271.6875 L 112.101562 271.867188 L 112.164062 272.105469 L 112.164062 272.289062 L 112.226562 272.523438 L 112.226562 272.761719 L 112.28125 272.941406 L 112.28125 273.175781 L 112.339844 273.355469 L 112.402344 273.59375 L 112.402344 273.769531 L 112.460938 274.007812 L 112.460938 274.246094 L 112.515625 274.429688 L 112.515625 274.84375 L 112.578125 275.082031 L 112.578125 275.316406 L 112.640625 275.496094 L 112.640625 275.734375 L 112.699219 275.910156 L 112.699219 276.382812 L 112.753906 276.566406 L 112.753906 276.984375 Z M 112.816406 277.21875 "/>
    <g clip-rule="nonzero" clip-path="url(#72ad7e2659)">
      <path style=" stroke:none;fill-rule:nonzero;fill:#231f20;fill-opacity:1;" d="M 349.707031 64.429688 L 349.707031 291.488281 L 112.878906 291.488281 L 112.878906 278.523438 L 336.679688 278.523438 L 336.679688 77.390625 L 38.277344 77.390625 L 38.277344 278.523438 L 50.410156 278.523438 L 50.410156 291.488281 L 25.304688 291.488281 L 25.304688 64.429688 Z M 349.707031 64.429688 "/>
    </g>
    <g style="fill:#231f20;fill-opacity:1;">
      <g transform="translate(129.807126, 188.851424)">
        <path style="stroke:none" d="M 3.296875 -18 L 3.21875 -28.25 L 6.5 -28.125 L 6.140625 -4 L 27.84375 -3.375 C 28.28125 -3.238281 28.5 -3.003906 28.5 -2.671875 C 28.5 -2.347656 28.289062 -2.003906 27.875 -1.640625 C 27.082031 -0.929688 26.175781 -0.578125 25.15625 -0.578125 C 24.914062 -0.578125 24.65625 -0.601562 24.375 -0.65625 L 2.265625 -0.859375 C 2.953125 -3.410156 3.296875 -9.125 3.296875 -18 Z M 3.296875 -18 "/>
      </g>
    </g>
    <g style="fill:#231f20;fill-opacity:1;">
      <g transform="translate(159.008963, 188.851424)">
        <path style="stroke:none" d="M 17.296875 -6.84375 C 15.234375 -3.601562 12.488281 -1.597656 9.0625 -0.828125 C 8.257812 -0.660156 7.535156 -0.578125 6.890625 -0.578125 C 6.253906 -0.578125 5.722656 -0.582031 5.296875 -0.59375 C 4.867188 -0.613281 4.394531 -0.675781 3.875 -0.78125 C 3.351562 -0.894531 2.875 -1.070312 2.4375 -1.3125 C 1.414062 -1.894531 0.90625 -2.707031 0.90625 -3.75 C 0.789062 -4.238281 0.734375 -4.789062 0.734375 -5.40625 C 0.734375 -6.03125 0.867188 -6.847656 1.140625 -7.859375 C 1.421875 -8.878906 1.925781 -9.976562 2.65625 -11.15625 C 3.382812 -12.34375 4.269531 -13.429688 5.3125 -14.421875 C 7.476562 -16.503906 9.828125 -17.847656 12.359375 -18.453125 C 13.097656 -18.617188 13.773438 -18.703125 14.390625 -18.703125 C 15.003906 -18.703125 15.5625 -18.660156 16.0625 -18.578125 C 17.65625 -18.578125 18.726562 -17.488281 19.28125 -15.3125 C 19.632812 -13.945312 19.84375 -12.035156 19.90625 -9.578125 C 19.976562 -7.117188 20.046875 -5.222656 20.109375 -3.890625 C 20.179688 -2.554688 20.359375 -1.34375 20.640625 -0.25 L 18.203125 -0.25 C 18.085938 -0.988281 18.003906 -1.644531 17.953125 -2.21875 C 17.898438 -2.800781 17.847656 -3.335938 17.796875 -3.828125 C 17.648438 -4.984375 17.484375 -5.988281 17.296875 -6.84375 Z M 17.125 -13.21875 C 17.125 -14.8125 16.34375 -15.609375 14.78125 -15.609375 C 14.59375 -15.640625 14.398438 -15.65625 14.203125 -15.65625 C 12.203125 -15.65625 10.085938 -14.691406 7.859375 -12.765625 C 6.816406 -11.890625 5.925781 -10.898438 5.1875 -9.796875 C 4.09375 -8.234375 3.546875 -6.832031 3.546875 -5.59375 C 3.546875 -3.976562 4.476562 -3.019531 6.34375 -2.71875 C 8.8125 -2.769531 11.171875 -3.894531 13.421875 -6.09375 C 14.390625 -7.050781 15.1875 -8.09375 15.8125 -9.21875 C 16.6875 -10.726562 17.125 -12.0625 17.125 -13.21875 Z M 17.125 -13.21875 "/>
      </g>
    </g>
    <g style="fill:#231f20;fill-opacity:1;">
      <g transform="translate(180.467576, 188.851424)">
        <path style="stroke:none" d="M 1.359375 -23.890625 L 1.234375 -29.203125 C 1.234375 -29.640625 1.382812 -29.976562 1.6875 -30.21875 C 1.988281 -30.46875 2.359375 -30.59375 2.796875 -30.59375 C 3.234375 -30.59375 3.628906 -30.476562 3.984375 -30.25 C 4.347656 -30.019531 4.488281 -29.695312 4.40625 -29.28125 L 4.6875 -11.484375 C 6.425781 -13.796875 8.765625 -15.734375 11.703125 -17.296875 C 14.140625 -18.617188 16.28125 -19.28125 18.125 -19.28125 C 19.738281 -19.28125 20.988281 -18.753906 21.875 -17.703125 C 22.53125 -16.878906 22.859375 -15.785156 22.859375 -14.421875 C 22.859375 -13.066406 22.601562 -11.890625 22.09375 -10.890625 C 21.582031 -9.890625 20.914062 -8.925781 20.09375 -8 C 19.269531 -7.082031 18.320312 -6.222656 17.25 -5.421875 C 16.1875 -4.628906 15.101562 -3.921875 14 -3.296875 C 11.914062 -2.085938 9.859375 -1.082031 7.828125 -0.28125 C 7.660156 -0.34375 7.382812 -0.359375 7 -0.328125 C 6.613281 -0.296875 6.144531 -0.28125 5.59375 -0.28125 C 4.113281 -0.28125 2.8125 -0.460938 1.6875 -0.828125 C 1.414062 -3.429688 1.28125 -7.394531 1.28125 -12.71875 Z M 4.8125 -3.671875 C 4.8125 -3.367188 5.09375 -3.21875 5.65625 -3.21875 C 6.21875 -3.21875 6.910156 -3.328125 7.734375 -3.546875 C 8.566406 -3.765625 9.566406 -4.140625 10.734375 -4.671875 C 11.898438 -5.210938 13.070312 -5.90625 14.25 -6.75 C 17 -8.695312 19.070312 -10.988281 20.46875 -13.625 C 20.113281 -15.195312 19.039062 -15.984375 17.25 -15.984375 C 15.632812 -15.984375 13.8125 -15.378906 11.78125 -14.171875 C 8.894531 -12.441406 6.832031 -10.300781 5.59375 -7.75 C 5.070312 -6.726562 4.8125 -5.695312 4.8125 -4.65625 C 4.8125 -4.375 4.8125 -4.148438 4.8125 -3.984375 C 4.8125 -3.828125 4.8125 -3.722656 4.8125 -3.671875 Z M 4.8125 -3.671875 "/>
      </g>
    </g>
    <g style="fill:#231f20;fill-opacity:1;">
      <g transform="translate(204.150307, 188.851424)">
        <path style="stroke:none" d=""/>
      </g>
    </g>
    <g style="fill:#231f20;fill-opacity:1;">
      <g transform="translate(221.037124, 188.851424)">
        <path style="stroke:none" d="M 22.15625 -6.875 C 23.0625 -6.875 23.515625 -6.53125 23.515625 -5.84375 C 23.515625 -5.15625 23.210938 -4.65625 22.609375 -4.34375 C 22.003906 -4.03125 21.320312 -3.800781 20.5625 -3.65625 C 19.8125 -3.519531 19.109375 -3.445312 18.453125 -3.4375 C 17.796875 -3.425781 17.375 -3.398438 17.1875 -3.359375 C 17.007812 -3.316406 16.613281 -3.207031 16 -3.03125 C 15.382812 -2.851562 14.648438 -2.644531 13.796875 -2.40625 C 12.941406 -2.175781 12.019531 -1.921875 11.03125 -1.640625 C 7.9375 -0.816406 5.46875 -0.40625 3.625 -0.40625 C 2.6875 -0.40625 2.0625 -0.550781 1.75 -0.84375 C 1.4375 -1.132812 1.375 -1.539062 1.5625 -2.0625 C 3.625 -3.875 5.765625 -6.207031 7.984375 -9.0625 C 11.304688 -13.3125 12.96875 -16.632812 12.96875 -19.03125 C 12.96875 -19.5 12.898438 -19.9375 12.765625 -20.34375 C 12.460938 -21.195312 11.679688 -21.742188 10.421875 -21.984375 C 9.210938 -21.984375 8.222656 -21.738281 7.453125 -21.25 C 6.679688 -20.757812 5.957031 -20.210938 5.28125 -19.609375 C 4.613281 -19.003906 3.929688 -18.453125 3.234375 -17.953125 C 2.535156 -17.460938 1.675781 -17.21875 0.65625 -17.21875 C 0.6875 -18.125 1.054688 -19 1.765625 -19.84375 C 3.191406 -21.601562 5.210938 -22.867188 7.828125 -23.640625 C 8.753906 -23.941406 9.492188 -24.09375 10.046875 -24.09375 C 10.597656 -24.09375 11.007812 -24.078125 11.28125 -24.046875 C 12.351562 -23.941406 13.273438 -23.554688 14.046875 -22.890625 C 14.816406 -22.234375 15.269531 -21.21875 15.40625 -19.84375 C 15.40625 -15.976562 13.59375 -11.679688 9.96875 -6.953125 C 8.976562 -5.671875 8.003906 -4.476562 7.046875 -3.375 C 7.347656 -3.34375 7.820312 -3.328125 8.46875 -3.328125 C 9.113281 -3.328125 10 -3.484375 11.125 -3.796875 C 12.25 -4.117188 13.441406 -4.503906 14.703125 -4.953125 C 15.960938 -5.410156 17.207031 -5.84375 18.4375 -6.25 C 19.675781 -6.664062 20.914062 -6.875 22.15625 -6.875 Z M 22.15625 -6.875 "/>
      </g>
    </g>
  </g>
</svg>
