<?xml version="1.0"?>
<svg xmlns="http://www.w3.org/2000/svg" xmlns:xlink="http://www.w3.org/1999/xlink" width="500" zoomAndPan="magnify" viewBox="0 0 375 374.999991" height="500" preserveAspectRatio="xMidYMid meet" version="1.2" style="background-color:transparent;">
  <defs>
    <clipPath id="0dcd40571c">
      <path d="M 25.292969 64.429688 L 349.703125 64.429688 L 349.703125 291.515625 L 25.292969 291.515625 Z M 25.292969 64.429688 "/>
    </clipPath>
  </defs>
  <g id="05a16311d9">
    <rect x="0" width="375" y="0" height="374.999991" style="fill:none;fill-opacity:1;stroke:none;" fill="none"/>
    <rect x="0" width="375" y="0" height="374.999991" style="fill:none;fill-opacity:1;stroke:none;" fill="none"/>
    <path style=" stroke:none;fill-rule:nonzero;fill:#231f20;fill-opacity:1;" d="M 262.183594 78.726562 L 262.183594 78.3125 L 262.121094 78.074219 L 262.121094 77.421875 L 264.382812 77.300781 L 264.382812 77.898438 L 264.445312 78.136719 L 264.445312 78.550781 L 264.5 78.789062 L 264.5 79.203125 L 264.558594 79.378906 L 264.558594 79.800781 L 264.621094 80.039062 L 264.621094 80.214844 L 264.683594 80.453125 L 264.683594 80.628906 L 264.738281 80.867188 L 264.738281 81.28125 L 264.796875 81.464844 L 264.796875 81.703125 L 264.859375 81.878906 L 264.859375 82.117188 L 264.921875 82.292969 L 264.972656 82.53125 L 264.972656 82.710938 L 265.035156 82.945312 L 265.035156 83.128906 L 265.097656 83.367188 L 265.097656 83.546875 L 265.15625 83.78125 L 265.210938 83.960938 L 265.210938 84.199219 L 265.273438 84.375 L 265.335938 84.613281 L 265.335938 84.796875 L 265.394531 85.035156 L 265.449219 85.210938 L 265.449219 85.449219 L 265.511719 85.625 L 265.574219 85.863281 L 265.632812 86.039062 L 265.632812 86.277344 L 265.6875 86.460938 L 265.75 86.699219 L 265.808594 86.875 L 265.808594 87.113281 L 265.933594 87.464844 L 265.988281 87.703125 L 266.046875 87.886719 L 266.109375 88.125 L 266.109375 88.300781 L 266.171875 88.539062 L 266.226562 88.714844 L 266.285156 88.953125 L 266.347656 89.128906 L 266.410156 89.3125 L 266.460938 89.550781 L 266.523438 89.730469 L 266.585938 89.964844 L 266.644531 90.144531 L 266.699219 90.378906 L 266.761719 90.558594 L 266.824219 90.742188 L 266.882812 90.980469 L 266.9375 91.15625 L 267 91.394531 L 267.0625 91.570312 L 267.121094 91.746094 L 267.175781 91.984375 L 267.238281 92.167969 L 267.296875 92.34375 L 267.359375 92.582031 L 267.414062 92.757812 L 267.535156 92.996094 L 267.597656 93.171875 L 267.652344 93.355469 L 267.710938 93.59375 L 267.773438 93.773438 L 267.835938 93.949219 L 267.949219 94.1875 L 268.011719 94.363281 L 268.074219 94.546875 L 268.128906 94.785156 L 268.25 94.960938 L 268.3125 95.136719 L 268.363281 95.375 L 268.425781 95.550781 L 268.546875 95.734375 L 268.601562 95.972656 L 268.664062 96.148438 L 268.785156 96.328125 L 268.847656 96.503906 L 268.902344 96.742188 L 269.023438 96.925781 L 269.085938 97.101562 L 269.140625 97.339844 L 269.261719 97.515625 L 269.324219 97.691406 L 269.4375 97.875 L 269.5 98.113281 L 269.5625 98.289062 L 269.675781 98.464844 L 269.738281 98.644531 L 269.851562 98.882812 L 269.914062 99.066406 L 270.035156 99.242188 L 270.089844 99.417969 L 270.214844 99.59375 L 270.273438 99.832031 L 270.390625 100.015625 L 270.453125 100.191406 L 270.566406 100.371094 L 270.628906 100.546875 L 270.75 100.785156 L 270.867188 100.96875 L 270.925781 101.144531 L 271.042969 101.320312 L 271.105469 101.496094 L 271.226562 101.679688 L 271.339844 101.917969 L 271.402344 102.09375 L 271.519531 102.273438 L 271.640625 102.449219 L 271.703125 102.632812 L 271.816406 102.808594 L 271.9375 102.984375 L 272 103.160156 L 272.117188 103.398438 L 272.238281 103.582031 L 272.355469 103.761719 L 272.414062 103.9375 L 272.53125 104.113281 L 272.652344 104.296875 L 272.769531 104.472656 L 272.890625 104.648438 L 272.953125 104.828125 L 273.066406 105.011719 L 273.191406 105.1875 L 273.304688 105.363281 L 273.425781 105.539062 L 273.542969 105.722656 L 273.605469 105.902344 L 273.71875 106.078125 L 273.84375 106.253906 L 273.957031 106.4375 L 274.078125 106.613281 L 274.195312 106.789062 L 274.316406 106.96875 L 274.433594 107.152344 L 274.675781 107.503906 L 274.792969 107.679688 L 274.914062 107.863281 L 275.03125 108.039062 L 275.152344 108.21875 L 275.269531 108.394531 L 275.390625 108.578125 L 275.507812 108.753906 L 275.628906 108.929688 L 275.746094 109.109375 L 275.867188 109.230469 L 275.980469 109.40625 L 276.105469 109.582031 L 276.21875 109.765625 L 276.34375 109.945312 L 276.457031 110.121094 L 276.582031 110.296875 L 276.695312 110.417969 L 276.871094 110.59375 L 276.996094 110.773438 L 277.109375 110.957031 L 277.234375 111.132812 L 277.355469 111.308594 L 277.46875 111.429688 L 277.648438 111.609375 L 277.769531 111.785156 L 277.886719 111.960938 L 278.007812 112.144531 L 278.121094 112.261719 L 278.304688 112.4375 L 278.421875 112.621094 L 278.542969 112.796875 L 278.660156 112.914062 L 278.835938 113.097656 L 278.957031 113.273438 L 279.074219 113.386719 L 279.257812 113.570312 L 279.371094 113.75 L 279.496094 113.863281 L 279.671875 114.046875 L 279.789062 114.222656 L 279.910156 114.339844 L 280.085938 114.523438 L 280.207031 114.699219 L 280.507812 115 L 280.625 115.175781 L 280.800781 115.289062 L 280.921875 115.472656 L 281.039062 115.589844 L 281.222656 115.765625 L 281.335938 115.949219 L 281.511719 116.066406 L 281.636719 116.242188 L 281.8125 116.363281 L 281.933594 116.542969 L 282.109375 116.664062 L 282.226562 116.839844 L 282.410156 116.957031 L 282.527344 117.140625 L 282.703125 117.316406 L 282.824219 117.429688 L 283 117.554688 L 283.125 117.730469 L 283.300781 117.851562 L 283.421875 118.03125 L 283.597656 118.144531 L 283.714844 118.328125 L 283.898438 118.445312 L 284.074219 118.621094 L 284.191406 118.742188 L 284.375 118.859375 L 284.488281 119.042969 L 284.667969 119.15625 L 284.851562 119.332031 L 284.964844 119.457031 L 285.140625 119.570312 L 285.441406 119.871094 L 285.617188 119.992188 L 285.800781 120.167969 L 285.917969 120.285156 L 286.101562 120.40625 L 286.277344 120.585938 L 286.390625 120.707031 L 286.574219 120.820312 L 286.753906 121 L 286.929688 121.121094 L 287.050781 121.238281 L 287.226562 121.359375 L 287.40625 121.535156 L 287.582031 121.65625 L 287.703125 121.773438 L 287.878906 121.894531 L 288.058594 122.011719 L 288.242188 122.1875 L 288.355469 122.308594 L 288.53125 122.425781 L 288.714844 122.546875 L 288.894531 122.664062 L 289.070312 122.785156 L 289.253906 122.960938 L 289.367188 123.085938 L 289.546875 123.199219 L 289.726562 123.324219 L 289.90625 123.4375 L 290.082031 123.558594 L 290.257812 123.675781 L 290.441406 123.796875 L 290.558594 123.914062 L 290.734375 124.035156 L 290.917969 124.152344 L 291.09375 124.273438 L 291.269531 124.390625 L 291.449219 124.511719 L 291.632812 124.628906 L 291.808594 124.75 L 291.984375 124.863281 L 292.167969 124.988281 L 292.34375 125.101562 L 292.519531 125.226562 L 292.699219 125.339844 L 292.882812 125.464844 L 293.058594 125.578125 L 293.234375 125.699219 L 293.410156 125.816406 L 293.59375 125.9375 L 293.769531 126.054688 L 293.949219 126.175781 L 294.125 126.230469 L 294.308594 126.351562 L 294.484375 126.46875 L 294.660156 126.589844 L 294.84375 126.707031 L 295.023438 126.765625 L 295.199219 126.890625 L 295.375 127.003906 L 295.558594 127.128906 L 295.734375 127.242188 L 295.910156 127.304688 L 296.089844 127.417969 L 296.273438 127.542969 L 296.507812 127.65625 L 296.6875 127.71875 L 296.863281 127.839844 L 297.039062 127.957031 L 297.222656 128.019531 L 297.398438 128.132812 L 297.578125 128.253906 L 297.761719 128.316406 L 297.996094 128.433594 L 298.175781 128.554688 L 298.351562 128.609375 L 298.527344 128.730469 L 298.710938 128.792969 L 298.886719 128.90625 L 299.125 129.03125 L 299.300781 129.085938 L 299.480469 129.207031 L 299.664062 129.269531 L 299.839844 129.382812 L 300.078125 129.445312 L 300.253906 129.558594 L 300.4375 129.621094 L 300.613281 129.742188 L 300.789062 129.796875 L 301.027344 129.921875 L 301.203125 129.980469 L 301.386719 130.097656 L 301.566406 130.160156 L 301.804688 130.21875 L 301.980469 130.335938 L 302.15625 130.394531 L 302.339844 130.511719 L 302.578125 130.574219 L 302.753906 130.632812 L 302.929688 130.75 L 303.167969 130.8125 L 303.351562 130.871094 L 303.527344 130.988281 L 303.707031 131.046875 L 303.941406 131.109375 L 304.121094 131.226562 L 304.304688 131.285156 L 304.542969 131.347656 L 304.71875 131.410156 L 304.894531 131.523438 L 305.132812 131.585938 L 305.308594 131.644531 L 305.492188 131.699219 L 305.730469 131.824219 L 305.90625 131.882812 L 306.082031 131.9375 L 306.320312 132 L 306.503906 132.0625 L 306.683594 132.121094 L 306.917969 132.238281 L 307.097656 132.296875 L 307.273438 132.359375 L 307.511719 132.414062 L 307.695312 132.476562 L 307.933594 132.535156 L 308.109375 132.597656 L 308.285156 132.652344 L 308.523438 132.714844 L 308.699219 132.773438 L 308.9375 132.835938 L 309.121094 132.890625 L 309.296875 132.949219 L 309.535156 133.011719 L 309.710938 133.074219 L 309.949219 133.128906 L 310.132812 133.1875 L 310.308594 133.25 L 310.546875 133.3125 L 310.726562 133.367188 L 310.960938 133.425781 L 311.140625 133.488281 L 311.378906 133.550781 L 311.558594 133.550781 L 311.796875 133.601562 L 311.976562 133.664062 L 312.152344 133.726562 L 312.390625 133.785156 L 312.574219 133.839844 L 312.8125 133.839844 L 312.988281 133.902344 L 313.226562 133.964844 L 313.402344 134.023438 L 313.640625 134.023438 L 313.816406 134.078125 L 314.054688 134.140625 L 314.238281 134.203125 L 314.476562 134.203125 L 314.652344 134.261719 L 314.828125 134.316406 L 315.066406 134.316406 L 315.25 134.378906 L 315.488281 134.4375 L 315.664062 134.4375 L 315.902344 134.5 L 316.078125 134.554688 L 316.316406 134.554688 L 316.492188 134.617188 L 316.730469 134.617188 L 316.914062 134.675781 L 317.152344 134.675781 L 317.328125 134.738281 L 317.566406 134.738281 L 317.742188 134.792969 L 317.980469 134.792969 L 318.164062 134.855469 L 318.402344 134.855469 L 318.640625 134.914062 L 318.816406 134.914062 L 319.054688 134.976562 L 319.230469 134.976562 L 319.46875 135.03125 L 319.882812 135.03125 L 320.066406 135.089844 L 320.304688 135.089844 L 320.480469 135.152344 L 320.898438 135.152344 L 321.132812 135.214844 L 321.734375 135.214844 L 321.96875 135.269531 L 322.207031 135.269531 L 322.207031 77.421875 L 324.585938 77.421875 L 324.585938 137.53125 L 321.734375 137.53125 L 321.554688 137.46875 L 321.082031 137.46875 L 320.898438 137.410156 L 320.480469 137.410156 L 320.246094 137.355469 L 319.828125 137.355469 L 319.59375 137.292969 L 319.410156 137.292969 L 319.171875 137.230469 L 318.757812 137.230469 L 318.519531 137.171875 L 318.339844 137.171875 L 318.105469 137.117188 L 317.925781 137.117188 L 317.691406 137.054688 L 317.445312 137.054688 L 317.269531 136.992188 L 317.03125 136.992188 L 316.855469 136.933594 L 316.617188 136.933594 L 316.4375 136.878906 L 316.203125 136.816406 L 315.964844 136.816406 L 315.78125 136.757812 L 315.542969 136.757812 L 315.367188 136.695312 L 315.128906 136.640625 L 314.949219 136.640625 L 314.714844 136.578125 L 314.53125 136.519531 L 314.292969 136.519531 L 314.054688 136.457031 L 313.878906 136.402344 L 313.640625 136.339844 L 313.464844 136.339844 L 313.226562 136.28125 L 313.046875 136.21875 L 312.8125 136.164062 L 312.628906 136.164062 L 312.390625 136.105469 L 312.210938 136.042969 L 311.976562 135.980469 L 311.796875 135.925781 L 311.558594 135.925781 L 311.378906 135.867188 L 311.140625 135.804688 L 310.960938 135.742188 L 310.726562 135.6875 L 310.546875 135.628906 L 310.308594 135.566406 L 310.132812 135.503906 L 309.894531 135.453125 L 309.710938 135.453125 L 309.472656 135.390625 L 309.296875 135.328125 L 309.058594 135.269531 L 308.882812 135.214844 L 308.644531 135.152344 L 308.460938 135.089844 L 308.222656 135.03125 L 308.046875 134.976562 L 307.808594 134.855469 L 307.632812 134.792969 L 307.394531 134.738281 L 307.21875 134.675781 L 307.035156 134.617188 L 306.796875 134.554688 L 306.621094 134.5 L 306.382812 134.4375 L 306.207031 134.378906 L 305.96875 134.316406 L 305.785156 134.203125 L 305.609375 134.140625 L 305.371094 134.078125 L 305.195312 134.023438 L 304.957031 133.964844 L 304.777344 133.839844 L 304.542969 133.785156 L 304.359375 133.726562 L 304.179688 133.664062 L 303.941406 133.550781 L 303.589844 133.425781 L 303.351562 133.367188 L 303.167969 133.25 L 302.929688 133.1875 L 302.753906 133.128906 L 302.578125 133.011719 L 302.339844 132.949219 L 302.15625 132.890625 L 301.980469 132.773438 L 301.742188 132.714844 L 301.566406 132.597656 L 301.386719 132.535156 L 301.152344 132.476562 L 300.96875 132.359375 L 300.789062 132.296875 L 300.550781 132.175781 L 300.375 132.121094 L 300.191406 132 L 300.015625 131.9375 L 299.777344 131.824219 L 299.601562 131.761719 L 299.425781 131.644531 L 299.1875 131.585938 L 299.003906 131.460938 L 298.828125 131.410156 L 298.648438 131.285156 L 298.414062 131.171875 L 298.234375 131.109375 L 298.050781 130.988281 L 297.875 130.933594 L 297.636719 130.8125 L 297.460938 130.695312 L 297.277344 130.632812 L 297.101562 130.511719 L 296.863281 130.457031 L 296.6875 130.335938 L 296.507812 130.21875 L 296.328125 130.097656 L 296.148438 130.035156 L 295.972656 129.921875 L 295.734375 129.796875 L 295.558594 129.742188 L 295.375 129.621094 L 295.199219 129.507812 L 295.023438 129.382812 L 294.84375 129.324219 L 294.605469 129.207031 L 294.421875 129.085938 L 294.246094 128.96875 L 294.070312 128.847656 L 293.886719 128.792969 L 293.710938 128.671875 L 293.535156 128.554688 L 293.355469 128.433594 L 293.117188 128.316406 L 292.9375 128.195312 L 292.757812 128.078125 L 292.582031 127.957031 L 292.40625 127.894531 L 292.222656 127.78125 L 292.046875 127.65625 L 291.867188 127.542969 L 291.691406 127.417969 L 291.507812 127.304688 L 291.332031 127.183594 L 291.15625 127.066406 L 290.972656 126.945312 L 290.796875 126.828125 L 290.617188 126.707031 L 290.441406 126.589844 L 290.257812 126.46875 L 290.082031 126.351562 L 289.90625 126.230469 L 289.726562 126.117188 L 289.546875 125.992188 L 289.367188 125.878906 L 289.191406 125.699219 L 289.015625 125.578125 L 288.832031 125.464844 L 288.65625 125.339844 L 288.476562 125.226562 L 288.292969 125.101562 L 288.117188 124.988281 L 288.003906 124.863281 L 287.820312 124.6875 L 287.640625 124.566406 L 287.464844 124.449219 L 287.289062 124.328125 L 287.105469 124.210938 L 286.929688 124.035156 L 286.753906 123.914062 L 286.628906 123.796875 L 286.453125 123.675781 L 286.277344 123.5 L 286.101562 123.375 L 285.917969 123.261719 L 285.800781 123.140625 L 285.617188 122.960938 L 285.441406 122.847656 L 285.265625 122.722656 L 285.085938 122.546875 L 284.964844 122.425781 L 284.789062 122.308594 L 284.613281 122.132812 L 284.429688 122.011719 L 284.3125 121.894531 L 284.136719 121.710938 L 283.953125 121.597656 L 283.777344 121.421875 L 283.660156 121.296875 L 283.476562 121.183594 L 283.300781 121 L 283.183594 120.882812 L 283 120.707031 L 282.824219 120.585938 L 282.703125 120.46875 L 282.527344 120.285156 L 282.347656 120.167969 L 282.226562 119.992188 L 282.050781 119.871094 L 281.933594 119.695312 L 281.75 119.570312 L 281.277344 119.097656 L 281.160156 118.917969 L 280.984375 118.804688 L 280.386719 118.207031 L 280.207031 118.03125 L 280.085938 117.851562 L 279.910156 117.730469 L 279.789062 117.554688 L 279.609375 117.429688 L 279.496094 117.253906 L 279.3125 117.078125 L 279.195312 116.957031 L 279.019531 116.777344 L 278.898438 116.601562 L 278.78125 116.480469 L 278.597656 116.304688 L 278.484375 116.125 L 278.304688 116.003906 L 278.183594 115.828125 L 278.066406 115.652344 L 277.886719 115.472656 L 277.769531 115.351562 L 277.59375 115.175781 L 277.46875 115 L 277.355469 114.875 L 277.171875 114.699219 L 277.054688 114.523438 L 276.933594 114.339844 L 276.757812 114.164062 L 276.632812 114.046875 L 276.519531 113.863281 L 276.398438 113.6875 L 276.21875 113.511719 L 276.105469 113.335938 L 275.980469 113.210938 L 275.867188 113.035156 L 275.683594 112.859375 L 275.566406 112.675781 L 275.445312 112.5 L 275.328125 112.320312 L 275.03125 112.023438 L 274.914062 111.847656 L 274.792969 111.667969 L 274.675781 111.484375 L 274.433594 111.132812 L 274.257812 110.957031 L 274.140625 110.773438 L 274.019531 110.59375 L 273.902344 110.417969 L 273.78125 110.242188 L 273.664062 110.058594 L 273.542969 109.882812 L 273.425781 109.707031 L 273.304688 109.527344 L 273.191406 109.34375 L 273.066406 109.167969 L 272.953125 108.992188 L 272.828125 108.816406 L 272.714844 108.632812 L 272.589844 108.457031 L 272.476562 108.277344 L 272.355469 108.101562 L 272.238281 107.917969 L 272.117188 107.742188 L 272 107.566406 L 271.878906 107.386719 L 271.761719 107.203125 L 271.519531 106.851562 L 271.402344 106.675781 L 271.28125 106.492188 L 271.226562 106.316406 L 271.105469 106.136719 L 270.988281 105.902344 L 270.867188 105.722656 L 270.75 105.539062 L 270.628906 105.363281 L 270.566406 105.1875 L 270.453125 105.011719 L 270.328125 104.828125 L 270.214844 104.648438 L 270.089844 104.414062 L 270.035156 104.234375 L 269.914062 104.058594 L 269.800781 103.875 L 269.675781 103.699219 L 269.617188 103.523438 L 269.5 103.285156 L 269.378906 103.109375 L 269.324219 102.925781 L 269.199219 102.746094 L 269.085938 102.570312 L 269.023438 102.332031 L 268.902344 102.15625 L 268.785156 101.972656 L 268.726562 101.796875 L 268.601562 101.558594 L 268.546875 101.382812 L 268.425781 101.207031 L 268.3125 101.023438 L 268.25 100.785156 L 268.128906 100.605469 L 268.074219 100.429688 L 267.949219 100.253906 L 267.890625 100.015625 L 267.773438 99.832031 L 267.710938 99.65625 L 267.597656 99.417969 L 267.535156 99.242188 L 267.414062 99.066406 L 267.359375 98.828125 L 267.238281 98.644531 L 267.175781 98.464844 L 267.121094 98.230469 L 267 98.050781 L 266.9375 97.875 L 266.824219 97.636719 L 266.761719 97.453125 L 266.699219 97.277344 L 266.585938 97.039062 L 266.460938 96.6875 L 266.347656 96.449219 L 266.285156 96.265625 L 266.226562 96.089844 L 266.109375 95.851562 L 266.046875 95.675781 L 265.988281 95.4375 L 265.933594 95.257812 L 265.808594 95.074219 L 265.75 94.839844 L 265.6875 94.660156 L 265.632812 94.421875 L 265.574219 94.246094 L 265.449219 94.070312 L 265.394531 93.832031 L 265.335938 93.648438 L 265.273438 93.410156 L 265.210938 93.234375 L 265.15625 92.996094 L 265.097656 92.820312 L 264.972656 92.644531 L 264.921875 92.40625 L 264.859375 92.222656 L 264.796875 91.984375 L 264.738281 91.808594 L 264.683594 91.570312 L 264.621094 91.394531 L 264.558594 91.15625 L 264.5 90.980469 L 264.445312 90.742188 L 264.382812 90.558594 L 264.320312 90.320312 L 264.261719 90.144531 L 264.207031 89.90625 L 264.144531 89.730469 L 264.085938 89.550781 L 264.023438 89.3125 L 263.96875 89.128906 L 263.90625 88.894531 L 263.90625 88.65625 L 263.847656 88.476562 L 263.785156 88.242188 L 263.730469 88.0625 L 263.667969 87.824219 L 263.609375 87.648438 L 263.609375 87.410156 L 263.546875 87.226562 L 263.492188 86.988281 L 263.433594 86.8125 L 263.371094 86.574219 L 263.371094 86.398438 L 263.308594 86.160156 L 263.253906 85.984375 L 263.195312 85.746094 L 263.195312 85.5625 L 263.070312 85.085938 L 263.070312 84.910156 L 263.019531 84.671875 L 262.957031 84.496094 L 262.957031 84.257812 L 262.894531 84.082031 L 262.835938 83.84375 L 262.835938 83.660156 L 262.773438 83.421875 L 262.773438 83.183594 L 262.71875 83.007812 L 262.71875 82.769531 L 262.65625 82.59375 L 262.597656 82.355469 L 262.597656 82.179688 L 262.535156 81.941406 L 262.535156 81.703125 L 262.480469 81.519531 L 262.480469 81.105469 L 262.417969 80.867188 L 262.417969 80.628906 L 262.359375 80.453125 L 262.359375 80.214844 L 262.296875 80.039062 L 262.296875 79.5625 L 262.242188 79.378906 L 262.242188 78.964844 Z M 262.183594 78.726562 "/>
    <g clip-rule="nonzero" clip-path="url(#0dcd40571c)">
      <path style=" stroke:none;fill-rule:nonzero;fill:#231f20;fill-opacity:1;" d="M 25.289062 291.515625 L 25.289062 64.457031 L 262.121094 64.457031 L 262.121094 77.421875 L 38.316406 77.421875 L 38.316406 278.558594 L 336.722656 278.558594 L 336.722656 77.421875 L 324.585938 77.421875 L 324.585938 64.457031 L 349.695312 64.457031 L 349.695312 291.515625 Z M 25.289062 291.515625 "/>
    </g>
    <g style="fill:#231f20;fill-opacity:1;">
      <g transform="translate(131.154284, 188.851424)">
        <path style="stroke:none" d="M 3.296875 -18 L 3.21875 -28.25 L 6.5 -28.125 L 6.140625 -4 L 27.84375 -3.375 C 28.28125 -3.238281 28.5 -3.003906 28.5 -2.671875 C 28.5 -2.347656 28.289062 -2.003906 27.875 -1.640625 C 27.082031 -0.929688 26.175781 -0.578125 25.15625 -0.578125 C 24.914062 -0.578125 24.65625 -0.601562 24.375 -0.65625 L 2.265625 -0.859375 C 2.953125 -3.410156 3.296875 -9.125 3.296875 -18 Z M 3.296875 -18 "/>
      </g>
    </g>
    <g style="fill:#231f20;fill-opacity:1;">
      <g transform="translate(160.356121, 188.851424)">
        <path style="stroke:none" d="M 17.296875 -6.84375 C 15.234375 -3.601562 12.488281 -1.597656 9.0625 -0.828125 C 8.257812 -0.660156 7.535156 -0.578125 6.890625 -0.578125 C 6.253906 -0.578125 5.722656 -0.582031 5.296875 -0.59375 C 4.867188 -0.613281 4.394531 -0.675781 3.875 -0.78125 C 3.351562 -0.894531 2.875 -1.070312 2.4375 -1.3125 C 1.414062 -1.894531 0.90625 -2.707031 0.90625 -3.75 C 0.789062 -4.238281 0.734375 -4.789062 0.734375 -5.40625 C 0.734375 -6.03125 0.867188 -6.847656 1.140625 -7.859375 C 1.421875 -8.878906 1.925781 -9.976562 2.65625 -11.15625 C 3.382812 -12.34375 4.269531 -13.429688 5.3125 -14.421875 C 7.476562 -16.503906 9.828125 -17.847656 12.359375 -18.453125 C 13.097656 -18.617188 13.773438 -18.703125 14.390625 -18.703125 C 15.003906 -18.703125 15.5625 -18.660156 16.0625 -18.578125 C 17.65625 -18.578125 18.726562 -17.488281 19.28125 -15.3125 C 19.632812 -13.945312 19.84375 -12.035156 19.90625 -9.578125 C 19.976562 -7.117188 20.046875 -5.222656 20.109375 -3.890625 C 20.179688 -2.554688 20.359375 -1.34375 20.640625 -0.25 L 18.203125 -0.25 C 18.085938 -0.988281 18.003906 -1.644531 17.953125 -2.21875 C 17.898438 -2.800781 17.847656 -3.335938 17.796875 -3.828125 C 17.648438 -4.984375 17.484375 -5.988281 17.296875 -6.84375 Z M 17.125 -13.21875 C 17.125 -14.8125 16.34375 -15.609375 14.78125 -15.609375 C 14.59375 -15.640625 14.398438 -15.65625 14.203125 -15.65625 C 12.203125 -15.65625 10.085938 -14.691406 7.859375 -12.765625 C 6.816406 -11.890625 5.925781 -10.898438 5.1875 -9.796875 C 4.09375 -8.234375 3.546875 -6.832031 3.546875 -5.59375 C 3.546875 -3.976562 4.476562 -3.019531 6.34375 -2.71875 C 8.8125 -2.769531 11.171875 -3.894531 13.421875 -6.09375 C 14.390625 -7.050781 15.1875 -8.09375 15.8125 -9.21875 C 16.6875 -10.726562 17.125 -12.0625 17.125 -13.21875 Z M 17.125 -13.21875 "/>
      </g>
    </g>
    <g style="fill:#231f20;fill-opacity:1;">
      <g transform="translate(181.814735, 188.851424)">
        <path style="stroke:none" d="M 1.359375 -23.890625 L 1.234375 -29.203125 C 1.234375 -29.640625 1.382812 -29.976562 1.6875 -30.21875 C 1.988281 -30.46875 2.359375 -30.59375 2.796875 -30.59375 C 3.234375 -30.59375 3.628906 -30.476562 3.984375 -30.25 C 4.347656 -30.019531 4.488281 -29.695312 4.40625 -29.28125 L 4.6875 -11.484375 C 6.425781 -13.796875 8.765625 -15.734375 11.703125 -17.296875 C 14.140625 -18.617188 16.28125 -19.28125 18.125 -19.28125 C 19.738281 -19.28125 20.988281 -18.753906 21.875 -17.703125 C 22.53125 -16.878906 22.859375 -15.785156 22.859375 -14.421875 C 22.859375 -13.066406 22.601562 -11.890625 22.09375 -10.890625 C 21.582031 -9.890625 20.914062 -8.925781 20.09375 -8 C 19.269531 -7.082031 18.320312 -6.222656 17.25 -5.421875 C 16.1875 -4.628906 15.101562 -3.921875 14 -3.296875 C 11.914062 -2.085938 9.859375 -1.082031 7.828125 -0.28125 C 7.660156 -0.34375 7.382812 -0.359375 7 -0.328125 C 6.613281 -0.296875 6.144531 -0.28125 5.59375 -0.28125 C 4.113281 -0.28125 2.8125 -0.460938 1.6875 -0.828125 C 1.414062 -3.429688 1.28125 -7.394531 1.28125 -12.71875 Z M 4.8125 -3.671875 C 4.8125 -3.367188 5.09375 -3.21875 5.65625 -3.21875 C 6.21875 -3.21875 6.910156 -3.328125 7.734375 -3.546875 C 8.566406 -3.765625 9.566406 -4.140625 10.734375 -4.671875 C 11.898438 -5.210938 13.070312 -5.90625 14.25 -6.75 C 17 -8.695312 19.070312 -10.988281 20.46875 -13.625 C 20.113281 -15.195312 19.039062 -15.984375 17.25 -15.984375 C 15.632812 -15.984375 13.8125 -15.378906 11.78125 -14.171875 C 8.894531 -12.441406 6.832031 -10.300781 5.59375 -7.75 C 5.070312 -6.726562 4.8125 -5.695312 4.8125 -4.65625 C 4.8125 -4.375 4.8125 -4.148438 4.8125 -3.984375 C 4.8125 -3.828125 4.8125 -3.722656 4.8125 -3.671875 Z M 4.8125 -3.671875 "/>
      </g>
    </g>
    <g style="fill:#231f20;fill-opacity:1;">
      <g transform="translate(205.497466, 188.851424)">
        <path style="stroke:none" d=""/>
      </g>
    </g>
    <g style="fill:#231f20;fill-opacity:1;">
      <g transform="translate(222.384283, 188.851424)">
        <path style="stroke:none" d="M 19.84375 -20.875 C 19.84375 -19.226562 18.523438 -17.296875 15.890625 -15.078125 C 15.234375 -14.554688 14.671875 -14.085938 14.203125 -13.671875 C 17.585938 -13.617188 19.609375 -12.820312 20.265625 -11.28125 C 20.398438 -10.925781 20.46875 -10.554688 20.46875 -10.171875 C 20.46875 -9.785156 20.363281 -9.269531 20.15625 -8.625 C 19.945312 -7.976562 19.515625 -7.21875 18.859375 -6.34375 C 18.203125 -5.46875 17.40625 -4.613281 16.46875 -3.78125 C 14.519531 -2.082031 12.460938 -0.90625 10.296875 -0.25 C 9.554688 -0.03125 8.957031 0.078125 8.5 0.078125 C 8.050781 0.078125 7.6875 0.0703125 7.40625 0.0625 C 7.132812 0.0507812 6.847656 -0.0351562 6.546875 -0.203125 C 6.242188 -0.367188 6.09375 -0.644531 6.09375 -1.03125 C 8.15625 -1.550781 9.96875 -2.289062 11.53125 -3.25 C 13.09375 -4.207031 14.328125 -5.210938 15.234375 -6.265625 C 16.304688 -7.554688 16.84375 -8.625 16.84375 -9.46875 C 16.84375 -10.320312 16.582031 -10.898438 16.0625 -11.203125 C 15.539062 -11.503906 14.867188 -11.65625 14.046875 -11.65625 C 11.953125 -11.65625 9.109375 -10.800781 5.515625 -9.09375 L 4.078125 -10.953125 C 12.398438 -14.796875 16.5625 -17.554688 16.5625 -19.234375 C 16.5625 -19.941406 15.773438 -20.410156 14.203125 -20.640625 C 12.585938 -20.640625 10.742188 -20.363281 8.671875 -19.8125 C 6.597656 -19.257812 5 -18.859375 3.875 -18.609375 C 2.75 -18.367188 1.59375 -18.25 0.40625 -18.25 C 0.40625 -19.539062 0.722656 -20.296875 1.359375 -20.515625 C 2.515625 -20.785156 3.738281 -21.085938 5.03125 -21.421875 C 9.25 -22.484375 12.628906 -23.015625 15.171875 -23.015625 C 17.710938 -23.015625 19.269531 -22.300781 19.84375 -20.875 Z M 19.84375 -20.875 "/>
      </g>
    </g>
  </g>
</svg>
