<svg width="147" height="135" viewBox="0 0 147 135" fill="none" xmlns="http://www.w3.org/2000/svg">
<path d="M1.98376 84.1316C-3.76 96.1928 17.0471 122.403 28.1685 134H146V78.7177C146 71.3728 137.539 69.6827 135.019 69.4399C126.995 68.6668 121.927 73.6923 119.815 78.7177V72.1459C119.815 68.6668 115.17 61.7084 107.145 62.095C99.0475 62.4851 95.0382 68.7956 94.0528 72.1459V66.7339C94.0528 62.4815 89.4071 54.3634 80.1157 55.1366C71.0245 55.8931 67.5864 62.7392 67.0233 66.7339V10.6818C64.4893 2.17559 55.761 1.01796 52.6639 1.01743C45.0619 0.629266 38.7268 6.81409 38.7268 10.6818V99.2081C28.8724 89.1571 7.72752 72.0704 1.98376 84.1316Z" fill="#14AE5C" stroke="white" stroke-width="2"/>
<path d="M90.5786 72.3168C95.4876 74.9027 108.156 77.5921 119.557 67.6621" stroke="white" stroke-width="2"/>
<path d="M97.8438 74.3881C92.9348 82.6631 90.2428 111.281 106.395 110.591C117.321 110.591 124.447 92.4897 113.046 71.9746" stroke="white" stroke-width="2"/>
<path d="M107.207 109.039C98.0854 108.625 96.7552 95.4193 97.2303 88.8682L110.69 80.7656C120.192 97.3156 112.116 109.039 107.207 109.039Z" fill="white" stroke="white" stroke-width="2"/>
<path d="M97.7042 94.2122C95.4239 82.4893 101.663 77.4898 104.355 76.9727C109.422 76.9727 113.698 82.8996 113.698 94.2122C113.698 104.384 106.73 106.28 106.572 106.28C106.255 106.28 100.555 108.866 97.7042 94.2122Z" fill="#14AE5C" stroke="white" stroke-width="2"/>
<path d="M106.256 83.5039C107.045 83.5039 107.814 84.2829 107.814 85.417C107.814 86.5514 107.045 87.3311 106.256 87.3311C105.467 87.331 104.697 86.5514 104.697 85.417C104.697 84.2829 105.467 83.5039 106.256 83.5039Z" fill="white" stroke="white"/>
<path d="M103.564 89.0215C103.948 89.0215 104.33 89.3741 104.331 89.9004C104.331 90.4268 103.948 90.7803 103.564 90.7803C103.18 90.7801 102.797 90.4267 102.797 89.9004C102.797 89.3743 103.18 89.0216 103.564 89.0215Z" fill="white" stroke="white"/>
<path d="M71.4185 72.1469C66.5095 74.7328 53.8411 77.4222 42.4396 67.4922" stroke="white" stroke-width="2"/>
<path d="M64.1518 74.2163C69.0608 82.4913 71.7529 111.109 55.6006 110.419C44.6743 110.419 37.5483 92.3178 48.9498 71.8027" stroke="white" stroke-width="2"/>
<path d="M55.4633 108.624C64.5848 108.211 65.915 95.0052 65.4399 88.4542L51.9795 80.3516C42.478 96.9016 50.5542 108.624 55.4633 108.624Z" fill="white" stroke="white" stroke-width="2"/>
<path d="M64.965 93.7982C67.2453 82.0753 61.0061 77.0758 58.3139 76.5586C53.2465 76.5586 48.9708 82.4855 48.9708 93.7982C48.9708 103.97 55.9386 105.866 56.0969 105.866C56.4137 105.866 62.1145 108.452 64.965 93.7982Z" fill="#14AE5C" stroke="white" stroke-width="2"/>
<path d="M55.7412 83.334C54.9522 83.334 54.1828 84.1129 54.1826 85.2471C54.1826 86.3814 54.9521 87.1611 55.7412 87.1611C56.5304 87.1611 57.2998 86.3814 57.2998 85.2471C57.2996 84.113 56.5303 83.334 55.7412 83.334Z" fill="white" stroke="white"/>
<path d="M58.4321 88.8516C58.0478 88.8516 57.6657 89.2042 57.6655 89.7305C57.6655 90.2569 58.0478 90.6104 58.4321 90.6104C58.8164 90.6102 59.1987 90.2568 59.1987 89.7305C59.1986 89.2043 58.8164 88.8517 58.4321 88.8516Z" fill="white" stroke="white"/>
<path d="M139.392 81.4541C139.373 81.4014 139.383 81.4434 139.547 81.6621C139.687 81.848 139.872 82.0759 140.107 82.3711C140.566 82.947 141.166 83.7132 141.75 84.6201C142.87 86.3635 143.992 88.7264 143.899 91.4268L143.886 91.6885C143.821 92.7134 143.12 93.4146 142.414 93.8574C141.694 94.3084 140.785 94.6154 139.888 94.8184C138.119 95.2189 136.047 95.2898 134.893 95.0107L133.677 94.7168L134.232 93.5957C134.413 93.2295 134.665 92.5211 134.961 91.5479C135.251 90.5951 135.566 89.448 135.878 88.2451C136.503 85.8402 137.11 83.2401 137.478 81.582L138.216 78.252L139.392 81.4541Z" fill="#14AE5C" stroke="white" stroke-width="2"/>
<path d="M135.515 94.5654L135.674 94.8564C136.038 95.572 136.347 96.5332 136.594 97.5713C136.881 98.7793 137.101 100.172 137.214 101.566C137.326 102.958 137.335 104.38 137.184 105.642C137.045 106.796 136.761 107.933 136.207 108.776L136.093 108.941C135.466 109.794 134.477 109.916 133.682 109.827C132.876 109.737 132.006 109.414 131.214 109.036C129.623 108.276 128.037 107.145 127.331 106.504L126.6 105.84L127.254 105.1C130.577 101.348 132.963 96.5823 133.727 94.6982L134.486 92.8242L135.515 94.5654Z" stroke="white" stroke-width="2"/>
<path d="M126.934 106.369C127.265 106.35 127.511 106.481 127.666 106.605L127.79 106.722L127.897 106.858C127.989 106.996 128.036 107.126 128.054 107.174C128.095 107.282 128.131 107.402 128.162 107.521C128.225 107.761 128.286 108.063 128.341 108.4C128.452 109.078 128.546 109.954 128.567 110.866C128.588 111.771 128.538 112.755 128.339 113.631C128.161 114.419 127.825 115.288 127.147 115.855L127.006 115.965C126.403 116.403 125.615 116.568 124.884 116.626C124.127 116.686 123.286 116.639 122.464 116.541C120.819 116.344 119.12 115.924 118.049 115.595L115.919 114.94L117.825 113.783C121.88 111.321 123.896 109.483 124.924 108.344C125.435 107.777 125.714 107.372 125.894 107.112C125.954 107.025 126.092 106.815 126.242 106.675C126.317 106.605 126.556 106.392 126.934 106.369Z" stroke="white" stroke-width="2"/>
<path d="M117.445 115.662C118.24 117.285 118.097 119.357 117.423 121.133C116.786 122.809 115.605 124.416 113.972 125.293L113.639 125.458C111.989 126.214 110.066 125.612 108.583 124.864C107.036 124.084 105.62 122.968 104.776 122.173L103.408 120.882L105.244 120.47C109.353 119.549 114.098 116.644 115.96 115.292L116.923 114.594L117.445 115.662Z" stroke="white" stroke-width="2"/>
<path d="M104.149 122.736C102.984 125.183 101.577 126.927 99.8433 128.146C98.2229 129.284 96.3802 129.92 94.3198 130.291L93.9048 130.362C91.838 130.696 89.9262 129.887 88.4526 128.876C87.1564 127.986 86.1006 126.875 85.4292 125.997L85.1655 125.637L84.0698 124.065H85.9858C95.1283 124.065 101.082 122.243 102.811 121.406L105.374 120.167L104.149 122.736Z" stroke="white" stroke-width="2"/>
<path d="M69.3501 122.443C74.714 123.258 81.9219 123.351 84.8579 123.294L86.3774 123.265L85.8032 124.672C85.5601 125.267 85.0511 125.851 84.4946 126.366C83.9142 126.903 83.1859 127.451 82.3853 127.96C80.8938 128.909 79.0657 129.78 77.3462 130.195L77.0044 130.272C76.0525 130.47 75.088 130.234 74.229 129.848C73.3613 129.457 72.5072 128.869 71.7241 128.225C70.1576 126.935 68.7495 125.31 67.9233 124.201L67.1196 123.123L68.3843 122.664L68.8589 122.491L69.0981 122.404L69.3501 122.443Z" fill="#14AE5C" stroke="white" stroke-width="2"/>
<path d="M39.4243 109.079C43.6638 113.011 46.1672 114.675 47.5903 115.439C48.2939 115.817 48.744 115.982 49.0601 116.104C49.194 116.156 49.4193 116.242 49.6079 116.368C49.8332 116.519 50.0297 116.739 50.1323 117.04L50.1704 117.174L50.189 117.282C50.22 117.529 50.1597 117.733 50.1118 117.851C50.0545 117.992 49.978 118.104 49.9194 118.181C49.8019 118.334 49.6549 118.473 49.519 118.589C49.2388 118.828 48.8578 119.095 48.4263 119.364C47.5554 119.908 46.375 120.53 45.1313 121.056C43.8965 121.578 42.5421 122.03 41.3364 122.195C40.2901 122.339 38.9947 122.315 38.145 121.495L37.981 121.32C37.4236 120.663 37.1439 119.735 36.9927 118.826C36.8365 117.887 36.7947 116.82 36.8179 115.756C36.8642 113.627 37.1733 111.389 37.4448 109.97L37.4985 109.69L37.6909 109.48L38.0073 109.136L38.687 108.396L39.4243 109.079Z" stroke="white" stroke-width="2"/>
<path d="M51.2817 116.85L51.9136 117.161C58.472 120.334 65.8051 121.888 68.6978 122.268L70.3745 122.488L69.3726 123.851C68.6442 124.842 66.9911 126.393 64.9009 127.632C62.9397 128.795 60.4649 129.76 57.8931 129.637L57.3774 129.598C56.0984 129.463 55.027 128.796 54.1587 127.921C53.2934 127.049 52.5815 125.924 52.0044 124.752C50.8508 122.409 50.1466 119.698 49.8452 117.908L49.5171 115.96L51.2817 116.85Z" stroke="white" stroke-width="2"/>
<path d="M30.0554 98.3672C32.1489 101.997 34.2368 104.52 35.7917 106.15C36.5692 106.965 37.2166 107.56 37.6697 107.962C37.7833 108.063 37.8852 108.152 37.9753 108.23C38.0637 108.308 38.145 108.379 38.2117 108.438C38.2745 108.494 38.3453 108.557 38.4031 108.615C38.4298 108.642 38.4769 108.693 38.5242 108.755C38.5475 108.786 38.5889 108.842 38.6277 108.918C38.6577 108.977 38.74 109.148 38.74 109.384C38.7398 109.822 38.4651 110.078 38.4285 110.113C38.3476 110.191 38.2701 110.24 38.2351 110.261C38.158 110.307 38.0829 110.34 38.0388 110.358C37.9404 110.4 37.8231 110.44 37.7039 110.478C37.4582 110.555 37.1235 110.646 36.7302 110.737C35.9429 110.921 34.8772 111.118 33.7537 111.22C32.6403 111.321 31.4128 111.334 30.3279 111.115C29.3324 110.915 28.2786 110.481 27.6501 109.556L27.53 109.364C27.101 108.617 26.9274 107.687 26.8767 106.768C26.8251 105.831 26.8964 104.81 27.03 103.812C27.2972 101.816 27.8284 99.8073 28.239 98.5557L28.9373 96.4277L30.0554 98.3672Z" stroke="white" stroke-width="2"/>
<path d="M22.9609 83.1787C26.128 89.0402 35.6293 124.382 82.9772 123.347C95.1705 124.554 133.175 118.003 137.609 80.9375" stroke="white" stroke-width="2"/>
<path d="M81.2357 95.246C76.6751 94.9702 75.6405 97.4297 75.6933 98.6939C75.6933 100.763 79.8105 104.9 82.1858 105.073C84.5611 105.245 88.52 98.6939 87.2531 97.3149C85.9863 95.9359 86.9364 95.5908 81.2357 95.246Z" fill="#117A42" stroke="white" stroke-width="2"/>
</svg>
