<svg width="344" height="186" viewBox="0 0 344 186" fill="none" xmlns="http://www.w3.org/2000/svg">
<rect width="344" height="186" fill="#444444"/>
<path d="M90.9688 85.9844L86.7969 85.8906C85.7031 85.8906 84.4375 86 83 86.2188C82.9375 87.4375 82.8125 89.0156 82.625 90.9531C81.9688 97.8281 81.6406 102.297 81.6406 104.359C81.6406 106.391 81.6719 107.828 81.7344 108.672L77.3281 109L78.7812 85.8438L68.7969 85.2812C68.5469 85.2812 68.3438 85.0781 68.1875 84.6719C68.0625 84.2656 68 83.8906 68 83.5469C68 83.2031 68.1406 82.8281 68.4219 82.4219C68.7031 82.0156 69.0312 81.8125 69.4062 81.8125C71.6875 81.9062 73.9844 82.0625 76.2969 82.2812C80.5781 82.6562 84.2188 82.8438 87.2188 82.8438L90.125 82.75C92.4062 82.6875 94.6719 82.4375 96.9219 82C97.4219 82.0938 97.7344 82.875 97.8594 84.3438C97.8906 84.6562 97.9062 84.9062 97.9062 85.0938C95.8438 85.6875 93.5312 85.9844 90.9688 85.9844ZM123.641 91.8438H124.953C125.484 91.8438 125.984 91.8906 126.453 91.9844C126.953 92.0781 127.203 92.4219 127.203 93.0156C127.422 94.2656 126.688 94.875 125 94.8438C124.531 94.8125 124.094 94.7812 123.688 94.75C123.312 94.7188 123 94.7188 122.75 94.75C122.5 94.75 122.391 94.8281 122.422 94.9844C122.734 95.8906 123.062 96.9062 123.406 98.0312C123.781 99.1562 124.188 100.281 124.625 101.406C125.75 104.188 126.812 106.188 127.812 107.406C127.281 108.062 126.656 108.609 125.938 109.047C125.25 109.484 124.875 109.703 124.812 109.703C124.781 109.703 124.75 109.688 124.719 109.656L118.109 95.7344L105.312 98.875L104.844 100.844C103.938 104.438 102.922 106.938 101.797 108.344C101.609 108.656 101.219 108.688 100.625 108.438C99.625 108.062 99.125 107.75 99.125 107.5C99.125 107.438 99.4531 106.531 100.109 104.781C100.766 103.031 101.422 101.266 102.078 99.4844C102.766 97.6719 103.469 95.7812 104.188 93.8125C104.938 91.8438 105.641 89.9688 106.297 88.1875C106.953 86.4062 107.547 84.8125 108.078 83.4062C108.609 81.9688 108.984 80.9375 109.203 80.3125C109.422 79.6562 109.562 79.0938 109.625 78.625C109.719 78.125 109.844 77.7031 110 77.3594C110.312 76.6406 111.094 76.2812 112.344 76.2812C113.688 77.0312 114.719 78.0156 115.438 79.2344C116.188 80.4219 116.812 81.7031 117.312 83.0781C117.844 84.4531 118.359 85.8438 118.859 87.25C119.359 88.6562 120.031 89.9375 120.875 91.0938C121.156 91.5312 121.578 91.7656 122.141 91.7969C122.703 91.8281 123.203 91.8438 123.641 91.8438ZM111.922 81.7188C111.672 83.625 111.109 85.5781 110.234 87.5781C109.359 89.5781 108.656 91.1406 108.125 92.2656C107.594 93.3594 107.141 94.375 106.766 95.3125C108.891 95.3125 111.5 94.6875 114.594 93.4375C115.375 93.0938 116.125 92.7812 116.844 92.5C115.375 86.2188 113.734 82.625 111.922 81.7188ZM131.703 77.875C134.016 77.375 136.203 77.125 138.266 77.125C140.328 77.125 142.156 77.2031 143.75 77.3594C145.375 77.5156 147 77.8125 148.625 78.25C152.062 79.2188 154.188 80.5312 155 82.1875C155.219 82.5312 155.328 82.9375 155.328 83.4062C155.328 84.7812 154.125 86.2656 151.719 87.8594C150.125 88.9219 147.844 90 144.875 91.0938C152.156 91.5 157.094 92.5625 159.688 94.2812C161.125 95.1875 161.844 96.25 161.844 97.4688C161.844 99.1562 160.656 100.906 158.281 102.719C155.688 104.656 152.375 106.266 148.344 107.547C144.625 108.734 141.172 109.328 137.984 109.328C135.547 109.328 133.453 108.969 131.703 108.25C131.641 106.25 131.562 104.188 131.469 102.062C131.219 97.3438 131.094 93.375 131.094 90.1562C131.094 86.9062 131.203 83.5312 131.422 80.0312C131.078 80.0312 130.766 80 130.484 79.9375C130.203 79.8438 130.062 79.5312 130.062 79C130.062 78.25 130.609 77.875 131.703 77.875ZM135.922 105.906C140.953 105.625 145.078 105.031 148.297 104.125C151.516 103.188 153.828 102.188 155.234 101.125C156.672 100.031 157.391 98.9844 157.391 97.9844C157.391 96.6719 156.453 95.625 154.578 94.8438C152.547 94.0312 149.844 93.625 146.469 93.625C143.125 93.625 139.234 94.0781 134.797 94.9844L135.922 105.906ZM140.281 80.1719H139.109C136.547 80.1719 135.109 80.4375 134.797 80.9688L134.328 90.3906C137.141 90.3906 140.562 89.7188 144.594 88.375C147.219 87.4688 149.141 86.4688 150.359 85.375C150.984 84.8125 151.297 84.2344 151.297 83.6406C151.297 83.0469 151.062 82.5625 150.594 82.1875C150.156 81.7812 149.578 81.4531 148.859 81.2031C148.172 80.9531 147.391 80.7656 146.516 80.6406C145.672 80.4844 144.844 80.375 144.031 80.3125C142.781 80.2188 141.531 80.1719 140.281 80.1719ZM166.531 88.5156L166.438 76.8438L170.188 76.9844L169.766 104.453L194.469 105.156C194.969 105.312 195.219 105.578 195.219 105.953C195.219 106.328 194.984 106.719 194.516 107.125C193.609 107.938 192.578 108.344 191.422 108.344C191.141 108.344 190.844 108.312 190.531 108.25L165.359 108.016C166.141 105.109 166.531 98.6094 166.531 88.5156ZM212.562 79.2344C215.688 79.2344 217.766 79.4375 218.797 79.8438V82.1406C217.953 82.2656 216.797 82.3438 215.328 82.375C213.859 82.375 212.297 82.3906 210.641 82.4219C206.016 82.5156 202.859 82.75 201.172 83.125C200.641 85.625 200.391 87.3281 200.422 88.2344C200.453 89.1406 200.484 89.8438 200.516 90.3438C200.641 91.5625 200.703 93 200.703 94.6562C202.828 94.6562 205.25 94.4688 207.969 94.0938C210.719 93.7188 212.844 93.4531 214.344 93.2969C215.844 93.1094 217.391 93.0156 218.984 93.0156V95.5938L201.031 97.8438L201.312 105.531C204.406 105.531 207.562 105.391 210.781 105.109C214.031 104.797 216.484 104.578 218.141 104.453C219.828 104.297 221.609 104.219 223.484 104.219C223.484 104.844 223.297 105.438 222.922 106C222.172 107 221.5 107.297 220.906 106.891C215.406 107.484 210.484 107.953 206.141 108.297C201.828 108.641 198.922 108.875 197.422 109L197.609 79.0938C198.422 79.3438 199.922 79.4688 202.109 79.4688L212.562 79.2344ZM266.891 111.297V102.719C263.922 104.75 261.859 106.094 260.703 106.75C258.016 108.219 255.656 108.953 253.625 108.953C251.188 108.953 249.094 108.062 247.344 106.281C245.562 104.438 244.672 102.328 244.672 99.9531C244.828 97.4531 245.359 94.9219 246.266 92.3594C248.141 86.9219 251.25 82.9375 255.594 80.4062C257.75 79.125 260.234 78.4844 263.047 78.4844C263.109 78.4844 263.172 78.4844 263.234 78.4844L264.5 78.4375C265.938 78.4375 266.594 79 266.469 80.125C263.969 80.25 261.625 80.8281 259.438 81.8594C257.25 82.8906 255.344 84.2812 253.719 86.0312C252.125 87.75 250.859 89.7656 249.922 92.0781C249.016 94.3906 248.562 96.75 248.562 99.1562C248.562 101.562 249.188 103.297 250.438 104.359C251.688 105.422 253.297 105.953 255.266 105.953C256.953 105.953 259.297 105.219 262.297 103.75C264.203 102.812 265.625 101.75 266.562 100.562C267.031 100 267.266 99.4062 267.266 98.7812V91.8438C266.328 91.8438 264.141 92.2031 260.703 92.9219C257.297 93.6406 255.328 94.0469 254.797 94.1406C254.641 94.0469 254.453 93.9531 254.234 93.8594C254.016 93.7344 253.891 93.5625 253.859 93.3438C253.797 92.875 254.484 92.1562 255.922 91.1875C256.266 91 258.328 90.6406 262.109 90.1094C265.891 89.5469 268.297 89.1875 269.328 89.0312C270.359 88.875 271.219 88.75 271.906 88.6562C272.219 88.7188 272.609 88.7188 273.078 88.6562C273.547 88.5625 273.984 88.5312 274.391 88.5625C275.391 88.5938 275.859 89.1406 275.797 90.2031L271.906 91.7969C271.312 93.7031 271.016 97.2969 271.016 102.578L271.109 109.562C271.109 110.188 271.109 110.766 271.109 111.297C270.172 111.766 269.266 112 268.391 112C267.516 112 267.016 111.766 266.891 111.297Z" fill="white"/>
</svg>
