<?xml version="1.0"?>
<svg xmlns="http://www.w3.org/2000/svg" xmlns:xlink="http://www.w3.org/1999/xlink" width="500" zoomAndPan="magnify" viewBox="0 0 375 374.999991" height="500" preserveAspectRatio="xMidYMid meet" version="1.2" style="background-color:transparent;">
  <defs>
    <clipPath id="0929b813a2">
      <path d="M 71.222656 116 L 303.722656 116 L 303.722656 252 L 71.222656 252 Z M 71.222656 116 "/>
    </clipPath>
  </defs>
  <g id="fefec21206">
    <rect x="0" width="375" y="0" height="374.999991" style="fill:none;fill-opacity:1;stroke:none;" fill="none"/>
    <rect x="0" width="375" y="0" height="374.999991" style="fill:none;fill-opacity:1;stroke:none;" fill="none"/>
    <path style=" stroke:none;fill-rule:nonzero;fill:#231f20;fill-opacity:1;" d="M 302.800781 117.648438 L 302.800781 250.429688 C 302.800781 250.566406 302.6875 250.675781 302.550781 250.675781 L 72.410156 250.675781 C 72.273438 250.675781 72.160156 250.566406 72.160156 250.429688 L 72.160156 117.648438 C 72.160156 117.511719 72.273438 117.398438 72.410156 117.398438 L 302.550781 117.398438 C 302.6875 117.398438 302.800781 117.511719 302.800781 117.648438 Z M 302.800781 117.648438 "/>
    <g clip-rule="nonzero" clip-path="url(#0929b813a2)">
      <path style=" stroke:none;fill-rule:nonzero;fill:#231f20;fill-opacity:1;" d="M 303.730469 117.96875 L 303.730469 250.105469 C 303.730469 250.933594 303.058594 251.609375 302.226562 251.609375 L 72.734375 251.609375 C 71.902344 251.609375 71.230469 250.933594 71.230469 250.105469 L 71.230469 117.96875 C 71.230469 117.140625 71.902344 116.464844 72.734375 116.464844 L 302.226562 116.464844 C 303.058594 116.464844 303.730469 117.140625 303.730469 117.96875 Z M 301.867188 249.746094 L 301.867188 118.332031 L 73.09375 118.332031 L 73.09375 249.746094 Z M 301.867188 249.746094 "/>
    </g>
    <g style="fill:#a6a6a6;fill-opacity:1;">
      <g transform="translate(115.112011, 195.257933)">
        <path style="stroke:none" d="M 20.1875 -20.21875 L 16.515625 -20.296875 C 15.554688 -20.296875 14.441406 -20.203125 13.171875 -20.015625 C 13.117188 -18.941406 13.007812 -17.554688 12.84375 -15.859375 C 12.269531 -9.816406 11.984375 -5.894531 11.984375 -4.09375 C 11.984375 -2.300781 12.007812 -1.03125 12.0625 -0.28125 L 8.203125 0 L 9.46875 -20.34375 L 0.703125 -20.84375 C 0.484375 -20.84375 0.3125 -21.019531 0.1875 -21.375 C 0.0625 -21.726562 0 -22.054688 0 -22.359375 C 0 -22.660156 0.117188 -22.988281 0.359375 -23.34375 C 0.609375 -23.707031 0.898438 -23.890625 1.234375 -23.890625 C 3.234375 -23.804688 5.253906 -23.664062 7.296875 -23.46875 C 11.054688 -23.144531 14.253906 -22.984375 16.890625 -22.984375 L 19.4375 -23.0625 C 21.4375 -23.113281 23.425781 -23.332031 25.40625 -23.71875 C 25.84375 -23.632812 26.117188 -22.945312 26.234375 -21.65625 C 26.265625 -21.382812 26.28125 -21.164062 26.28125 -21 C 24.46875 -20.476562 22.4375 -20.21875 20.1875 -20.21875 Z M 20.1875 -20.21875 "/>
      </g>
    </g>
    <g style="fill:#a6a6a6;fill-opacity:1;">
      <g transform="translate(141.389545, 195.257933)">
        <path style="stroke:none" d="M 17.296875 -6.84375 C 15.234375 -3.601562 12.488281 -1.597656 9.0625 -0.828125 C 8.257812 -0.660156 7.535156 -0.578125 6.890625 -0.578125 C 6.253906 -0.578125 5.722656 -0.582031 5.296875 -0.59375 C 4.867188 -0.613281 4.394531 -0.675781 3.875 -0.78125 C 3.351562 -0.894531 2.875 -1.070312 2.4375 -1.3125 C 1.414062 -1.894531 0.90625 -2.707031 0.90625 -3.75 C 0.789062 -4.238281 0.734375 -4.789062 0.734375 -5.40625 C 0.734375 -6.03125 0.867188 -6.847656 1.140625 -7.859375 C 1.421875 -8.878906 1.925781 -9.976562 2.65625 -11.15625 C 3.382812 -12.34375 4.269531 -13.429688 5.3125 -14.421875 C 7.476562 -16.503906 9.828125 -17.847656 12.359375 -18.453125 C 13.097656 -18.617188 13.773438 -18.703125 14.390625 -18.703125 C 15.003906 -18.703125 15.5625 -18.660156 16.0625 -18.578125 C 17.65625 -18.578125 18.726562 -17.488281 19.28125 -15.3125 C 19.632812 -13.945312 19.84375 -12.035156 19.90625 -9.578125 C 19.976562 -7.117188 20.046875 -5.222656 20.109375 -3.890625 C 20.179688 -2.554688 20.359375 -1.34375 20.640625 -0.25 L 18.203125 -0.25 C 18.085938 -0.988281 18.003906 -1.644531 17.953125 -2.21875 C 17.898438 -2.800781 17.847656 -3.335938 17.796875 -3.828125 C 17.648438 -4.984375 17.484375 -5.988281 17.296875 -6.84375 Z M 17.125 -13.21875 C 17.125 -14.8125 16.34375 -15.609375 14.78125 -15.609375 C 14.59375 -15.640625 14.398438 -15.65625 14.203125 -15.65625 C 12.203125 -15.65625 10.085938 -14.691406 7.859375 -12.765625 C 6.816406 -11.890625 5.925781 -10.898438 5.1875 -9.796875 C 4.09375 -8.234375 3.546875 -6.832031 3.546875 -5.59375 C 3.546875 -3.976562 4.476562 -3.019531 6.34375 -2.71875 C 8.8125 -2.769531 11.171875 -3.894531 13.421875 -6.09375 C 14.390625 -7.050781 15.1875 -8.09375 15.8125 -9.21875 C 16.6875 -10.726562 17.125 -12.0625 17.125 -13.21875 Z M 17.125 -13.21875 "/>
      </g>
    </g>
    <g style="fill:#a6a6a6;fill-opacity:1;">
      <g transform="translate(162.848159, 195.257933)">
        <path style="stroke:none" d="M 1.359375 -23.890625 L 1.234375 -29.203125 C 1.234375 -29.640625 1.382812 -29.976562 1.6875 -30.21875 C 1.988281 -30.46875 2.359375 -30.59375 2.796875 -30.59375 C 3.234375 -30.59375 3.628906 -30.476562 3.984375 -30.25 C 4.347656 -30.019531 4.488281 -29.695312 4.40625 -29.28125 L 4.6875 -11.484375 C 6.425781 -13.796875 8.765625 -15.734375 11.703125 -17.296875 C 14.140625 -18.617188 16.28125 -19.28125 18.125 -19.28125 C 19.738281 -19.28125 20.988281 -18.753906 21.875 -17.703125 C 22.53125 -16.878906 22.859375 -15.785156 22.859375 -14.421875 C 22.859375 -13.066406 22.601562 -11.890625 22.09375 -10.890625 C 21.582031 -9.890625 20.914062 -8.925781 20.09375 -8 C 19.269531 -7.082031 18.320312 -6.222656 17.25 -5.421875 C 16.1875 -4.628906 15.101562 -3.921875 14 -3.296875 C 11.914062 -2.085938 9.859375 -1.082031 7.828125 -0.28125 C 7.660156 -0.34375 7.382812 -0.359375 7 -0.328125 C 6.613281 -0.296875 6.144531 -0.28125 5.59375 -0.28125 C 4.113281 -0.28125 2.8125 -0.460938 1.6875 -0.828125 C 1.414062 -3.429688 1.28125 -7.394531 1.28125 -12.71875 Z M 4.8125 -3.671875 C 4.8125 -3.367188 5.09375 -3.21875 5.65625 -3.21875 C 6.21875 -3.21875 6.910156 -3.328125 7.734375 -3.546875 C 8.566406 -3.765625 9.566406 -4.140625 10.734375 -4.671875 C 11.898438 -5.210938 13.070312 -5.90625 14.25 -6.75 C 17 -8.695312 19.070312 -10.988281 20.46875 -13.625 C 20.113281 -15.195312 19.039062 -15.984375 17.25 -15.984375 C 15.632812 -15.984375 13.8125 -15.378906 11.78125 -14.171875 C 8.894531 -12.441406 6.832031 -10.300781 5.59375 -7.75 C 5.070312 -6.726562 4.8125 -5.695312 4.8125 -4.65625 C 4.8125 -4.375 4.8125 -4.148438 4.8125 -3.984375 C 4.8125 -3.828125 4.8125 -3.722656 4.8125 -3.671875 Z M 4.8125 -3.671875 "/>
      </g>
    </g>
    <g style="fill:#a6a6a6;fill-opacity:1;">
      <g transform="translate(186.53089, 195.257933)">
        <path style="stroke:none" d="M 1.84375 -15.96875 C 1.789062 -17.457031 1.738281 -18.785156 1.6875 -19.953125 C 1.632812 -21.117188 1.597656 -21.984375 1.578125 -22.546875 C 1.566406 -23.109375 1.34375 -24.488281 0.90625 -26.6875 C 1.15625 -27.019531 1.394531 -27.335938 1.625 -27.640625 C 1.863281 -27.941406 2.203125 -28.09375 2.640625 -28.09375 C 3.597656 -28.09375 4.335938 -24.039062 4.859375 -15.9375 C 5.128906 -11.238281 5.265625 -6.546875 5.265625 -1.859375 C 5.265625 -0.585938 4.390625 0.046875 2.640625 0.046875 L 2.3125 0 C 2.3125 -1.425781 2.269531 -3.25 2.1875 -5.46875 C 2.101562 -7.695312 2.039062 -9.632812 2 -11.28125 C 1.957031 -12.925781 1.90625 -14.488281 1.84375 -15.96875 Z M 1.84375 -15.96875 "/>
      </g>
    </g>
    <g style="fill:#a6a6a6;fill-opacity:1;">
      <g transform="translate(193.162055, 195.257933)">
        <path style="stroke:none" d="M 9.515625 -2.890625 C 11.929688 -2.890625 15.566406 -3.984375 20.421875 -6.171875 C 20.722656 -6.171875 20.96875 -6.066406 21.15625 -5.859375 C 21.351562 -5.660156 21.453125 -5.421875 21.453125 -5.140625 C 20.359375 -3.273438 18.257812 -1.820312 15.15625 -0.78125 C 12.050781 0.257812 9.15625 0.4375 6.46875 -0.25 C 3.414062 -1.039062 1.5625 -2.753906 0.90625 -5.390625 C 0.851562 -5.910156 0.828125 -6.609375 0.828125 -7.484375 C 0.828125 -8.367188 1.050781 -9.53125 1.5 -10.96875 C 1.957031 -12.414062 2.734375 -13.785156 3.828125 -15.078125 C 4.929688 -16.367188 6.222656 -17.382812 7.703125 -18.125 C 9.179688 -18.863281 10.757812 -19.234375 12.4375 -19.234375 C 14.03125 -19.234375 15.816406 -18.679688 17.796875 -17.578125 C 18.722656 -17.054688 19.460938 -16.46875 20.015625 -15.8125 C 20.566406 -15.15625 20.84375 -14.484375 20.84375 -13.796875 C 20.84375 -13.609375 20.828125 -13.414062 20.796875 -13.21875 C 20.742188 -11.539062 19.9375 -10.484375 18.375 -10.046875 C 17.6875 -9.859375 16.890625 -9.765625 15.984375 -9.765625 L 10.046875 -10 C 8.066406 -10 6.554688 -9.578125 5.515625 -8.734375 C 4.910156 -8.265625 4.484375 -7.5625 4.234375 -6.625 C 4.921875 -4.132812 6.679688 -2.890625 9.515625 -2.890625 Z M 16.859375 -15.609375 C 16.242188 -16.046875 15.609375 -16.359375 14.953125 -16.546875 C 14.296875 -16.742188 13.742188 -16.84375 13.296875 -16.84375 C 12.859375 -16.84375 12.144531 -16.695312 11.15625 -16.40625 C 10.164062 -16.125 9.289062 -15.800781 8.53125 -15.4375 C 6.632812 -14.5625 5.6875 -13.644531 5.6875 -12.6875 C 7.882812 -12.488281 9.53125 -12.390625 10.625 -12.390625 C 13.675781 -12.390625 15.734375 -12.648438 16.796875 -13.171875 C 17.460938 -13.453125 17.796875 -13.796875 17.796875 -14.203125 C 17.796875 -14.703125 17.484375 -15.171875 16.859375 -15.609375 Z M 16.859375 -15.609375 "/>
      </g>
    </g>
    <g style="fill:#a6a6a6;fill-opacity:1;">
      <g transform="translate(215.979851, 195.257933)">
        <path style="stroke:none" d=""/>
      </g>
    </g>
    <g style="fill:#a6a6a6;fill-opacity:1;">
      <g transform="translate(232.866668, 195.257933)">
        <path style="stroke:none" d="M 22.609375 -15.078125 L 23.765625 -15.078125 C 24.234375 -15.078125 24.675781 -15.035156 25.09375 -14.953125 C 25.519531 -14.867188 25.734375 -14.566406 25.734375 -14.046875 C 25.929688 -12.941406 25.285156 -12.40625 23.796875 -12.4375 C 23.390625 -12.46875 23.015625 -12.492188 22.671875 -12.515625 C 22.328125 -12.546875 22.046875 -12.550781 21.828125 -12.53125 C 21.609375 -12.519531 21.507812 -12.445312 21.53125 -12.3125 C 21.8125 -11.519531 22.109375 -10.628906 22.421875 -9.640625 C 22.734375 -8.648438 23.082031 -7.660156 23.46875 -6.671875 C 24.457031 -4.222656 25.394531 -2.46875 26.28125 -1.40625 C 25.8125 -0.820312 25.265625 -0.335938 24.640625 0.046875 C 24.023438 0.429688 23.695312 0.625 23.65625 0.625 C 23.613281 0.625 23.582031 0.609375 23.5625 0.578125 L 17.75 -11.65625 L 6.5 -8.890625 L 6.09375 -7.171875 C 5.300781 -4.015625 4.410156 -1.816406 3.421875 -0.578125 C 3.253906 -0.304688 2.910156 -0.28125 2.390625 -0.5 C 1.515625 -0.820312 1.078125 -1.09375 1.078125 -1.3125 C 1.078125 -1.375 1.363281 -2.171875 1.9375 -3.703125 C 2.507812 -5.242188 3.09375 -6.800781 3.6875 -8.375 C 4.28125 -9.957031 4.894531 -11.613281 5.53125 -13.34375 C 6.175781 -15.070312 6.785156 -16.71875 7.359375 -18.28125 C 7.941406 -19.851562 8.46875 -21.257812 8.9375 -22.5 C 9.40625 -23.75 9.734375 -24.65625 9.921875 -25.21875 C 10.117188 -25.78125 10.25 -26.273438 10.3125 -26.703125 C 10.382812 -27.128906 10.488281 -27.492188 10.625 -27.796875 C 10.894531 -28.429688 11.582031 -28.75 12.6875 -28.75 C 13.863281 -28.082031 14.773438 -27.222656 15.421875 -26.171875 C 16.066406 -25.117188 16.613281 -23.988281 17.0625 -22.78125 C 17.519531 -21.570312 17.96875 -20.347656 18.40625 -19.109375 C 18.84375 -17.867188 19.4375 -16.742188 20.1875 -15.734375 C 20.425781 -15.347656 20.789062 -15.140625 21.28125 -15.109375 C 21.78125 -15.085938 22.222656 -15.078125 22.609375 -15.078125 Z M 12.3125 -23.96875 C 12.09375 -22.289062 11.597656 -20.570312 10.828125 -18.8125 C 10.054688 -17.0625 9.4375 -15.695312 8.96875 -14.71875 C 8.507812 -13.75 8.113281 -12.851562 7.78125 -12.03125 C 9.644531 -12.03125 11.9375 -12.578125 14.65625 -13.671875 C 15.34375 -13.972656 16.003906 -14.25 16.640625 -14.5 C 15.347656 -20.019531 13.90625 -23.175781 12.3125 -23.96875 Z M 12.3125 -23.96875 "/>
      </g>
    </g>
  </g>
</svg>
